<?xml version="1.0" encoding="UTF-8"?>
<svg width="250px" height="150px" viewBox="0 0 250 150" version="1.1" xmlns="http://www.w3.org/2000/svg" xmlns:xlink="http://www.w3.org/1999/xlink">
    <!-- Generator: Sketch 49.3 (51167) - http://www.bohemiancoding.com/sketch -->
    <title>buy</title>
    <desc>Created with Sketch.</desc>
    <defs>
        <rect id="path-1" x="0" y="0" width="250" height="150"></rect>
        <polygon id="path-3" points="0.0938611773 52.4752475 55.8346174 52.4752475 55.8346174 0.163316642 0.0938611773 0.163316642"></polygon>
        <polygon id="path-5" points="0 70.9448446 0 0.147415254 37.4043113 0.147415254 74.8086227 0.147415254 74.8086227 70.9448446"></polygon>
        <polygon id="path-7" points="14.8307432 0.118542614 14.8307432 34.9246506 0.00628464419 34.9246506 0.00628464419 0.118542614"></polygon>
    </defs>
    <g id="Page-1" stroke="none" stroke-width="1" fill="none" fill-rule="evenodd">
        <g id="buy">
            <mask id="mask-2" fill="white">
                <use xlink:href="#path-1"></use>
            </mask>
            <g id="Mask"></g>
            <g mask="url(#mask-2)">
                <g transform="translate(0.000000, -50.000000)">
                    <rect id="Rectangle-Copy-4" fill="#FFFFFF" fill-rule="nonzero" x="0" y="0" width="250" height="250"></rect>
                    <g id="Page-1" stroke-width="1" fill="none" fill-rule="evenodd" transform="translate(16.000000, 85.000000)">
                        <path d="M62.6538199,40.2600761 L59.7445007,52.8073552 C57.4712384,62.6121559 47.8403322,67 31.3873983,67 C14.8238368,67 7.11719676,62.6121559 9.38984778,52.8073552 L18.3877529,14 L33.5162132,14 L30.4327015,27.301152 C33.8097937,26.5470767 37.2013509,26.2040392 41.3974532,26.2040392 C56.7471684,26.2040392 64.8156397,30.9349208 62.6538199,40.2600761" id="Fill-1" fill="#FEFEFE" fill-rule="nonzero"></path>
                        <path d="M103.300791,52.1701254 L109.065214,27 L124,27 L117.970817,53.3269179 C115.493533,64.1430579 105.100202,67 90.0569954,67 C75.0137893,67 65.9280849,64.1430579 68.4051693,53.3269179 L74.434352,27 L89.3689386,27 L83.6047157,52.1701254 C82.5297018,56.8641607 84.1651845,58.7008524 91.9576375,58.7008524 C99.7490922,58.7008524 102.225777,56.8641607 103.300791,52.1701254" id="Fill-3" fill="#F19419" fill-rule="nonzero"></path>
                        <g id="Group-7" transform="translate(122.000000, 27.000000)">
                            <g id="Fill-5-Clipped">
                                <mask id="mask-4" fill="white">
                                    <use xlink:href="#path-3"></use>
                                </mask>
                                <g id="path-1"></g>
                                <path d="M46.8583855,38.7842946 C43.9616029,51.2490759 29.4898638,52.4753078 17.6129942,52.4753078 L1.00737101,52.4753078 L2.93855942,44.1657217 L20.5341246,44.1657217 C26.2530232,44.1657217 30.6212261,43.8245321 31.8556609,38.5120667 L32.4256029,36.0598039 C29.329371,36.6048629 25.8727913,36.8093354 22.1343855,36.8093354 C5.08826957,36.8093354 -1.92573043,31.9727662 0.591226087,21.1427598 L5.46728406,0.163316642 L20.6436899,0.163316642 L15.8784145,20.6660593 C14.7227043,25.6381393 16.147458,28.498945 24.0661826,28.498945 C31.983487,28.498945 34.7380377,25.6381393 35.8937478,20.6660593 L40.6586174,0.163316642 L55.8346174,0.163316642 L46.8583855,38.7842946 Z" id="Fill-5" fill="#F19419" fill-rule="nonzero" mask="url(#mask-4)"></path>
                            </g>
                        </g>
                        <g id="Group-10">
                            <g id="Fill-8-Clipped">
                                <mask id="mask-6" fill="white">
                                    <use xlink:href="#path-5"></use>
                                </mask>
                                <g id="path-3"></g>
                                <path d="M38.4573171,35.1317627 C32.398374,35.1317627 28.272561,36.7621554 27.0989837,41.7905198 L24.9581301,50.9639605 C23.8319106,55.7879492 25.6199187,58.9819463 33.3319106,58.9819463 C39.2804878,58.9819463 43.5806911,57.0791864 44.928252,51.3031158 L47.1331301,41.8585113 C48.3065041,36.8303475 44.9567073,35.1317627 38.4573171,35.1317627 M62.4792683,40.7714492 L59.5768293,53.2058757 C57.3089431,62.9228475 47.7006098,67.2714972 31.2865854,67.2714972 C14.7621951,67.2714972 7.07398374,62.9228475 9.34126016,53.2058757 L18.3176829,14.7471412 L33.4105691,14.7471412 L30.3343496,27.9288729 C33.7034553,27.1817684 37.0867886,26.8416102 41.2731707,26.8416102 C56.5865854,26.8416102 64.6357724,31.5302175 62.4792683,40.7714492 M44.0215447,3.31854802 C47.776626,3.31854802 51.0953252,4.74015254 53.3672764,7.32282768 C54.1323171,8.19147458 54.6918699,9.1870791 55.1560976,10.2294153 L30.6573171,10.2294153 C33.8018293,6.09877966 38.775,3.31854802 44.0215447,3.31854802 M67.6107724,10.2294153 L58.5957317,10.2294153 C57.9973577,8.40427401 57.0841463,6.70929944 55.7930894,5.24337006 C52.9012195,1.95751412 48.7211382,0.147415254 44.0215447,0.147415254 C37.0182927,0.147415254 30.477439,4.31475424 26.9097561,10.2294153 L21.3682927,10.2294153 C16.7989837,10.2294153 12.5221545,12.5351102 11.8642276,15.3538503 L0.0855691057,65.8208107 C-0.571747967,68.638548 2.62865854,70.9448446 7.19776423,70.9448446 L53.4404472,70.9448446 C58.0095528,70.9448446 62.2863821,68.638548 62.9439024,65.8208107 L74.7229675,15.3538503 C75.3804878,12.5351102 72.1800813,10.2294153 67.6107724,10.2294153" id="Fill-8" fill="#F19419" fill-rule="nonzero" mask="url(#mask-6)"></path>
                            </g>
                        </g>
                        <g id="Group-13" transform="translate(203.000000, 13.000000)">
                            <g id="Fill-11-Clipped">
                                <mask id="mask-8" fill="white">
                                    <use xlink:href="#path-7"></use>
                                </mask>
                                <g id="path-5"></g>
                                <path d="M4.97264189,34.9246506 L2.32331757,34.9246506 C0.749736486,34.9246506 -0.264790541,33.661071 0.070277027,32.1170937 L6.39439865,2.92609943 C6.72906081,1.3819233 8.29068243,0.118542614 9.86466892,0.118542614 L12.5135878,0.118542614 C14.0875743,0.118542614 15.1016959,1.3819233 14.7668311,2.92609943 L8.44230405,32.1170937 C8.10784459,33.661071 6.54642568,34.9246506 4.97264189,34.9246506" id="Fill-11" fill="#5B80C0" fill-rule="nonzero" mask="url(#mask-8)"></path>
                            </g>
                        </g>
                        <path d="M188.376894,41 L187.136824,41 C185.685727,41 184.750002,39.930793 185.059012,38.6244511 L188.423341,24.3759308 C188.731503,23.069207 190.171782,22 191.623091,22 L192.862949,22 C194.314257,22 195.249559,23.069207 194.941185,24.3759308 L191.576644,38.6244511 C191.268058,39.930793 189.828626,41 188.376894,41" id="Fill-14" fill="#5B80C0" fill-rule="nonzero"></path>
                        <path d="M199.942439,31.8343041 L199.684787,33.1659237 C199.383398,34.7244151 197.975744,36 196.557518,36 L181.08866,36 C179.669813,36 178.756112,34.7244151 179.057501,33.1659237 L179.315152,31.8343041 C179.616748,30.2753571 181.023988,29 182.442421,29 L197.911279,29 C199.330127,29 200.244034,30.2753571 199.942439,31.8343041" id="Fill-16" fill="#5B80C0" fill-rule="nonzero"></path>
                        <path d="M217.939161,15.8343041 L217.667348,17.1661514 C217.3487,18.7246429 215.862919,20 214.365758,20 L206.205233,20 C204.707196,20 203.7425,18.7246429 204.06071,17.1661514 L204.332742,15.8343041 C204.65117,14.2753571 206.136951,13 207.634988,13 L215.795075,13 C217.292674,13 218.257808,14.2753571 217.939161,15.8343041" id="Fill-18" fill="#5B80C0" fill-rule="nonzero"></path>
                    </g>
                </g>
            </g>
        </g>
    </g>
</svg>