<svg id="圖層_1" data-name="圖層 1" xmlns="http://www.w3.org/2000/svg" viewBox="0 0 380 83.86"><defs><style>.cls-1{fill:#fdd000;}.cls-2{fill:#d70029;}</style></defs><title>DHL</title><polygon class="cls-1" points="380 0 380 83.86 0 83.86 0 0 380 0 380 0"/><polygon class="cls-2" points="0 57.97 51.39 57.97 48.58 61.79 0 61.79 0 57.97 0 57.97 0 57.97"/><polygon class="cls-2" points="0 50.88 56.61 50.88 53.8 54.7 0 54.7 0 50.88 0 50.88 0 50.88"/><polygon class="cls-2" points="0 65.06 46.17 65.06 43.38 68.86 0 68.86 0 65.06 0 65.06 0 65.06"/><polygon class="cls-2" points="380 61.79 328.81 61.79 331.62 57.97 380 57.97 380 61.79 380 61.79 380 61.79"/><polygon class="cls-2" points="380 68.86 323.61 68.86 326.4 65.06 380 65.06 380 68.86 380 68.86 380 68.86"/><polygon class="cls-2" points="336.83 50.88 380 50.88 380 54.7 334.03 54.7 336.83 50.88 336.83 50.88 336.83 50.88"/><path class="cls-2" d="M49.77,68.86,74.16,35.73h30.26c3.34,0,3.3,1.27,1.67,3.48s-4.49,6.12-6.18,8.4c-.86,1.16-2.41,3.27,2.73,3.27h40.54c-3.37,4.62-14.31,18-33.94,18Z"/><path class="cls-2" d="M189.43,50.88l-13.22,18H141.32s13.22-18,13.23-18Z"/><path class="cls-2" d="M239.88,50.88l-13.23,18H191.77s13.22-18,13.23-18Z"/><path class="cls-2" d="M251.22,50.88s-2.55,3.49-3.79,5.16c-4.38,5.92-.51,12.82,13.79,12.82h56l13.23-18Z"/><path class="cls-2" d="M66.83,15.12,54.69,31.62h66.17c3.34,0,3.3,1.27,1.67,3.48s-4.44,6.16-6.13,8.44c-.86,1.16-2.41,3.27,2.73,3.27h27.06l8-10.9c5-6.75.43-20.79-17.35-20.79Z"/><polygon class="cls-2" points="242.87 46.81 157.55 46.81 180.88 15.12 215.75 15.12 202.38 33.29 217.94 33.29 231.33 15.12 266.19 15.12 242.87 46.81 242.87 46.81 242.87 46.81"/><path class="cls-2" d="M314.49,15.12,291.16,46.81H254.21s23.33-31.69,23.34-31.69Z"/></svg>