<?xml version="1.0" encoding="UTF-8"?>
<svg width="250px" height="250px" viewBox="0 0 250 250" version="1.1" xmlns="http://www.w3.org/2000/svg" xmlns:xlink="http://www.w3.org/1999/xlink">
    <!-- Generator: Sketch 46.2 (44496) - http://www.bohemiancoding.com/sketch -->
    <title>hi-life</title>
    <desc>Created with Sketch.</desc>
    <defs>
        <polygon id="path-1" points="0 222 193 222 193 0 0 0"></polygon>
    </defs>
    <g id="Page-1" stroke="none" stroke-width="1" fill="none" fill-rule="evenodd">
        <g id="hi-life">
            <rect id="Rectangle-Copy-2" fill="#FFFFFF" x="0" y="0" width="250" height="250"></rect>
            <g transform="translate(29.000000, 14.000000)">
                <path d="M186.539126,26.7637247 C195.824828,40.6860305 194.855365,61.7655852 185.2116,75.2428083 C166.996265,108.630995 134.315282,141.520209 97.9868443,162 L96.9395847,162 C58.4587788,139.903042 24.9404872,105.153661 5.63001763,69.8110034 C-1.49733198,55.5548855 -0.534351843,36.0086707 9.48193818,23.2848946 C22.3781921,5.90621245 43.9786694,-1.4885468 66.6418658,1.87751567 C78.0016403,3.86741445 87.8857761,8.63159538 96.6598168,16.5687368 C99.0979368,15.1307006 101.488681,12.6508117 104.074415,10.8954296 C120.798153,-0.812440272 148.79589,-2.4780075 166.996265,7.76088992 C175.187331,11.9742062 182.183025,19.3919181 186.539126,26.7637247 Z" id="Fill-1" fill="#E50113"></path>
                <path d="M186.539126,26.7637247 C195.824828,40.6860305 194.855365,61.7655852 185.2116,75.2428083 C166.996265,108.630995 134.315282,141.520209 97.9868443,162 L96.9395847,162 C58.4587788,139.903042 24.9404872,105.153661 5.63001763,69.8110034 C-1.49733198,55.5548855 -0.534351843,36.0086707 9.48193818,23.2848946 C22.3781921,5.90621245 43.9786694,-1.4885468 66.6418658,1.87751567 C78.0016403,3.86741445 87.8857761,8.63159538 96.6598168,16.5687368 C99.0979368,15.1307006 101.488681,12.6508117 104.074415,10.8954296 C120.798153,-0.812440272 148.79589,-2.4780075 166.996265,7.76088992 C175.187331,11.9742062 182.183025,19.3919181 186.539126,26.7637247 Z" id="Stroke-3" stroke="#FEFEFE" stroke-width="2.138"></path>
                <path d="M184.77574,27.1452687 C195.741672,45.5338102 187.813646,68.7134035 176.009962,84.3627822 C157.93036,113.282898 129.294991,140.813072 97.1697367,159 L95.8456613,159 C58.0323587,137.611589 23.344073,102.431026 5.44167813,67.182432 C-3.50230162,50.067631 1.58891749,29.0849296 15.9815171,15.8087304 C29.9928229,2.17002416 51.4134752,-1.17993806 70.9206892,3.3548759 C79.9104641,5.63370433 88.3730976,10.2857123 94.8829689,17.2100932 C95.2478363,17.5428051 95.8456613,17.3367223 96.2090354,17.3367223 C110.887854,1.41720134 136.044291,-2.58477694 156.875082,4.0982636 C168.80968,7.89614546 179.009541,17.0869401 184.77574,27.1452687" id="Fill-5" fill="#FEFEFE"></path>
                <path d="M184.77574,27.1452687 C195.741672,45.5338102 187.813646,68.7134035 176.009962,84.3627822 C157.93036,113.282898 129.294991,140.813072 97.1697367,159 L95.8456613,159 C58.0323587,137.611589 23.344073,102.431026 5.44167813,67.182432 C-3.50230162,50.067631 1.58891749,29.0849296 15.9815171,15.8087304 C29.9928229,2.17002416 51.4134752,-1.17993806 70.9206892,3.3548759 C79.9104641,5.63370433 88.3730976,10.2857123 94.8829689,17.2100932 C95.2478363,17.5428051 95.8456613,17.3367223 96.2090354,17.3367223 C110.887854,1.41720134 136.044291,-2.58477694 156.875082,4.0982636 C168.80968,7.89614546 179.009541,17.0869401 184.77574,27.1452687 Z" id="Stroke-7" stroke="#FEFEFE" stroke-width="2.138"></path>
                <path d="M57.1341115,56.5255485 C55.7485084,54.8609639 53.5656611,53.9598129 51.2654405,54.5341345 C49.2367702,54.8609639 47.5870768,56.6123704 47.2394327,58.3493066 L47.1310115,69.03588 L46.9594274,69.2998384 L42.096388,69.3801736 L41.9964216,63.4867656 C41.7179084,60.5168592 42.7319949,56.5255485 38.8850313,55.1254213 C37.4128901,54.4572922 35.4070977,54.4572922 34.013537,55.1254213 C30.2580849,56.8703411 31.4507182,61.00386 31.2652085,64.2287432 L31.2652085,84.618907 C31.3651748,86.9336576 31.0861643,89.4998922 33.657438,91.0028086 C35.120627,91.9024627 37.3114317,91.9927774 38.8850313,91.3251472 C40.5416875,90.6709894 41.7179084,89.1875331 42.096388,87.6826209 L42.096388,78.9081243 L46.9594274,78.8257932 L47.1310115,78.9081243 L47.2394327,86.8568153 C47.4025618,88.1895807 47.7666184,89.5912049 49.1591844,90.4963477 C50.5373274,91.5821199 52.5431198,91.9024627 54.3778255,91.3251472 C56.2135259,90.6709894 57.8463096,89.0158853 57.9557255,87.2794481 L57.9557255,62.0033093 C57.8463096,60.1800503 58.3272422,58.1836465 57.1341115,56.5255485 M78.3045963,39.8033589 C77.3069223,38.2236002 75.4707245,36.9776566 73.6365161,36.8095017 C70.9801965,36.3229999 68.5874696,37.4646574 66.953194,39.2924073 C66.1241198,38.4666016 65.1110281,37.8029633 64.1894478,37.3044861 C61.8041811,36.4791794 58.7688846,36.5615105 56.8486355,38.1312896 C54.9214236,39.6247254 54.0073035,42.1999416 54.7413847,44.5241728 C56.5860373,50.3202804 61.2695352,55.9457382 67.139201,59.5134181 C70.067071,57.6153126 72.908403,54.6149686 74.9052432,51.8830739 C76.9254586,48.2400486 80.5192736,44.2716908 78.3045963,39.8033589 M71.9863254,64.4772334 C71.53026,63.5591172 70.7941894,62.5836187 69.7035118,62.1510063 C68.3079617,61.3301904 66.1241198,61.4958505 64.6465078,62.0033093 C62.9122658,62.8301129 61.7111776,64.3195569 61.6181741,66.1537934 L61.6181741,85.2785535 C61.4331618,87.1786549 61.8041811,88.8487283 63.174864,90.0038582 C64.5535043,91.3251472 66.5891374,91.5821199 68.4079281,91.3251472 C70.4157099,90.9224734 72.3503819,89.1875331 72.3503819,87.1786549 L72.3503819,71.9479052 C72.0793289,69.2998384 72.823357,67.1532428 71.9863254,64.4772334 M84.6303274,78.242989 L78.6686529,78.15966 C77.933577,78.242989 76.9254586,77.9925029 76.3848446,78.3248211 C73.2724596,79.5612841 74.9052432,82.9543223 74.5575991,85.204705 C76.1127969,88.3367787 80.0547534,86.6866644 83.0895526,87.0154897 C84.4686903,87.1786549 85.4603963,86.6118179 86.203927,85.6991905 C87.1165551,83.9617553 86.5739517,81.9668484 86.7539906,80.1530699 C86.4739854,79.2299639 85.6623183,78.4874873 84.6303274,78.242989 M98.2058567,56.2805512 C96.8421367,54.4572922 93.8073375,53.6329835 91.6070832,54.8609639 C89.865381,55.7930515 88.3947318,57.2814975 88.588199,59.1815989 L88.6821972,84.2905806 L88.9522555,87.8577615 C89.1387599,89.3442117 90.9809258,91.0028086 92.807674,91.3251472 C96.0150519,91.6689418 99.6760085,91.5821199 103.067901,91.2493028 C104.547005,90.9224734 106.009697,89.9275148 106.652764,88.6795753 C107.466918,86.8568153 107.19487,84.618907 105.723724,83.0436391 C104.168526,81.3860401 101.61267,81.6300395 99.3979926,81.6300395 C99.1264423,74.0121697 99.311952,66.5634529 99.1264423,59.0034644 C99.1264423,58.0134956 98.7623857,57.2036572 98.2058567,56.2805512 M120.042286,50.5652777 C119.212715,49.1496822 117.555064,47.918209 116.099335,47.4950771 C113.715063,46.8389234 111.044321,47.3269222 109.302121,49.1496822 C107.560916,50.894602 107.017318,53.6329835 108.125403,55.8698938 C109.023111,57.9391481 111.500386,59.5972461 113.88615,59.5972461 C116.278877,59.6685997 118.299092,58.3493066 119.669775,56.5255485 C121.047918,54.9552704 121.047918,52.3017149 120.042286,50.5652777 M146.716888,71.0362756 L155.165785,70.9474579 C154.785316,69.9639758 153.592186,69.2998384 152.493053,68.8856882 C150.844852,68.4635543 149.11807,68.7085516 147.82547,69.7089989 C147.460917,70.0338324 146.716888,70.6196305 146.716888,71.0362756 M165.425515,68.8856882 C163.961829,63.8994189 158.378137,59.9255724 152.679558,59.3382774 C146.252368,58.8522746 140.026106,61.90551 137.092268,66.9626339 C136.357192,68.2983932 135.900629,69.7089989 135.536075,71.1889623 C134.885548,71.0362756 134.15843,71.2882586 133.709327,71.0362756 L133.709327,58.1836465 L133.978888,57.9391481 L138.563414,57.9391481 C140.484658,57.690658 142.22636,56.9476824 143.232489,55.2840957 C144.146112,53.6329835 143.984475,51.5442691 142.682426,50.139651 C140.66221,47.3269222 136.627748,48.4850459 133.344276,48.2400486 C130.758082,48.4850459 127.830709,47.8308881 125.639904,48.9066808 C123.889747,49.8103267 122.705072,51.3102492 122.705072,53.1444858 L122.705072,71.0362756 C121.775534,71.5362498 120.506807,71.1889623 119.306216,71.2882586 C119.035163,68.2983932 120.296927,65.2281926 118.113085,62.9059573 C116.642933,61.3301904 114.621226,60.8391979 112.716395,61.3301904 C111.044321,61.90551 109.40905,63.2407703 109.023111,64.8958744 C108.852521,72.0252465 108.852521,79.2299639 108.938065,86.2770049 C109.023111,88.0129431 109.766641,89.4998922 111.236793,90.6031286 C112.716395,91.5821199 115.000203,91.5821199 116.463392,90.6709894 C120.296927,88.8487283 118.949122,84.8644033 119.306216,81.3860401 L119.212715,81.2303595 L122.705072,81.2303595 L122.705072,81.8855153 L122.875661,105.421225 C122.875661,107.067847 123.053213,108.649601 124.431356,109.718408 C125.71749,111.049178 127.746658,111.383492 129.565449,111.049178 C131.586161,110.633531 133.430317,108.980422 133.709327,106.994497 L133.709327,83.9617553 L133.79487,81.0547199 L135.536075,81.0547199 C135.992638,81.6300395 135.992638,82.5531455 136.357192,83.2951231 C138.107349,88.1895807 143.984475,92.0726136 149.56767,92.3265924 C153.592186,91.9927774 158.726776,93.7357013 161.491516,90.6709894 C162.584183,89.3442117 163.048704,87.3577874 162.507095,85.6991905 C161.762569,83.9617553 159.919906,82.8754841 158.000154,82.6200083 L148.730141,82.6200083 C148.009488,82.2193304 147.274909,81.5512012 146.91135,80.9748837 L154.158164,80.9748837 C157.721641,80.5632284 162.126129,82.0516744 164.325886,79.1506267 C165.982044,76.1742336 166.718115,72.1909066 165.425515,68.8856882 M181.523578,30.5598247 C190.513089,45.8010529 184.736925,65.5694923 175.012338,78.9465454 C157.681854,107.932572 128.55932,136.106765 97.2061932,155 L95.36353,154.674668 C58.9225642,132.501662 27.5480519,99.9155216 9.86196624,65.7680848 C1.91787449,49.8103267 6.59440956,30.0154416 20.5399635,17.8304426 C34.2915528,5.37200468 56.8879258,1.43009265 74.8276574,8.7251248 C82.9890889,11.5268762 89.865381,17.4207832 95.735544,24.0566677 L96.2478094,23.8436049 C108.852521,7.64633824 130.394523,1.89164564 151.170613,6.57703223 C163.681824,9.72856595 176.343233,19.3832566 181.523578,30.5598247" id="Fill-9" fill="#E50113"></path>
                <path d="M57.1341115,56.5255485 C55.7485084,54.8609639 53.5656611,53.9598129 51.2654405,54.5341345 C49.2367702,54.8609639 47.5870768,56.6123704 47.2394327,58.3493066 L47.1310115,69.03588 L46.9594274,69.2998384 L42.096388,69.3801736 L41.9964216,63.4867656 C41.7179084,60.5168592 42.7319949,56.5255485 38.8850313,55.1254213 C37.4128901,54.4572922 35.4070977,54.4572922 34.013537,55.1254213 C30.2580849,56.8703411 31.4507182,61.00386 31.2652085,64.2287432 L31.2652085,84.618907 C31.3651748,86.9336576 31.0861643,89.4998922 33.657438,91.0028086 C35.120627,91.9024627 37.3114317,91.9927774 38.8850313,91.3251472 C40.5416875,90.6709894 41.7179084,89.1875331 42.096388,87.6826209 L42.096388,78.9081243 L46.9594274,78.8257932 L47.1310115,78.9081243 L47.2394327,86.8568153 C47.4025618,88.1895807 47.7666184,89.5912049 49.1591844,90.4963477 C50.5373274,91.5821199 52.5431198,91.9024627 54.3778255,91.3251472 C56.2135259,90.6709894 57.8463096,89.0158853 57.9557255,87.2794481 L57.9557255,62.0033093 C57.8463096,60.1800503 58.3272422,58.1836465 57.1341115,56.5255485 Z M78.3045963,39.8033589 C77.3069223,38.2236002 75.4707245,36.9776566 73.6365161,36.8095017 C70.9801965,36.3229999 68.5874696,37.4646574 66.953194,39.2924073 C66.1241198,38.4666016 65.1110281,37.8029633 64.1894478,37.3044861 C61.8041811,36.4791794 58.7688846,36.5615105 56.8486355,38.1312896 C54.9214236,39.6247254 54.0073035,42.1999416 54.7413847,44.5241728 C56.5860373,50.3202804 61.2695352,55.9457382 67.139201,59.5134181 C70.067071,57.6153126 72.908403,54.6149686 74.9052432,51.8830739 C76.9254586,48.2400486 80.5192736,44.2716908 78.3045963,39.8033589 Z M71.9863254,64.4772334 C71.53026,63.5591172 70.7941894,62.5836187 69.7035118,62.1510063 C68.3079617,61.3301904 66.1241198,61.4958505 64.6465078,62.0033093 C62.9122658,62.8301129 61.7111776,64.3195569 61.6181741,66.1537934 L61.6181741,85.2785535 C61.4331618,87.1786549 61.8041811,88.8487283 63.174864,90.0038582 C64.5535043,91.3251472 66.5891374,91.5821199 68.4079281,91.3251472 C70.4157099,90.9224734 72.3503819,89.1875331 72.3503819,87.1786549 L72.3503819,71.9479052 C72.0793289,69.2998384 72.823357,67.1532428 71.9863254,64.4772334 Z M84.6303274,78.242989 L78.6686529,78.15966 C77.933577,78.242989 76.9254586,77.9925029 76.3848446,78.3248211 C73.2724596,79.5612841 74.9052432,82.9543223 74.5575991,85.204705 C76.1127969,88.3367787 80.0547534,86.6866644 83.0895526,87.0154897 C84.4686903,87.1786549 85.4603963,86.6118179 86.203927,85.6991905 C87.1165551,83.9617553 86.5739517,81.9668484 86.7539906,80.1530699 C86.4739854,79.2299639 85.6623183,78.4874873 84.6303274,78.242989 Z M98.2058567,56.2805512 C96.8421367,54.4572922 93.8073375,53.6329835 91.6070832,54.8609639 C89.865381,55.7930515 88.3947318,57.2814975 88.588199,59.1815989 L88.6821972,84.2905806 L88.9522555,87.8577615 C89.1387599,89.3442117 90.9809258,91.0028086 92.807674,91.3251472 C96.0150519,91.6689418 99.6760085,91.5821199 103.067901,91.2493028 C104.547005,90.9224734 106.009697,89.9275148 106.652764,88.6795753 C107.466918,86.8568153 107.19487,84.618907 105.723724,83.0436391 C104.168526,81.3860401 101.61267,81.6300395 99.3979926,81.6300395 C99.1264423,74.0121697 99.311952,66.5634529 99.1264423,59.0034644 C99.1264423,58.0134956 98.7623857,57.2036572 98.2058567,56.2805512 Z M120.042286,50.5652777 C119.212715,49.1496822 117.555064,47.918209 116.099335,47.4950771 C113.715063,46.8389234 111.044321,47.3269222 109.302121,49.1496822 C107.560916,50.894602 107.017318,53.6329835 108.125403,55.8698938 C109.023111,57.9391481 111.500386,59.5972461 113.88615,59.5972461 C116.278877,59.6685997 118.299092,58.3493066 119.669775,56.5255485 C121.047918,54.9552704 121.047918,52.3017149 120.042286,50.5652777 Z M146.716888,71.0362756 L155.165785,70.9474579 C154.785316,69.9639758 153.592186,69.2998384 152.493053,68.8856882 C150.844852,68.4635543 149.11807,68.7085516 147.82547,69.7089989 C147.460917,70.0338324 146.716888,70.6196305 146.716888,71.0362756 Z M165.425515,68.8856882 C163.961829,63.8994189 158.378137,59.9255724 152.679558,59.3382774 C146.252368,58.8522746 140.026106,61.90551 137.092268,66.9626339 C136.357192,68.2983932 135.900629,69.7089989 135.536075,71.1889623 C134.885548,71.0362756 134.15843,71.2882586 133.709327,71.0362756 L133.709327,58.1836465 L133.978888,57.9391481 L138.563414,57.9391481 C140.484658,57.690658 142.22636,56.9476824 143.232489,55.2840957 C144.146112,53.6329835 143.984475,51.5442691 142.682426,50.139651 C140.66221,47.3269222 136.627748,48.4850459 133.344276,48.2400486 C130.758082,48.4850459 127.830709,47.8308881 125.639904,48.9066808 C123.889747,49.8103267 122.705072,51.3102492 122.705072,53.1444858 L122.705072,71.0362756 C121.775534,71.5362498 120.506807,71.1889623 119.306216,71.2882586 C119.035163,68.2983932 120.296927,65.2281926 118.113085,62.9059573 C116.642933,61.3301904 114.621226,60.8391979 112.716395,61.3301904 C111.044321,61.90551 109.40905,63.2407703 109.023111,64.8958744 C108.852521,72.0252465 108.852521,79.2299639 108.938065,86.2770049 C109.023111,88.0129431 109.766641,89.4998922 111.236793,90.6031286 C112.716395,91.5821199 115.000203,91.5821199 116.463392,90.6709894 C120.296927,88.8487283 118.949122,84.8644033 119.306216,81.3860401 L119.212715,81.2303595 L122.705072,81.2303595 L122.705072,81.8855153 L122.875661,105.421225 C122.875661,107.067847 123.053213,108.649601 124.431356,109.718408 C125.71749,111.049178 127.746658,111.383492 129.565449,111.049178 C131.586161,110.633531 133.430317,108.980422 133.709327,106.994497 L133.709327,83.9617553 L133.79487,81.0547199 L135.536075,81.0547199 C135.992638,81.6300395 135.992638,82.5531455 136.357192,83.2951231 C138.107349,88.1895807 143.984475,92.0726136 149.56767,92.3265924 C153.592186,91.9927774 158.726776,93.7357013 161.491516,90.6709894 C162.584183,89.3442117 163.048704,87.3577874 162.507095,85.6991905 C161.762569,83.9617553 159.919906,82.8754841 158.000154,82.6200083 L148.730141,82.6200083 C148.009488,82.2193304 147.274909,81.5512012 146.91135,80.9748837 L154.158164,80.9748837 C157.721641,80.5632284 162.126129,82.0516744 164.325886,79.1506267 C165.982044,76.1742336 166.718115,72.1909066 165.425515,68.8856882 Z M181.523578,30.5598247 C190.513089,45.8010529 184.736925,65.5694923 175.012338,78.9465454 C157.681854,107.932572 128.55932,136.106765 97.2061932,155 L95.36353,154.674668 C58.9225642,132.501662 27.5480519,99.9155216 9.86196624,65.7680848 C1.91787449,49.8103267 6.59440956,30.0154416 20.5399635,17.8304426 C34.2915528,5.37200468 56.8879258,1.43009265 74.8276574,8.7251248 C82.9890889,11.5268762 89.865381,17.4207832 95.735544,24.0566677 L96.2478094,23.8436049 C108.852521,7.64633824 130.394523,1.89164564 151.170613,6.57703223 C163.681824,9.72856595 176.343233,19.3832566 181.523578,30.5598247 Z" id="Stroke-11" stroke="#FEFEFE" stroke-width="2.138"></path>
                <path d="M32.1782235,191.112986 L11,191.112986 L11,195.078418 L32.1782235,195.078418 L32.1782235,217.310791 L32.2019915,217.310791 C32.2019915,217.334934 32.1782235,217.388249 32.1782235,217.433516 C32.1782235,219.940329 34.4376632,222 37.1729568,222 C39.9344941,222 42.1993806,219.940329 42.1993806,217.433516 L42.1993806,216.837494 L42.1993806,195.078418 L66,195.078418 L66,191.112986 L42.1993806,191.112986 L42.1993806,189 L32.1782235,189 L32.1782235,191.112986 Z" id="Fill-13" fill="#E50113"></path>
                <path d="M32.1782235,191.112986 L11,191.112986 L11,195.078418 L32.1782235,195.078418 L32.1782235,217.310791 L32.2019915,217.310791 C32.2019915,217.334934 32.1782235,217.388249 32.1782235,217.433516 C32.1782235,219.940329 34.4376632,222 37.1729568,222 C39.9344941,222 42.1993806,219.940329 42.1993806,217.433516 L42.1993806,216.837494 L42.1993806,195.078418 L66,195.078418 L66,191.112986 L42.1993806,191.112986 L42.1993806,189 L32.1782235,189 L32.1782235,191.112986 Z" id="Stroke-15" stroke="#FEFEFE" stroke-width="2.138"></path>
                <path d="M17.5302411,182.36677 L11,182.36677 L11,187.158083 L17.6921602,187.158083 C18.200695,188.78474 19.9124818,190 21.8777932,190 C23.8827178,190 25.5949997,188.78474 26.1025442,187.158083 L49.6635036,187.158083 C50.1789708,188.78474 51.8679799,190 53.8570593,190 C55.8456434,190 57.5732755,188.78474 58.0828007,187.158083 L66,187.158083 L66,182.36677 L58.2432342,182.36677 L58.2432342,180.032374 L49.4689036,180.032374 L49.4689036,182.36677 L26.2654537,182.36677 L26.2654537,180 L17.5302411,180 L17.5302411,182.36677 Z" id="Fill-17" fill="#E50113"></path>
                <path d="M17.5302411,182.36677 L11,182.36677 L11,187.158083 L17.6921602,187.158083 C18.200695,188.78474 19.9124818,190 21.8777932,190 C23.8827178,190 25.5949997,188.78474 26.1025442,187.158083 L49.6635036,187.158083 C50.1789708,188.78474 51.8679799,190 53.8570593,190 C55.8456434,190 57.5732755,188.78474 58.0828007,187.158083 L66,187.158083 L66,182.36677 L58.2432342,182.36677 L58.2432342,180.032374 L49.4689036,180.032374 L49.4689036,182.36677 L26.2654537,182.36677 L26.2654537,180 L17.5302411,180 L17.5302411,182.36677 Z" id="Stroke-19" stroke="#FEFEFE" stroke-width="2.138"></path>
                <path d="M142.828059,201.974437 L167.149431,201.974437 C167.391034,202 167.640141,202 167.903753,202 C169.859087,202 171.526798,200.825531 171.892454,199.2004 L172,199.2004 L172,198.50263 L172,193 L138,193 L138,199.2004 L138.107046,199.2004 C138.505215,200.791921 140.170926,202 142.119757,202 C142.336349,202 142.586956,202 142.828059,201.974437 M164.019096,199.085367 L146.082947,199.085367 C145.700784,198.828792 145.514205,198.486535 145.514205,198.091258 L145.514205,197.141174 C145.514205,196.444351 146.167983,195.890017 147.002339,195.890017 L163.186241,195.890017 C163.964573,195.890017 164.595842,196.444351 164.595842,197.141174 L164.595842,198.091258 C164.595842,198.486535 164.376749,198.828792 164.019096,199.085367" id="Fill-21" fill="#E50113"></path>
                <path d="M142.828059,201.974437 L167.149431,201.974437 C167.391034,202 167.640141,202 167.903753,202 C169.859087,202 171.526798,200.825531 171.892454,199.2004 L172,199.2004 L172,198.50263 L172,193 L138,193 L138,199.2004 L138.107046,199.2004 C138.505215,200.791921 140.170926,202 142.119757,202 C142.336349,202 142.586956,202 142.828059,201.974437 Z M164.019096,199.085367 L146.082947,199.085367 C145.700784,198.828792 145.514205,198.486535 145.514205,198.091258 L145.514205,197.141174 C145.514205,196.444351 146.167983,195.890017 147.002339,195.890017 L163.186241,195.890017 C163.964573,195.890017 164.595842,196.444351 164.595842,197.141174 L164.595842,198.091258 C164.595842,198.486535 164.376749,198.828792 164.019096,199.085367 Z" id="Stroke-23" stroke="#FEFEFE" stroke-width="2.138"></path>
                <polygon id="Fill-25" fill="#E50113" points="11 207 17.4360151 197 26.1302638 197 32 207 23.6193675 207 21.5076192 203.642216 19.4715714 207"></polygon>
                <polygon id="Stroke-27" stroke="#FEFEFE" stroke-width="2.138" points="11 207 17.4360151 197 26.1302638 197 32 207 23.6193675 207 21.5076192 203.642216 19.4715714 207"></polygon>
                <polygon id="Fill-29" fill="#E50113" points="42 207 48.5230308 197 57.3538884 197 66 207 56.6463613 207 53.4207964 203.642216 50.6071651 207"></polygon>
                <polygon id="Stroke-31" stroke="#FEFEFE" stroke-width="2.138" points="42 207 48.5230308 197 57.3538884 197 66 207 56.6463613 207 53.4207964 203.642216 50.6071651 207"></polygon>
                <polygon id="Fill-33" fill="#E50113" points="32 209 21.4504092 221 11 221 21.4504092 209"></polygon>
                <polygon id="Stroke-35" stroke="#FEFEFE" stroke-width="2.138" points="32 209 21.4504092 221 11 221 21.4504092 209"></polygon>
                <polygon id="Fill-37" fill="#E50113" points="42 209 52.6898015 221 66 221 54.0044938 209"></polygon>
                <polygon id="Stroke-39" stroke="#FEFEFE" stroke-width="2.138" points="42 209 52.6898015 221 66 221 54.0044938 209"></polygon>
                <path d="M101.269381,198.036048 L105.336662,203.21417 L101.269381,208.046256 L106.533627,208.046256 L107.864419,206.36771 L109.123304,208.046256 L114.462953,208.046256 L110.429628,203.21417 L114.462953,198.036048 L109.612177,198.036048 L107.864419,200.172334 L106.044754,198.036048 L101.269381,198.036048 Z M101.269381,210.520137 L105.336662,215.64613 L101.269381,220.491124 L106.533627,220.491124 L107.864419,218.865204 L109.123304,220.491124 L114.462953,220.491124 L110.429628,215.64613 L114.462953,210.520137 L109.612177,210.520137 L107.864419,212.618691 L106.044754,210.520137 L101.269381,210.520137 Z M101.269381,216.276143 L101.269381,216.835658 C101.269381,219.13677 99.1401127,221 96.6662867,221 C94.0935875,221 92.0876611,219.13677 92.0876611,216.835658 L92.0876611,216.663882 L92.0037687,216.663882 L92.0037687,184.908045 L86.0404198,184.908045 L82.0585287,189.076855 L73.2503298,189.076855 L77.0759215,184.908045 L70,184.908045 L70,180 L123,180 L123,184.908045 L116.206217,184.908045 L120.03081,189.076855 L111.222611,189.076855 L107.264689,184.908045 L101.269381,184.908045 L101.269381,216.276143 Z" id="Fill-41" fill="#E50113"></path>
                <path d="M101.269381,198.036048 L105.336662,203.21417 L101.269381,208.046256 L106.533627,208.046256 L107.864419,206.36771 L109.123304,208.046256 L114.462953,208.046256 L110.429628,203.21417 L114.462953,198.036048 L109.612177,198.036048 L107.864419,200.172334 L106.044754,198.036048 L101.269381,198.036048 Z M101.269381,210.520137 L105.336662,215.64613 L101.269381,220.491124 L106.533627,220.491124 L107.864419,218.865204 L109.123304,220.491124 L114.462953,220.491124 L110.429628,215.64613 L114.462953,210.520137 L109.612177,210.520137 L107.864419,212.618691 L106.044754,210.520137 L101.269381,210.520137 Z M101.269381,216.276143 L101.269381,216.835658 C101.269381,219.13677 99.1401127,221 96.6662867,221 C94.0935875,221 92.0876611,219.13677 92.0876611,216.835658 L92.0876611,216.663882 L92.0037687,216.663882 L92.0037687,184.908045 L86.0404198,184.908045 L82.0585287,189.076855 L73.2503298,189.076855 L77.0759215,184.908045 L70,184.908045 L70,180 L123,180 L123,184.908045 L116.206217,184.908045 L120.03081,189.076855 L111.222611,189.076855 L107.264689,184.908045 L101.269381,184.908045 L101.269381,216.276143 Z" id="Stroke-43" stroke="#FEFEFE" stroke-width="2.138"></path>
                <path d="M78.8331669,198.798944 L82.9224203,203.990673 L78.8331669,208.941696 L84.1193846,208.941696 L85.4721489,207.277815 L86.723044,208.889041 L92.0342297,208.889041 L87.991916,203.990673 L92.0342297,198.819504 L87.2368848,198.819504 L85.4721489,200.952761 L83.5980534,198.798944 L78.8331669,198.798944 Z M78.8331669,211.387871 L82.9224203,216.583612 L78.8331669,221.529119 L84.1193846,221.529119 L85.4721489,219.870253 L86.723044,221.487497 L92.0342297,221.487497 L87.991916,216.583612 L92.0342297,211.418962 L87.2368848,211.418962 L85.4721489,213.574285 L83.5980534,211.387871 L78.8331669,211.387871 Z M78.8331669,217.446643 C78.855638,217.593574 78.855638,217.782629 78.855638,217.978704 C78.855638,220.183672 76.8891611,221.973422 74.447294,221.973422 C72.0293962,221.973422 70.0549295,220.183672 70.0549295,217.978704 L70.0549295,217.736494 L70,217.736494 L70,197.054326 L70,192 L123,192 L123,197.026244 L123,217.423576 L123,218.00779 C123,220.221784 121.025533,222 118.592655,222 C116.174258,222 114.199291,220.221784 114.199291,218.00779 C114.199291,217.907997 114.222761,217.831272 114.222761,217.767083 L114.199291,217.767083 L114.199291,197.054326 L78.8331669,197.054326 L78.8331669,217.446643 Z" id="Fill-45" fill="#E50113"></path>
                <path d="M78.8331669,198.798944 L82.9224203,203.990673 L78.8331669,208.941696 L84.1193846,208.941696 L85.4721489,207.277815 L86.723044,208.889041 L92.0342297,208.889041 L87.991916,203.990673 L92.0342297,198.819504 L87.2368848,198.819504 L85.4721489,200.952761 L83.5980534,198.798944 L78.8331669,198.798944 Z M78.8331669,211.387871 L82.9224203,216.583612 L78.8331669,221.529119 L84.1193846,221.529119 L85.4721489,219.870253 L86.723044,221.487497 L92.0342297,221.487497 L87.991916,216.583612 L92.0342297,211.418962 L87.2368848,211.418962 L85.4721489,213.574285 L83.5980534,211.387871 L78.8331669,211.387871 Z M78.8331669,217.446643 C78.855638,217.593574 78.855638,217.782629 78.855638,217.978704 C78.855638,220.183672 76.8891611,221.973422 74.447294,221.973422 C72.0293962,221.973422 70.0549295,220.183672 70.0549295,217.978704 L70.0549295,217.736494 L70,217.736494 L70,197.054326 L70,192 L123,192 L123,197.026244 L123,217.423576 L123,218.00779 C123,220.221784 121.025533,222 118.592655,222 C116.174258,222 114.199291,220.221784 114.199291,218.00779 C114.199291,217.907997 114.222761,217.831272 114.222761,217.767083 L114.199291,217.767083 L114.199291,197.054326 L78.8331669,197.054326 L78.8331669,217.446643 Z" id="Stroke-47" stroke="#FEFEFE" stroke-width="2.138"></path>
                <path d="M127,181.628194 L135.267109,181.628194 L135.267109,181.651908 L150.448118,181.651908 L150.448118,180 L159.360111,180 L159.360111,181.651908 L173.756868,181.651908 L173.756868,181.628194 L182,181.628194 L182,195.974167 L181.978021,195.974167 L181.978021,196.250158 C181.978021,198.272913 180.10381,200 177.832478,200 C175.601108,200 173.70292,198.272913 173.70292,196.250158 C173.70292,196.044804 173.70292,195.903529 173.756868,195.707763 L173.756868,186.508741 L135.267109,186.508741 L135.267109,196.002926 L135.244131,196.002926 C135.244131,196.073059 135.267109,196.147733 135.267109,196.228966 C135.267109,198.294609 133.361428,200 131.145543,200 C128.874211,200 127,198.294609 127,196.228966 L127,195.729963 L127,186.508741 L127,181.651908 L127,181.628194 Z" id="Fill-49" fill="#E50113"></path>
                <path d="M127,181.628194 L135.267109,181.628194 L135.267109,181.651908 L150.448118,181.651908 L150.448118,180 L159.360111,180 L159.360111,181.651908 L173.756868,181.651908 L173.756868,181.628194 L182,181.628194 L182,195.974167 L181.978021,195.974167 L181.978021,196.250158 C181.978021,198.272913 180.10381,200 177.832478,200 C175.601108,200 173.70292,198.272913 173.70292,196.250158 C173.70292,196.044804 173.70292,195.903529 173.756868,195.707763 L173.756868,186.508741 L135.267109,186.508741 L135.267109,196.002926 L135.244131,196.002926 C135.244131,196.073059 135.267109,196.147733 135.267109,196.228966 C135.267109,198.294609 133.361428,200 131.145543,200 C128.874211,200 127,198.294609 127,196.228966 L127,195.729963 L127,186.508741 L127,181.651908 L127,181.628194 Z" id="Stroke-51" stroke="#FEFEFE" stroke-width="2.138"></path>
                <mask id="mask-2" fill="white">
                    <use xlink:href="#path-1"></use>
                </mask>
                <g id="Clip-54"></g>
                <polygon id="Fill-53" fill="#E50113" mask="url(#mask-2)" points="138 191 172 191 172 188 138 188"></polygon>
                <polygon id="Stroke-55" stroke="#FEFEFE" stroke-width="2.138" mask="url(#mask-2)" points="138 191 172 191 172 188 138 188"></polygon>
                <path d="M136.273857,208.717818 C135.426827,208.717818 134.726215,209.225273 134.726215,209.865343 C134.726215,210.508837 135.426827,211.039781 136.273857,211.039781 L148.068816,211.039781 C148.996302,211.039781 149.672427,210.508837 149.672427,209.865343 C149.672427,209.225273 148.996302,208.717818 148.068816,208.717818 L136.273857,208.717818 Z M136.273857,214.447121 C135.426827,214.447121 134.726215,214.927173 134.726215,215.584859 C134.726215,216.216609 135.426827,216.752936 136.273857,216.752936 L148.068816,216.752936 C148.996302,216.752936 149.672427,216.216609 149.672427,215.584859 C149.672427,214.927173 148.996302,214.447121 148.068816,214.447121 L136.273857,214.447121 Z M160.548396,208.717818 C159.708861,208.717818 158.993258,209.225273 158.993258,209.865343 C158.993258,210.508837 159.708861,211.039781 160.548396,211.039781 L172.350851,211.039781 C173.216371,211.039781 173.892996,210.508837 173.892996,209.865343 C173.892996,209.225273 173.216371,208.717818 172.350851,208.717818 L160.548396,208.717818 Z M160.548396,214.447121 C159.708861,214.447121 158.993258,214.927173 158.993258,215.584859 C158.993258,216.216609 159.708861,216.752936 160.548396,216.752936 L172.350851,216.752936 C173.216371,216.752936 173.892996,216.216609 173.892996,215.584859 C173.892996,214.927173 173.216371,214.447121 172.350851,214.447121 L160.548396,214.447121 Z M127.032482,204 L182,204 L182,212.038543 L182,216.752936 C182,219.116494 179.843696,221 177.199162,221 L131.793342,221 C129.154805,221 127,219.116494 127,216.752936 L127,208.258319 C127,208.06943 127,207.877605 127.032482,207.683333 L127.032482,204 Z" id="Fill-56" fill="#E50113" mask="url(#mask-2)"></path>
                <path d="M136.273857,208.717818 C135.426827,208.717818 134.726215,209.225273 134.726215,209.865343 C134.726215,210.508837 135.426827,211.039781 136.273857,211.039781 L148.068816,211.039781 C148.996302,211.039781 149.672427,210.508837 149.672427,209.865343 C149.672427,209.225273 148.996302,208.717818 148.068816,208.717818 L136.273857,208.717818 Z M136.273857,214.447121 C135.426827,214.447121 134.726215,214.927173 134.726215,215.584859 C134.726215,216.216609 135.426827,216.752936 136.273857,216.752936 L148.068816,216.752936 C148.996302,216.752936 149.672427,216.216609 149.672427,215.584859 C149.672427,214.927173 148.996302,214.447121 148.068816,214.447121 L136.273857,214.447121 Z M160.548396,208.717818 C159.708861,208.717818 158.993258,209.225273 158.993258,209.865343 C158.993258,210.508837 159.708861,211.039781 160.548396,211.039781 L172.350851,211.039781 C173.216371,211.039781 173.892996,210.508837 173.892996,209.865343 C173.892996,209.225273 173.216371,208.717818 172.350851,208.717818 L160.548396,208.717818 Z M160.548396,214.447121 C159.708861,214.447121 158.993258,214.927173 158.993258,215.584859 C158.993258,216.216609 159.708861,216.752936 160.548396,216.752936 L172.350851,216.752936 C173.216371,216.752936 173.892996,216.216609 173.892996,215.584859 C173.892996,214.927173 173.216371,214.447121 172.350851,214.447121 L160.548396,214.447121 Z M127.032482,204 L182,204 L182,212.038543 L182,216.752936 C182,219.116494 179.843696,221 177.199162,221 L131.793342,221 C129.154805,221 127,219.116494 127,216.752936 L127,208.258319 C127,208.06943 127,207.877605 127.032482,207.683333 L127.032482,204 Z" id="Stroke-57" stroke="#FEFEFE" stroke-width="2.138" mask="url(#mask-2)"></path>
                <path d="M186.539126,26.7637247 C195.824828,40.6860305 194.855365,61.7655852 185.2116,75.2428083 C166.996265,108.630995 134.315282,141.520209 97.9868443,162 L96.9395847,162 C58.4587788,139.903042 24.9404872,105.153661 5.63001763,69.8110034 C-1.49733198,55.5548855 -0.534351843,36.0086707 9.48193818,23.2848946 C22.3781921,5.90621245 43.9786694,-1.4885468 66.6418658,1.87751567 C78.0016403,3.86741445 87.8857761,8.63159538 96.6598168,16.5687368 C99.0979368,15.1307006 101.488681,12.6508117 104.074415,10.8954296 C120.798153,-0.812440272 148.79589,-2.4780075 166.996265,7.76088992 C175.187331,11.9742062 182.183025,19.3919181 186.539126,26.7637247" id="Fill-58" fill="#E50113" mask="url(#mask-2)"></path>
                <path d="M184.77574,27.1452687 C195.741672,45.5338102 187.813646,68.7134035 176.009962,84.3627822 C157.93036,113.282898 129.294991,140.813072 97.1697367,159 L95.8456613,159 C58.0323587,137.611589 23.344073,102.431026 5.44167813,67.182432 C-3.50230162,50.067631 1.58891749,29.0849296 15.9815171,15.8087304 C29.9928229,2.17002416 51.4134752,-1.17993806 70.9206892,3.3548759 C79.9104641,5.63370433 88.3730976,10.2857123 94.8829689,17.2100932 C95.2478363,17.5428051 95.8456613,17.3367223 96.2090354,17.3367223 C110.887854,1.41720134 136.044291,-2.58477694 156.875082,4.0982636 C168.80968,7.89614546 179.009541,17.0869401 184.77574,27.1452687" id="Fill-59" fill="#FEFEFE" mask="url(#mask-2)"></path>
                <path d="M57.1341115,56.5255485 C55.7485084,54.8609639 53.5656611,53.9598129 51.2654405,54.5341345 C49.2367702,54.8609639 47.5870768,56.6123704 47.2394327,58.3493066 L47.1310115,69.03588 L46.9594274,69.2998384 L42.096388,69.3801736 L41.9964216,63.4867656 C41.7179084,60.5168592 42.7319949,56.5255485 38.8850313,55.1254213 C37.4128901,54.4572922 35.4070977,54.4572922 34.013537,55.1254213 C30.2580849,56.8703411 31.4507182,61.00386 31.2652085,64.2287432 L31.2652085,84.618907 C31.3651748,86.9336576 31.0861643,89.4998922 33.657438,91.0028086 C35.120627,91.9024627 37.3114317,91.9927774 38.8850313,91.3251472 C40.5416875,90.6709894 41.7179084,89.1875331 42.096388,87.6826209 L42.096388,78.9081243 L46.9594274,78.8257932 L47.1310115,78.9081243 L47.2394327,86.8568153 C47.4025618,88.1895807 47.7666184,89.5912049 49.1591844,90.4963477 C50.5373274,91.5821199 52.5431198,91.9024627 54.3778255,91.3251472 C56.2135259,90.6709894 57.8463096,89.0158853 57.9557255,87.2794481 L57.9557255,62.0033093 C57.8463096,60.1800503 58.3272422,58.1836465 57.1341115,56.5255485 M78.3045963,39.8033589 C77.3069223,38.2236002 75.4707245,36.9776566 73.6365161,36.8095017 C70.9801965,36.3229999 68.5874696,37.4646574 66.953194,39.2924073 C66.1241198,38.4666016 65.1110281,37.8029633 64.1894478,37.3044861 C61.8041811,36.4791794 58.7688846,36.5615105 56.8486355,38.1312896 C54.9214236,39.6247254 54.0073035,42.1999416 54.7413847,44.5241728 C56.5860373,50.3202804 61.2695352,55.9457382 67.139201,59.5134181 C70.067071,57.6153126 72.908403,54.6149686 74.9052432,51.8830739 C76.9254586,48.2400486 80.5192736,44.2716908 78.3045963,39.8033589 M71.9863254,64.4772334 C71.53026,63.5591172 70.7941894,62.5836187 69.7035118,62.1510063 C68.3079617,61.3301904 66.1241198,61.4958505 64.6465078,62.0033093 C62.9122658,62.8301129 61.7111776,64.3195569 61.6181741,66.1537934 L61.6181741,85.2785535 C61.4331618,87.1786549 61.8041811,88.8487283 63.174864,90.0038582 C64.5535043,91.3251472 66.5891374,91.5821199 68.4079281,91.3251472 C70.4157099,90.9224734 72.3503819,89.1875331 72.3503819,87.1786549 L72.3503819,71.9479052 C72.0793289,69.2998384 72.823357,67.1532428 71.9863254,64.4772334 M84.6303274,78.242989 L78.6686529,78.15966 C77.933577,78.242989 76.9254586,77.9925029 76.3848446,78.3248211 C73.2724596,79.5612841 74.9052432,82.9543223 74.5575991,85.204705 C76.1127969,88.3367787 80.0547534,86.6866644 83.0895526,87.0154897 C84.4686903,87.1786549 85.4603963,86.6118179 86.203927,85.6991905 C87.1165551,83.9617553 86.5739517,81.9668484 86.7539906,80.1530699 C86.4739854,79.2299639 85.6623183,78.4874873 84.6303274,78.242989 M98.2058567,56.2805512 C96.8421367,54.4572922 93.8073375,53.6329835 91.6070832,54.8609639 C89.865381,55.7930515 88.3947318,57.2814975 88.588199,59.1815989 L88.6821972,84.2905806 L88.9522555,87.8577615 C89.1387599,89.3442117 90.9809258,91.0028086 92.807674,91.3251472 C96.0150519,91.6689418 99.6760085,91.5821199 103.067901,91.2493028 C104.547005,90.9224734 106.009697,89.9275148 106.652764,88.6795753 C107.466918,86.8568153 107.19487,84.618907 105.723724,83.0436391 C104.168526,81.3860401 101.61267,81.6300395 99.3979926,81.6300395 C99.1264423,74.0121697 99.311952,66.5634529 99.1264423,59.0034644 C99.1264423,58.0134956 98.7623857,57.2036572 98.2058567,56.2805512 M120.042286,50.5652777 C119.212715,49.1496822 117.555064,47.918209 116.099335,47.4950771 C113.715063,46.8389234 111.044321,47.3269222 109.302121,49.1496822 C107.560916,50.894602 107.017318,53.6329835 108.125403,55.8698938 C109.023111,57.9391481 111.500386,59.5972461 113.88615,59.5972461 C116.278877,59.6685997 118.299092,58.3493066 119.669775,56.5255485 C121.047918,54.9552704 121.047918,52.3017149 120.042286,50.5652777 M146.716888,71.0362756 L155.165785,70.9474579 C154.785316,69.9639758 153.592186,69.2998384 152.493053,68.8856882 C150.844852,68.4635543 149.11807,68.7085516 147.82547,69.7089989 C147.460917,70.0338324 146.716888,70.6196305 146.716888,71.0362756 M165.425515,68.8856882 C163.961829,63.8994189 158.378137,59.9255724 152.679558,59.3382774 C146.252368,58.8522746 140.026106,61.90551 137.092268,66.9626339 C136.357192,68.2983932 135.900629,69.7089989 135.536075,71.1889623 C134.885548,71.0362756 134.15843,71.2882586 133.709327,71.0362756 L133.709327,58.1836465 L133.978888,57.9391481 L138.563414,57.9391481 C140.484658,57.690658 142.22636,56.9476824 143.232489,55.2840957 C144.146112,53.6329835 143.984475,51.5442691 142.682426,50.139651 C140.66221,47.3269222 136.627748,48.4850459 133.344276,48.2400486 C130.758082,48.4850459 127.830709,47.8308881 125.639904,48.9066808 C123.889747,49.8103267 122.705072,51.3102492 122.705072,53.1444858 L122.705072,71.0362756 C121.775534,71.5362498 120.506807,71.1889623 119.306216,71.2882586 C119.035163,68.2983932 120.296927,65.2281926 118.113085,62.9059573 C116.642933,61.3301904 114.621226,60.8391979 112.716395,61.3301904 C111.044321,61.90551 109.40905,63.2407703 109.023111,64.8958744 C108.852521,72.0252465 108.852521,79.2299639 108.938065,86.2770049 C109.023111,88.0129431 109.766641,89.4998922 111.236793,90.6031286 C112.716395,91.5821199 115.000203,91.5821199 116.463392,90.6709894 C120.296927,88.8487283 118.949122,84.8644033 119.306216,81.3860401 L119.212715,81.2303595 L122.705072,81.2303595 L122.705072,81.8855153 L122.875661,105.421225 C122.875661,107.067847 123.053213,108.649601 124.431356,109.718408 C125.71749,111.049178 127.746658,111.383492 129.565449,111.049178 C131.586161,110.633531 133.430317,108.980422 133.709327,106.994497 L133.709327,83.9617553 L133.79487,81.0547199 L135.536075,81.0547199 C135.992638,81.6300395 135.992638,82.5531455 136.357192,83.2951231 C138.107349,88.1895807 143.984475,92.0726136 149.56767,92.3265924 C153.592186,91.9927774 158.726776,93.7357013 161.491516,90.6709894 C162.584183,89.3442117 163.048704,87.3577874 162.507095,85.6991905 C161.762569,83.9617553 159.919906,82.8754841 158.000154,82.6200083 L148.730141,82.6200083 C148.009488,82.2193304 147.274909,81.5512012 146.91135,80.9748837 L154.158164,80.9748837 C157.721641,80.5632284 162.126129,82.0516744 164.325886,79.1506267 C165.982044,76.1742336 166.718115,72.1909066 165.425515,68.8856882 M181.523578,30.5598247 C190.513089,45.8010529 184.736925,65.5694923 175.012338,78.9465454 C157.681854,107.932572 128.55932,136.106765 97.2061932,155 L95.36353,154.674668 C58.9225642,132.501662 27.5480519,99.9155216 9.86196624,65.7680848 C1.91787449,49.8103267 6.59440956,30.0154416 20.5399635,17.8304426 C34.2915528,5.37200468 56.8879258,1.43009265 74.8276574,8.7251248 C82.9890889,11.5268762 89.865381,17.4207832 95.735544,24.0566677 L96.2478094,23.8436049 C108.852521,7.64633824 130.394523,1.89164564 151.170613,6.57703223 C163.681824,9.72856595 176.343233,19.3832566 181.523578,30.5598247" id="Fill-60" fill="#E50113" mask="url(#mask-2)"></path>
                <path d="M32.1782235,191.112986 L11,191.112986 L11,195.078418 L32.1782235,195.078418 L32.1782235,217.310791 L32.2019915,217.310791 C32.2019915,217.334934 32.1782235,217.388249 32.1782235,217.433516 C32.1782235,219.940329 34.4376632,222 37.1729568,222 C39.9344941,222 42.1993806,219.940329 42.1993806,217.433516 L42.1993806,216.837494 L42.1993806,195.078418 L66,195.078418 L66,191.112986 L42.1993806,191.112986 L42.1993806,189 L32.1782235,189 L32.1782235,191.112986 Z" id="Fill-61" fill="#E50113" mask="url(#mask-2)"></path>
                <path d="M17.5302411,182.36677 L11,182.36677 L11,187.158083 L17.6921602,187.158083 C18.200695,188.78474 19.9124818,190 21.8777932,190 C23.8827178,190 25.5949997,188.78474 26.1025442,187.158083 L49.6635036,187.158083 C50.1789708,188.78474 51.8679799,190 53.8570593,190 C55.8456434,190 57.5732755,188.78474 58.0828007,187.158083 L66,187.158083 L66,182.36677 L58.2432342,182.36677 L58.2432342,180.032374 L49.4689036,180.032374 L49.4689036,182.36677 L26.2654537,182.36677 L26.2654537,180 L17.5302411,180 L17.5302411,182.36677 Z" id="Fill-62" fill="#E50113" mask="url(#mask-2)"></path>
                <path d="M142.828059,201.974437 L167.149431,201.974437 C167.391034,202 167.640141,202 167.903753,202 C169.859087,202 171.526798,200.825531 171.892454,199.2004 L172,199.2004 L172,198.50263 L172,193 L138,193 L138,199.2004 L138.107046,199.2004 C138.505215,200.791921 140.170926,202 142.119757,202 C142.336349,202 142.586956,202 142.828059,201.974437 M164.019096,199.085367 L146.082947,199.085367 C145.700784,198.828792 145.514205,198.486535 145.514205,198.091258 L145.514205,197.141174 C145.514205,196.444351 146.167983,195.890017 147.002339,195.890017 L163.186241,195.890017 C163.964573,195.890017 164.595842,196.444351 164.595842,197.141174 L164.595842,198.091258 C164.595842,198.486535 164.376749,198.828792 164.019096,199.085367" id="Fill-63" fill="#E50113" mask="url(#mask-2)"></path>
                <polygon id="Fill-64" fill="#E50113" mask="url(#mask-2)" points="11 207 17.4360151 197 26.1302638 197 32 207 23.6193675 207 21.5076192 203.642216 19.4715714 207"></polygon>
                <polygon id="Fill-65" fill="#E50113" mask="url(#mask-2)" points="42 207 48.5230308 197 57.3538884 197 66 207 56.6463613 207 53.4207964 203.642216 50.6071651 207"></polygon>
                <polygon id="Fill-66" fill="#E50113" mask="url(#mask-2)" points="32 209 21.4504092 221 11 221 21.4504092 209"></polygon>
                <polygon id="Fill-67" fill="#E50113" mask="url(#mask-2)" points="42 209 52.6898015 221 66 221 54.0044938 209"></polygon>
                <path d="M101.269381,198.036048 L105.336662,203.21417 L101.269381,208.046256 L106.533627,208.046256 L107.864419,206.36771 L109.123304,208.046256 L114.462953,208.046256 L110.429628,203.21417 L114.462953,198.036048 L109.612177,198.036048 L107.864419,200.172334 L106.044754,198.036048 L101.269381,198.036048 Z M101.269381,210.520137 L105.336662,215.64613 L101.269381,220.491124 L106.533627,220.491124 L107.864419,218.865204 L109.123304,220.491124 L114.462953,220.491124 L110.429628,215.64613 L114.462953,210.520137 L109.612177,210.520137 L107.864419,212.618691 L106.044754,210.520137 L101.269381,210.520137 Z M101.269381,216.276143 L101.269381,216.835658 C101.269381,219.13677 99.1401127,221 96.6662867,221 C94.0935875,221 92.0876611,219.13677 92.0876611,216.835658 L92.0876611,216.663882 L92.0037687,216.663882 L92.0037687,184.908045 L86.0404198,184.908045 L82.0585287,189.076855 L73.2503298,189.076855 L77.0759215,184.908045 L70,184.908045 L70,180 L123,180 L123,184.908045 L116.206217,184.908045 L120.03081,189.076855 L111.222611,189.076855 L107.264689,184.908045 L101.269381,184.908045 L101.269381,216.276143 Z" id="Fill-68" fill="#E50113" mask="url(#mask-2)"></path>
                <path d="M78.8331669,198.798944 L82.9224203,203.990673 L78.8331669,208.941696 L84.1193846,208.941696 L85.4721489,207.277815 L86.723044,208.889041 L92.0342297,208.889041 L87.991916,203.990673 L92.0342297,198.819504 L87.2368848,198.819504 L85.4721489,200.952761 L83.5980534,198.798944 L78.8331669,198.798944 Z M78.8331669,211.387871 L82.9224203,216.583612 L78.8331669,221.529119 L84.1193846,221.529119 L85.4721489,219.870253 L86.723044,221.487497 L92.0342297,221.487497 L87.991916,216.583612 L92.0342297,211.418962 L87.2368848,211.418962 L85.4721489,213.574285 L83.5980534,211.387871 L78.8331669,211.387871 Z M78.8331669,217.446643 C78.855638,217.593574 78.855638,217.782629 78.855638,217.978704 C78.855638,220.183672 76.8891611,221.973422 74.447294,221.973422 C72.0293962,221.973422 70.0549295,220.183672 70.0549295,217.978704 L70.0549295,217.736494 L70,217.736494 L70,197.054326 L70,192 L123,192 L123,197.026244 L123,217.423576 L123,218.00779 C123,220.221784 121.025533,222 118.592655,222 C116.174258,222 114.199291,220.221784 114.199291,218.00779 C114.199291,217.907997 114.222761,217.831272 114.222761,217.767083 L114.199291,217.767083 L114.199291,197.054326 L78.8331669,197.054326 L78.8331669,217.446643 Z" id="Fill-69" fill="#E50113" mask="url(#mask-2)"></path>
                <path d="M127,181.628194 L135.267109,181.628194 L135.267109,181.651908 L150.448118,181.651908 L150.448118,180 L159.360111,180 L159.360111,181.651908 L173.756868,181.651908 L173.756868,181.628194 L182,181.628194 L182,195.974167 L181.978021,195.974167 L181.978021,196.250158 C181.978021,198.272913 180.10381,200 177.832478,200 C175.601108,200 173.70292,198.272913 173.70292,196.250158 C173.70292,196.044804 173.70292,195.903529 173.756868,195.707763 L173.756868,186.508741 L135.267109,186.508741 L135.267109,196.002926 L135.244131,196.002926 C135.244131,196.073059 135.267109,196.147733 135.267109,196.228966 C135.267109,198.294609 133.361428,200 131.145543,200 C128.874211,200 127,198.294609 127,196.228966 L127,195.729963 L127,186.508741 L127,181.651908 L127,181.628194 Z" id="Fill-70" fill="#E50113" mask="url(#mask-2)"></path>
                <polygon id="Fill-71" fill="#E50113" mask="url(#mask-2)" points="138 191 172 191 172 188 138 188"></polygon>
                <path d="M136.273857,208.717818 C135.426827,208.717818 134.726215,209.225273 134.726215,209.865343 C134.726215,210.508837 135.426827,211.039781 136.273857,211.039781 L148.068816,211.039781 C148.996302,211.039781 149.672427,210.508837 149.672427,209.865343 C149.672427,209.225273 148.996302,208.717818 148.068816,208.717818 L136.273857,208.717818 Z M136.273857,214.447121 C135.426827,214.447121 134.726215,214.927173 134.726215,215.584859 C134.726215,216.216609 135.426827,216.752936 136.273857,216.752936 L148.068816,216.752936 C148.996302,216.752936 149.672427,216.216609 149.672427,215.584859 C149.672427,214.927173 148.996302,214.447121 148.068816,214.447121 L136.273857,214.447121 Z M160.548396,208.717818 C159.708861,208.717818 158.993258,209.225273 158.993258,209.865343 C158.993258,210.508837 159.708861,211.039781 160.548396,211.039781 L172.350851,211.039781 C173.216371,211.039781 173.892996,210.508837 173.892996,209.865343 C173.892996,209.225273 173.216371,208.717818 172.350851,208.717818 L160.548396,208.717818 Z M160.548396,214.447121 C159.708861,214.447121 158.993258,214.927173 158.993258,215.584859 C158.993258,216.216609 159.708861,216.752936 160.548396,216.752936 L172.350851,216.752936 C173.216371,216.752936 173.892996,216.216609 173.892996,215.584859 C173.892996,214.927173 173.216371,214.447121 172.350851,214.447121 L160.548396,214.447121 Z M127.032482,204 L182,204 L182,212.038543 L182,216.752936 C182,219.116494 179.843696,221 177.199162,221 L131.793342,221 C129.154805,221 127,219.116494 127,216.752936 L127,208.258319 C127,208.06943 127,207.877605 127.032482,207.683333 L127.032482,204 Z" id="Fill-72" fill="#E50113" mask="url(#mask-2)"></path>
            </g>
        </g>
    </g>
</svg>