<?xml version="1.0" encoding="UTF-8"?>
<svg width="250px" height="150px" viewBox="0 0 250 150" version="1.1" xmlns="http://www.w3.org/2000/svg" xmlns:xlink="http://www.w3.org/1999/xlink">
    <!-- Generator: Sketch 49.3 (51167) - http://www.bohemiancoding.com/sketch -->
    <title>spbook</title>
    <desc>Created with Sketch.</desc>
    <defs>
        <rect id="path-1" x="0" y="0" width="250" height="150"></rect>
        <polygon id="path-3" points="0 68 225 68 225 0 0 0"></polygon>
        <polygon id="path-5" points="0 68 225 68 225 0 0 0"></polygon>
        <polygon id="path-7" points="0 68 225 68 225 0 0 0"></polygon>
        <polygon id="path-9" points="0 68 225 68 225 0 0 0"></polygon>
        <polygon id="path-11" points="0 68 225 68 225 0 0 0"></polygon>
        <polygon id="path-13" points="0 68 225 68 225 0 0 0"></polygon>
        <polygon id="path-15" points="0 68 225 68 225 0 0 0"></polygon>
        <polygon id="path-17" points="0 68 225 68 225 0 0 0"></polygon>
        <polygon id="path-19" points="0 68 225 68 225 0 0 0"></polygon>
        <polygon id="path-21" points="0 68 225 68 225 0 0 0"></polygon>
        <polygon id="path-23" points="0 68 225 68 225 0 0 0"></polygon>
        <polygon id="path-25" points="0 68 225 68 225 0 0 0"></polygon>
        <polygon id="path-27" points="0 68 225 68 225 0 0 0"></polygon>
        <polygon id="path-29" points="0 68 225 68 225 0 0 0"></polygon>
    </defs>
    <g id="Page-1" stroke="none" stroke-width="1" fill="none" fill-rule="evenodd">
        <g id="spbook">
            <mask id="mask-2" fill="white">
                <use xlink:href="#path-1"></use>
            </mask>
            <g id="Mask"></g>
            <g mask="url(#mask-2)">
                <g transform="translate(0.000000, -50.000000)">
                    <rect id="Rectangle-Copy-3" fill="#FFFFFF" fill-rule="nonzero" x="0" y="0" width="250" height="250"></rect>
                    <g id="Page-1" stroke-width="1" fill="none" fill-rule="evenodd" transform="translate(13.000000, 91.000000)">
                        <g id="Fill-1-Clipped">
                            <mask id="mask-4" fill="white">
                                <use xlink:href="#path-3"></use>
                            </mask>
                            <g id="path-1"></g>
                            <path d="M77.0709924,22.6455746 L86.1465649,22.6455746 L86.1465649,21.008257 L77.0709924,21.008257 L77.0709924,22.6455746 Z M77.070229,17.1865882 L86.1458015,17.1865882 L86.1458015,15.5999638 L77.070229,15.5999638 L77.070229,17.1865882 Z M64.778626,49.4903202 L85.2206107,49.4903202 L85.2206107,47.6547691 L64.778626,47.6547691 L64.778626,49.4903202 Z M64.778626,44.2310805 L85.2206107,44.2310805 L85.2206107,42.3955294 L64.778626,42.3955294 L64.778626,44.2310805 Z M60.1984733,43.4389032 C60.1984733,40.6091583 60.1541985,39.7655312 60.0656489,38.5761304 C61.1664122,38.6737339 61.8282443,38.6737339 64.7343511,38.6737339 L85.3076336,38.6737339 C88.259542,38.6737339 89.0083969,38.6737339 90.0229008,38.5761304 C89.8908397,39.6164778 89.8458015,40.759725 89.8458015,43.4389032 L89.8458015,49.8376071 C89.8458015,52.4199385 89.9343511,53.8590226 90.1114504,55 L85.2206107,55 L85.2206107,53.3119891 L64.778626,53.3119891 L64.778626,55 L59.9770992,55 C60.110687,53.5601592 60.1984733,52.0726516 60.1984733,49.8867872 L60.1984733,43.4389032 Z M72.4885496,15.5999638 L63.4129771,15.5999638 C61.4312977,15.5999638 60.2419847,15.6483873 59.0977099,15.7981973 L59.0977099,11.4302515 C60.3755725,11.6292416 61.8717557,11.7298715 63.9419847,11.7298715 L72.4885496,11.7298715 C72.4435115,10.4390842 72.4007634,10.141734 72.2251908,9 L77.3778626,9 C77.159542,9.99192394 77.1152672,10.3899041 77.0709924,11.7298715 L85.9259542,11.7298715 C88.1282443,11.7298715 89.5374046,11.6791782 90.7717557,11.5301248 C90.6839695,12.4236887 90.6389313,13.4156126 90.6389313,15.747504 L90.6389313,17.1865882 L90.9923664,17.1865882 C92.8419847,17.1865882 93.810687,17.1381647 95,16.9399312 L95,21.2564271 C93.9442748,21.057437 92.8419847,21.008257 90.8587786,21.008257 L90.6389313,21.008257 L90.6389313,22.9429248 C90.6389313,24.4811257 90.6839695,25.8717864 90.7717557,26.4664868 C89.4938931,26.3666135 88.1717557,26.31819 86.1900763,26.31819 L77.0709924,26.31819 L77.0709924,27.8571476 L87.5557252,27.8571476 C89.8022901,27.8571476 90.9038168,27.8064543 92.1358779,27.6581575 L92.1358779,31.8255999 C90.8152672,31.6281231 89.6259542,31.5774298 87.5557252,31.5774298 L77.0709924,31.5774298 L77.0709924,33.166324 L89.8022901,33.166324 C92.0480916,33.166324 93.5908397,33.0672073 94.8687023,32.8682172 L94.8687023,37.4835765 C93.370229,37.2830732 91.6526718,37.1869829 89.8022901,37.1869829 L60.110687,37.1869829 C58.1709924,37.1869829 56.5419847,37.2830732 55,37.4835765 L55,32.8682172 C56.2770992,33.0672073 57.9519084,33.166324 60.110687,33.166324 L72.4885496,33.166324 L72.4885496,31.5774298 L62.5328244,31.5774298 C60.4641221,31.5774298 59.229771,31.6281231 57.9519084,31.8255999 L57.9519084,27.6581575 C59.229771,27.8064543 60.3305344,27.8571476 62.5328244,27.8571476 L72.4885496,27.8571476 L72.4885496,26.31819 L63.4129771,26.31819 C61.4312977,26.31819 60.2862595,26.3666135 59.0526718,26.5164235 L59.0526718,22.4480978 C60.2419847,22.5956379 61.3885496,22.6455746 63.4129771,22.6455746 L72.4885496,22.6455746 L72.4885496,21.008257 L60.0656489,21.008257 C57.8198473,21.008257 56.4977099,21.057437 55,21.2564271 L55,16.9399312 C56.3656489,17.0874714 57.8641221,17.1865882 60.0656489,17.1865882 L72.4885496,17.1865882 L72.4885496,15.5999638 Z" id="Fill-1" fill="#242424" fill-rule="nonzero" mask="url(#mask-4)"></path>
                        </g>
                        <g id="Fill-3-Clipped">
                            <mask id="mask-6" fill="white">
                                <use xlink:href="#path-5"></use>
                            </mask>
                            <g id="path-1"></g>
                            <path d="M129.869601,18.1444301 L131.304873,18.1444301 L131.304873,16.5150925 L122.608107,16.5150925 C122.305231,17.3053024 122.217834,17.501726 121.911944,18.1444301 L129.869601,18.1444301 Z M120.173796,20.9583299 C119.65092,21.6499517 119.435441,21.8463753 118.782976,22.5372446 L123.042832,22.5372446 L123.042832,20.9583299 L120.173796,20.9583299 Z M106.607655,45.8341377 L127.087962,45.8341377 L127.087962,44.2552231 L106.607655,44.2552231 L106.607655,45.8341377 Z M106.607655,41.5406639 L127.087962,41.5406639 L127.087962,40.0588322 L106.607655,40.0588322 L106.607655,41.5406639 Z M106.607655,37.344273 L127.087962,37.344273 L127.087962,35.8639465 L106.607655,35.8639465 L106.607655,37.344273 Z M127.044264,22.5372446 L132.346857,22.5372446 C134.043567,22.5372446 134.73973,22.4875742 135.611441,22.3393158 L135.611441,25.6461561 C134.653086,25.5468154 133.95617,25.4986503 132.346857,25.4986503 L127.044264,25.4986503 L127.044264,28.6083144 L130.260628,28.6083144 L130.260628,28.3125501 C130.260628,27.520835 130.218436,27.176153 130.131793,26.5349541 L134.13021,26.5349541 C134.043567,27.1279878 134.001375,27.6201757 134.001375,28.4111382 L134.001375,29.4481946 C134.001375,30.4348281 134.043567,30.9277686 134.13021,31.5712252 C133.175623,31.4222142 132.740898,31.4222142 131.044188,31.4222142 L119.65092,31.4222142 C118.217155,31.4222142 117.435102,31.471132 116.522706,31.5712252 C116.60935,30.8291805 116.651542,30.4348281 116.651542,29.4481946 L116.651542,28.4608085 C116.651542,27.6705986 116.60935,27.1279878 116.522706,26.5349541 L120.522631,26.5349541 C120.435234,27.0286472 120.435234,27.4734224 120.435234,28.3125501 L120.435234,28.6083144 L123.042832,28.6083144 L123.042832,25.4986503 L118.650374,25.4986503 C116.912226,25.4986503 116.348665,25.4986503 115.564352,25.6461561 L115.564352,22.3889861 C116.216063,22.4875742 116.60935,22.5372446 117.609896,22.5372446 C116.867774,21.6499517 116.261268,21.1065884 115.303667,20.5135546 C117.086267,19.1318162 117.783937,18.2926885 118.696333,16.5150925 L102.389991,16.5150925 L102.389991,18.1444301 L111.912509,18.1444301 C113.130041,18.1444301 113.73956,18.0955123 114.825997,17.9969242 L114.825997,21.5506111 C114.086889,21.4505178 113.521068,21.4023526 111.997646,21.4023526 L109.564841,21.4023526 L109.564841,23.179196 L111.651824,23.179196 C113.258876,23.179196 113.73956,23.179196 114.391272,23.080608 L114.391272,26.3882008 C113.693602,26.2888602 113.130041,26.2391898 111.651824,26.2391898 L109.564841,26.2391898 L109.564841,27.9663629 C111.608126,27.8181045 112.520521,27.6705986 115.261476,27.3244114 L115.21627,30.5334162 C110.346895,31.3236261 108.522104,31.5712252 101.129513,32.1145886 C100.128214,32.2116715 99.694242,32.2605893 98.7810928,32.4592707 L98.2160253,28.3622204 C98.8247914,28.4608085 99.4335575,28.5089737 99.9104745,28.5089737 C100.825884,28.5089737 103.390537,28.4111382 105.476766,28.2636323 L105.476766,26.2391898 L103.172798,26.2391898 C101.73828,26.2391898 101.171705,26.2888602 100.434104,26.3882008 L100.434104,23.080608 C101.171705,23.179196 101.607937,23.179196 103.172798,23.179196 L105.476766,23.179196 L105.476766,21.4023526 L103.086154,21.4023526 C101.563485,21.4023526 101.085061,21.4023526 100.259309,21.5506111 L100.259309,20.0198616 L97.6502044,20.0198616 C97.8249986,19.0317229 97.8679437,18.2437708 97.8679437,16.8116094 L97.8679437,15.4795413 C97.8679437,14.3438967 97.8249986,13.5536868 97.6946563,12.5181356 C99.172873,12.6167237 100.085269,12.6656414 102.477388,12.6656414 L114.086889,12.6656414 C114.086889,11.3832436 114.042437,10.8391277 113.868396,10 L119.131811,10 C118.999209,10.7420447 118.912565,11.4314088 118.912565,12.6656414 L131.260421,12.6656414 C133.65254,12.6656414 134.522744,12.6167237 136.043152,12.5181356 C135.913564,13.5055217 135.872125,14.2942264 135.872125,15.4795413 L135.872125,16.8605271 C135.872125,18.390524 135.913564,19.1318162 136.043152,20.1192023 L132.95713,20.1192023 L132.95713,21.1065884 C132.172816,21.0072477 131.347064,20.9583299 129.869601,20.9583299 L127.044264,20.9583299 L127.044264,22.5372446 Z M106.563203,49.2884839 C104.302933,49.2884839 103.30314,49.3374016 101.956019,49.439 C102.086361,48.3522733 102.13006,47.214371 102.13006,44.7466584 L102.13006,37.5414492 C102.13006,35.3702534 102.086361,34.1849386 101.999717,32.7053646 C103.216496,32.8039527 103.99855,32.8039527 106.390669,32.8039527 L127.436797,32.8039527 C129.911793,32.8039527 130.567271,32.8039527 131.828502,32.6564468 C131.741105,33.9388446 131.695899,35.5185119 131.695899,37.888389 L131.695899,44.4531518 C131.695899,47.3648872 131.741105,48.498274 131.86994,49.439 C130.522066,49.3374016 129.566725,49.2884839 127.262003,49.2884839 L125.56454,49.2884839 C128.870562,50.4722936 131.653708,51.0171621 137,51.4611848 C135.477331,53.6805458 135.001921,54.4715083 134.348703,55.9518348 C128.477275,54.915531 125.263171,53.8792271 120.173796,51.3114212 L122.346669,49.2884839 L111.259291,49.2884839 L113.258876,51.2640086 C108.259912,54.0259804 105.650807,54.915531 99.6505434,56 C99.0862293,54.5196734 98.4330112,53.4841222 97,51.6094433 C102.086361,51.114245 105.17389,50.4722936 108.216214,49.2884839 L106.563203,49.2884839 Z" id="Fill-3" fill="#242424" fill-rule="nonzero" mask="url(#mask-6)"></path>
                        </g>
                        <g id="Fill-4-Clipped">
                            <mask id="mask-8" fill="white">
                                <use xlink:href="#path-7"></use>
                            </mask>
                            <g id="path-1"></g>
                            <path d="M149.41071,18.2088667 C147.99639,17.8114442 147.220023,17.4355457 146.834159,17.0727151 C146.454481,16.7129594 146.384886,16.3847208 146.377927,15.8350941 C146.406538,15.0325621 146.821786,14.262316 148.376068,14.2354112 C150.333226,14.2430982 151.413491,14.9011129 152.101705,15.8543118 C152.170527,15.9511691 152.289611,16.0003664 152.407149,15.9826861 L152.691714,15.9365636 C152.834771,15.9150398 152.943803,15.7966586 152.953855,15.6529101 L153.146401,13.1184774 C153.154907,12.9862595 153.081445,12.8617286 152.958495,12.8102252 C151.762238,12.2859658 150.45927,11.9984687 148.777398,12.0000061 C147.209197,11.9984687 145.919375,12.515041 145.027789,13.3683077 C144.13311,14.220037 143.643627,15.4015423 143.645174,16.6875921 C143.605737,19.2151064 144.83911,20.6395237 148.198988,21.5258449 C150.737649,22.277642 151.230998,22.855711 151.264249,24.3339379 C151.234865,25.943614 150.316214,26.7269282 148.318846,26.7638263 C146.007528,26.7507582 144.690641,25.772192 143.904221,24.0679647 C143.841586,23.9342094 143.69389,23.8596446 143.548515,23.8942365 L143.243844,23.9618829 C143.097696,23.9949374 142.994077,24.1263866 143.000263,24.2770535 L143.117027,27.5717392 C143.119347,27.6824332 143.181982,27.7815966 143.278642,27.8354063 C144.630326,28.5656796 146.012941,29 148.000257,29 L148.018042,29 C149.665117,29 151.16063,28.4780468 152.247854,27.5133173 C153.33508,26.5501252 154.000869,25.1403134 153.999322,23.4376235 C154.03412,20.7755852 152.733471,19.1074872 149.41071,18.2088667" id="Fill-4" fill="#242424" fill-rule="nonzero" mask="url(#mask-8)"></path>
                        </g>
                        <g id="Fill-5-Clipped">
                            <mask id="mask-10" fill="white">
                                <use xlink:href="#path-9"></use>
                            </mask>
                            <g id="path-1"></g>
                            <path d="M161.406682,19.1821648 L159.65798,19.1821648 L159.65798,14.318383 C160.487319,14.2864766 161.482366,14.2864766 162.559471,14.2864766 C164.143261,14.3323907 164.804501,14.9300522 164.849912,16.5362675 C164.829995,18.4989007 163.481224,19.1440327 161.406682,19.1821648 M166.607377,13.0553562 C165.707931,12.3339601 164.458744,12.0242345 162.989675,12.0242345 C162.006578,12.0242345 160.638687,12.0468024 159.647623,12.0468024 C158.265392,12.0468024 157.665496,12.0242345 156.390019,12.0001101 C156.238651,11.9962191 156.105606,12.0958293 156.070552,12.2397973 L156.011598,12.4717024 C155.975748,12.6024408 156.033905,12.7425177 156.151016,12.8141126 C156.524657,13.0670293 156.608308,13.2234485 156.627428,14.2063215 L156.627428,27.030363 C156.624241,27.6762732 156.435429,28.0272437 156.16217,28.1782154 C156.021158,28.2575924 155.961408,28.4264629 156.025938,28.5735436 L156.124726,28.8062269 C156.175713,28.9245141 156.295215,29 156.425073,29 C156.441803,29 156.457736,28.9992218 156.47606,28.996109 C156.712672,28.9564205 156.975575,28.9494167 157.247241,28.9494167 C157.4249,28.9494167 157.605745,28.9533077 157.79137,28.9533077 C158.315583,28.9533077 159.475541,28.9540859 159.96948,28.9984436 C160.122442,29.0116731 160.267437,28.9159539 160.308864,28.7688731 L160.389328,28.4894975 C160.431552,28.3385257 160.355867,28.1805501 160.210873,28.1167372 C159.815722,27.922186 159.682677,27.7603193 159.65798,26.7727771 L159.65798,21.4451851 L161.307894,21.4451851 L161.307894,21.4467415 C162.963385,21.4444069 164.612502,21.1090005 165.877622,20.3004455 C167.144336,19.4988942 168.006338,18.1837276 167.999965,16.3736226 C168.003948,14.8997022 167.50762,13.7759741 166.607377,13.0553562" id="Fill-5" fill="#242424" fill-rule="nonzero" mask="url(#mask-10)"></path>
                        </g>
                        <g id="Fill-6-Clipped">
                            <mask id="mask-12" fill="white">
                                <use xlink:href="#path-11"></use>
                            </mask>
                            <g id="path-1"></g>
                            <path d="M174.195711,27.5410288 C173.352017,27.5410288 172.646674,27.4953884 171.998909,27.449748 L171.998909,20.9992393 L173.744675,20.9992393 C176.118212,20.9992393 177.568884,22.1166683 177.568884,24.372825 C177.568884,26.5156413 176.236569,27.5410288 174.195711,27.5410288 Z M171.998909,14.5274318 C172.431552,14.5038509 172.898582,14.4817914 173.389604,14.4817914 C175.212941,14.4817914 176.37092,15.2797376 176.37092,16.919749 C176.37092,18.6974422 175.253726,19.5417895 173.232061,19.5417895 L171.998909,19.5417895 L171.998909,14.5274318 Z M176.236569,20.1115337 L176.236569,20.0423124 C177.568884,19.4953884 178.802835,18.470001 178.802835,16.6246078 C178.802835,14.1851288 176.626827,13 173.821447,13 C172.997746,13 172.016503,13.0243415 171.408724,13.0243415 C170.800945,13.0243415 169.724537,13.0243415 169.115958,13 L169,13.2738424 C169.351072,13.4784634 169.644566,13.8656461 169.644566,14.4133308 L169.644566,27.405629 C169.644566,27.8825711 169.509415,28.4310164 169.017594,28.7946182 L169.075972,29 C170.332316,28.9779405 170.880916,28.9779405 171.900545,28.9779405 C172.683461,28.9779405 173.272846,29 174.412432,29 C177.411341,29 180,27.4276885 180,24.372825 C180,21.889227 178.450164,20.6348769 176.236569,20.1115337 Z" id="Fill-6" fill="#242424" fill-rule="nonzero" mask="url(#mask-12)"></path>
                        </g>
                        <g id="Fill-7-Clipped">
                            <mask id="mask-14" fill="white">
                                <use xlink:href="#path-13"></use>
                            </mask>
                            <g id="path-1"></g>
                            <path d="M188.578855,28.3453838 C185.708209,28.3453838 183.519382,25.6318131 183.519382,21.5701242 C183.519382,17.5809232 185.434208,14.6538283 188.421145,14.6538283 C191.29418,14.6538283 193.479025,17.3681869 193.479025,21.4290879 C193.479025,25.4190768 191.568182,28.3453838 188.578855,28.3453838 M188.559739,13 C184.514231,13 181,16.4715425 181,21.7592232 C181,26.7868928 184.37962,30 188.441854,30 C192.483379,30 196,26.5284575 196,21.2407768 C196,16.2115313 192.621973,13 188.559739,13" id="Fill-7" fill="#242424" fill-rule="nonzero" mask="url(#mask-14)"></path>
                        </g>
                        <g id="Fill-8-Clipped">
                            <mask id="mask-16" fill="white">
                                <use xlink:href="#path-15"></use>
                            </mask>
                            <g id="path-1"></g>
                            <path d="M204.578453,28.3453838 C201.70557,28.3453838 199.519248,25.6318131 199.519248,21.5701242 C199.519248,17.5809232 201.433972,14.6538283 204.422344,14.6538283 C207.292041,14.6538283 209.479955,17.3681869 209.479955,21.4290879 C209.479955,25.4190768 207.565231,28.3453838 204.578453,28.3453838 M204.556948,13 C200.515637,13 197,16.4715425 197,21.7592232 C197,26.7868928 200.377051,30 204.43907,30 C208.484363,30 212,26.5284575 212,21.2407768 C212,16.2115313 208.618967,13 204.556948,13" id="Fill-8" fill="#242424" fill-rule="nonzero" mask="url(#mask-16)"></path>
                        </g>
                        <g id="Fill-9-Clipped">
                            <mask id="mask-18" fill="white">
                                <use xlink:href="#path-17"></use>
                            </mask>
                            <g id="path-1"></g>
                            <path d="M222.410724,27.040599 L217.916217,19.5422391 L221.094768,14.823247 C221.752374,13.8443071 222.154534,13.4328025 222.611804,13.2061326 L222.557438,13 C222.245392,13.0243404 221.333085,13.0463989 221.023273,13.0463989 C220.565258,13.0463989 219.979147,13.0243404 219.597096,13 L219.524856,13.2061326 C219.781046,13.3430473 219.890523,13.5027811 219.890523,13.7766104 C219.890523,14.0032802 219.635822,14.5281198 219.26941,15.0970763 L214.905232,21.7298312 L214.905232,14.6878536 C214.905232,13.8663656 215.104822,13.4571429 215.5256,13.2061326 L215.471979,13 C215.049711,13.0243404 214.284118,13.0463989 213.844722,13.0463989 C213.33383,13.0463989 212.641221,13.0463989 212.129585,13 L212.074474,13.2281911 C212.548874,13.4115046 212.675479,13.9355836 212.675479,14.617875 L212.675479,27.4954599 C212.675479,28.1579748 212.384286,28.5664369 212,28.7505111 L212.020108,29 C212.364923,28.9543618 213.534165,28.9543618 213.882703,28.9543618 C214.339229,28.9543618 215.049711,28.9543618 215.506237,29 L215.543474,28.794628 C215.161422,28.4987402 214.905232,28.1800333 214.905232,27.4954599 L214.905232,24.0079391 L216.493763,21.6164963 L219.450382,26.6077965 C219.781046,27.1539339 220.091603,27.8377466 220.091603,28.1800333 C220.091603,28.4759211 219.979147,28.6356549 219.706572,28.794628 L219.744554,29 C220.255446,28.9543618 221.295848,28.9543618 221.843977,28.9543618 C222.357103,28.9543618 223.433253,28.9771809 223.944889,29 L224,28.794628 C223.433253,28.4987402 223.048222,28.1115759 222.410724,27.040599" id="Fill-9" fill="#242424" fill-rule="nonzero" mask="url(#mask-18)"></path>
                        </g>
                        <g id="Fill-10-Clipped">
                            <mask id="mask-20" fill="white">
                                <use xlink:href="#path-19"></use>
                            </mask>
                            <g id="path-1"></g>
                            <path d="M145.002211,36 C145.843077,36.0952061 146.619381,36.1424283 147.93163,36.1424283 L156.915131,36.1424283 C158.402399,36.1424283 159.069025,36.1188172 159.911447,36 L159.911447,39.0450717 C158.984238,38.9247312 158.313723,38.9011201 156.936911,38.9011201 L147.975968,38.9011201 C146.533816,38.9011201 145.75829,38.9513889 145.002211,39.0450717 L145.002211,36 Z M162,53 C161.030787,52.8796595 160.060018,52.830914 158.876116,52.830914 L146.252231,52.830914 C145.046549,52.830914 144.013551,52.8796595 143,53 L143,49.8825717 C143.906207,50.0029122 144.658397,50.0486111 146.186891,50.0486111 L158.811553,50.0486111 C160.253705,50.0486111 160.986449,50.0029122 162,49.8825717 L162,53 Z" id="Fill-10" fill="#242424" fill-rule="nonzero" mask="url(#mask-20)"></path>
                        </g>
                        <g id="Fill-11-Clipped">
                            <mask id="mask-22" fill="white">
                                <use xlink:href="#path-21"></use>
                            </mask>
                            <g id="path-1"></g>
                            <path d="M172.560575,36.8707268 C169.772678,37.1497844 168.70597,37.2189965 165.917304,37.288945 C165.683505,36.3383822 165.683505,36.3383822 165.129002,34.9018618 L166.172637,34.9018618 C169.218944,34.9018618 173.157377,34.5756811 175.715321,34.1125486 C177.738757,33.7414537 178.504756,33.5330809 179.655292,33 L181.400324,35.3193436 C179.570694,35.8281266 176.673588,36.4061218 174.948553,36.6174398 L174.948553,39.628905 L179.356122,39.628905 C180.57203,39.628905 181.315726,39.584727 182.01866,39.4897444 L182.01866,42.0852004 C181.294191,41.9946355 180.486663,41.9460398 179.400729,41.9460398 L174.948553,41.9460398 L174.948553,44.7513411 L180.399757,44.7513411 C181.594131,44.7513411 182.297834,44.7056905 183,44.6121805 L183,47.2319344 C182.253228,47.1384243 181.549524,47.0942463 180.399757,47.0942463 L174.948553,47.0942463 L174.948553,51.6342695 C174.948553,52.6547807 174.648614,53.3726728 174.115645,53.6274324 C173.627282,53.8601031 172.709006,54 171.731512,54 C171.09318,54 170.046468,53.9550857 168.835175,53.8387504 C168.727505,52.8160303 168.602145,52.284422 168.196843,51.3102977 C169.727302,51.5451772 170.879377,51.6342695 171.752277,51.6342695 C172.370613,51.6342695 172.560575,51.4730199 172.560575,50.9163774 L172.560575,47.0942463 L166.620239,47.0942463 C165.448937,47.0942463 164.747541,47.1384243 164,47.2319344 L164,44.6121805 C164.702935,44.7056905 165.4051,44.7513411 166.620239,44.7513411 L172.560575,44.7513411 L172.560575,41.9460398 L167.812305,41.9460398 C166.876341,41.9460398 165.875005,41.9946355 165.150536,42.0852004 L165.150536,39.4897444 C165.853471,39.584727 166.57794,39.628905 167.790771,39.628905 L172.560575,39.628905 L172.560575,36.8707268 Z" id="Fill-11" fill="#242424" fill-rule="nonzero" mask="url(#mask-22)"></path>
                        </g>
                        <g id="Fill-12-Clipped">
                            <mask id="mask-24" fill="white">
                                <use xlink:href="#path-23"></use>
                            </mask>
                            <g id="path-1"></g>
                            <path d="M195.485208,39.529436 L199.794735,39.529436 L199.794735,38.7446371 L195.485208,38.7446371 L195.485208,39.529436 Z M195.485208,36.9172092 L199.794735,36.9172092 L199.794735,36.1572887 L195.485208,36.1572887 L195.485208,36.9172092 Z M189.647248,52.3659105 L199.355018,52.3659105 L199.355018,51.4883832 L189.647248,51.4883832 L189.647248,52.3659105 Z M189.647248,49.8509355 L199.355018,49.8509355 L199.355018,48.9719005 L189.647248,48.9719005 L189.647248,49.8509355 Z M187.469063,49.4709753 C187.469063,48.1184977 187.448664,47.7129052 187.408621,47.1452265 C187.929179,47.1904599 188.244234,47.1904599 189.624582,47.1904599 L199.395061,47.1904599 C200.799586,47.1904599 201.153173,47.1904599 201.635955,47.1452265 C201.573246,47.6443013 201.551336,48.1901172 201.551336,49.4709753 L201.551336,52.5310123 C201.551336,53.766637 201.593646,54.4541841 201.676754,55 L199.355018,55 L199.355018,54.1918306 L189.647248,54.1918306 L189.647248,55 L187.3648,55 C187.428265,54.3109451 187.469063,53.6000274 187.469063,52.5543828 L187.469063,49.4709753 Z M193.307022,36.1572887 L188.996739,36.1572887 C188.056108,36.1572887 187.49324,36.1799054 186.947749,36.2530327 L186.947749,34.1632513 C187.554438,34.2582414 188.265389,34.3064903 189.249841,34.3064903 L193.307022,34.3064903 C193.286623,33.6875471 193.266224,33.5458159 193.183116,33 L195.631024,33 C195.526006,33.4757042 195.505607,33.6656843 195.485208,34.3064903 L199.688961,34.3064903 C200.736122,34.3064903 201.405519,34.2831197 201.989542,34.2107464 C201.95101,34.6382016 201.926078,35.1139058 201.926078,36.2296621 L201.926078,36.9172092 L202.095316,36.9172092 C202.973994,36.9172092 203.43411,36.8923309 204,36.7980947 L204,38.8637516 C203.49833,38.7664999 202.973994,38.7446371 202.034118,38.7446371 L201.926078,38.7446371 L201.926078,39.6704133 C201.926078,40.4054554 201.95101,41.069632 201.989542,41.355356 C201.382854,41.307861 200.755766,41.2814749 199.815134,41.2814749 L195.485208,41.2814749 L195.485208,42.0210404 L200.461866,42.0210404 C201.530181,42.0210404 202.053006,41.9954081 202.640051,41.9237886 L202.640051,43.9170722 C202.011452,43.822836 201.446318,43.7994654 200.461866,43.7994654 L195.485208,43.7994654 L195.485208,44.5578781 L201.530181,44.5578781 C202.596986,44.5578781 203.331358,44.5118909 203.936536,44.4146392 L203.936536,46.6220273 C203.224073,46.5277911 202.410371,46.48105 201.530181,46.48105 L187.428265,46.48105 C186.508788,46.48105 185.734373,46.5277911 185,46.6220273 L185,44.4146392 C185.607444,44.5118909 186.40377,44.5578781 187.428265,44.5578781 L193.307022,44.5578781 L193.307022,43.7994654 L188.580444,43.7994654 C187.595992,43.7994654 187.008947,43.822836 186.40377,43.9170722 L186.40377,41.9237886 C187.008947,41.9954081 187.532527,42.0210404 188.580444,42.0210404 L193.307022,42.0210404 L193.307022,41.2814749 L188.996739,41.2814749 C188.056108,41.2814749 187.512128,41.307861 186.924328,41.3772188 L186.924328,39.4321842 C187.49324,39.501542 188.03722,39.529436 188.996739,39.529436 L193.307022,39.529436 L193.307022,38.7446371 L187.408621,38.7446371 C186.341816,38.7446371 185.713218,38.7664999 185,38.8637516 L185,36.7980947 C185.651265,36.8689603 186.36146,36.9172092 187.408621,36.9172092 L193.307022,36.9172092 L193.307022,36.1572887 Z" id="Fill-12" fill="#242424" fill-rule="nonzero" mask="url(#mask-24)"></path>
                        </g>
                        <g id="Fill-13-Clipped">
                            <mask id="mask-26" fill="white">
                                <use xlink:href="#path-25"></use>
                            </mask>
                            <g id="path-1"></g>
                            <path d="M213.598658,51.6320299 L221.242061,51.6320299 L221.242061,48.1185442 L213.598658,48.1185442 L213.598658,51.6320299 Z M215.789732,40.6422084 C215.789732,39.3355838 215.768105,38.8854656 215.683832,38.2936016 L218.038976,38.2936016 C217.977823,38.8394736 217.956196,39.3355838 217.956196,40.6422084 L217.956196,40.9279619 L222.292852,40.9279619 C223.347372,40.9279619 224.007379,40.880462 224.483181,40.7847082 L224.483181,43.3956955 C223.883581,43.2999417 223.181811,43.2531958 222.37787,43.2531958 L217.956196,43.2531958 L217.956196,45.7443024 L221.736507,45.7443024 C222.60533,45.7443024 223.06025,45.7224374 223.553951,45.6485486 C223.491306,46.4100552 223.471916,47.0260461 223.471916,48.0491792 L223.471916,51.9162754 C223.471916,53.3872648 223.491306,54.2430172 223.597205,55 L221.242061,55 L221.242061,53.9821447 L213.598658,53.9821447 L213.598658,54.977381 L211.265141,54.977381 C211.347176,54.3123822 211.389685,53.3623839 211.389685,52.0587751 L211.389685,47.7370369 C211.389685,46.8609274 211.369549,46.2675554 211.308396,45.6485486 C211.824469,45.7224374 212.278643,45.7443024 213.145229,45.7443024 L215.789732,45.7443024 L215.789732,40.6422084 Z M215.002944,34.4483704 C215.002944,33.8059906 214.963418,33.4259913 214.900773,33 L217.380461,33 C217.29768,33.3792453 217.273816,33.7833716 217.273816,34.4717434 L217.273816,35.3244799 L222.398006,35.3244799 C223.616595,35.3244799 224.442909,35.2792419 225,35.1819802 L225,37.8163405 C224.380265,37.7469756 223.452526,37.6994757 222.438278,37.6994757 L210.211367,37.6994757 C210.23374,47.7634258 209.737803,51.3477844 207.836833,54.9072621 C207.218589,54.0281367 206.909094,53.6730183 206,52.8662737 C206.825568,51.3937763 207.218589,50.1120326 207.546728,48.0491792 C207.856969,46.0300559 207.982259,43.4914493 207.982259,38.8161006 C207.982259,36.7969773 207.962123,36.0354707 207.90097,35.2068611 C208.620638,35.2792419 209.407426,35.3244799 210.336657,35.3244799 L215.002944,35.3244799 L215.002944,34.4483704 Z" id="Fill-13" fill="#242424" fill-rule="nonzero" mask="url(#mask-26)"></path>
                        </g>
                        <g id="Fill-14-Clipped">
                            <mask id="mask-28" fill="white">
                                <use xlink:href="#path-27"></use>
                            </mask>
                            <g id="path-1"></g>
                            <path d="M3.87548723,13.7063808 L3.87548723,55.4568525 C3.87548723,63.5762339 31.1591927,63.9677834 31.1591927,58.4672658 L31.1591927,12.1966563 C12.0212014,14.2342197 3.19616772,9.71483484 1.77632873,9.05522452 C0.356489745,8.3956142 0.16829988,7.16072731 1.27295909,6.07417744 C2.3776183,4.98687459 6.91712506,1.01565905 7.44114968,0.583448641 C7.95063932,0.163285905 9.07518852,-0.245582133 10.5141525,0.179851461 C11.9523515,0.605285056 24.5962624,4.91232959 42,1.21444572 L37.9868129,4.58628933 C23.9253579,7.7503105 11.231722,3.69476123 10.2341627,3.39884016 C9.2358384,3.10367208 8.9627336,3.31977728 8.74700375,3.48919774 C8.53127391,3.6586182 6.13759062,5.5794697 5.67553095,6.03351653 C5.21423628,6.48831634 5.00233143,6.71044538 5.06353138,7.03347372 C5.07959637,8.20511031 16.807038,9.7012812 19.9817857,9.72989443 C27.1161706,9.97461287 29.5450439,9.3654522 32.4772868,9.08308477 C35.053805,8.83384846 35.1119449,10.0740062 35.1119449,10.9805939 L35.1119449,59.6261018 C35.1119449,66.8388954 18.8503515,65.9669448 17.6209974,65.9669448 C16.3908783,65.9669448 0,65.5520529 0,55.2671016 L0,12.134912 L3.87548723,13.7063808 Z" id="Fill-14" fill="#BB9740" fill-rule="nonzero" mask="url(#mask-28)"></path>
                        </g>
                        <g id="Fill-15-Clipped">
                            <mask id="mask-30" fill="white">
                                <use xlink:href="#path-29"></use>
                            </mask>
                            <g id="path-1"></g>
                            <path d="M40.0893918,50.8345013 L40.0893918,8.4557588 L36.1131542,11.9438833 L36.1131542,9.09821022 C36.1131542,8.13453309 36.6909948,7.57833673 37.219802,7.12549771 C37.7478548,6.67340227 41.0398868,3.74816632 41.6199906,3.28119932 C42.2000943,2.81423232 44,2.74582314 44,4.53858976 L44,50.5549159 C44,52.5930633 42.4973126,53.9761184 41.3838755,54.8981552 C40.2696841,55.8194483 39.1464404,57.0634544 39.1464404,59.0785508 L39.1464404,65.1996852 L36,68 L36,57.6270865 C36,55.6290924 36.9957567,54.605929 37.8760962,53.7285069 C38.75719,52.8510849 40.0893918,52.3224009 40.0893918,50.8345013" id="Fill-15" fill="#BB9740" fill-rule="nonzero" mask="url(#mask-30)"></path>
                        </g>
                    </g>
                </g>
            </g>
        </g>
    </g>
</svg>