<?xml version="1.0" encoding="UTF-8"?>
<svg width="237px" height="70px" viewBox="0 0 237 70" version="1.1" xmlns="http://www.w3.org/2000/svg" xmlns:xlink="http://www.w3.org/1999/xlink">
    <!-- Generator: Sketch 49.3 (51167) - http://www.bohemiancoding.com/sketch -->
    <title>gomart</title>
    <desc>Created with Sketch.</desc>
    <defs>
        <rect id="path-1" x="0" y="0" width="250" height="150"></rect>
    </defs>
    <g id="Page-1" stroke="none" stroke-width="1" fill="none" fill-rule="evenodd">
        <g id="gomart" transform="translate(-7.000000, -41.000000)">
            <g>
                <mask id="mask-2" fill="white">
                    <use xlink:href="#path-1"></use>
                </mask>
                <g id="Mask"></g>
                <g mask="url(#mask-2)" id="Shape">
                    <g transform="translate(7.000000, 42.000000)">
                        <path d="M171.06,50.76 C163.966939,49.7493408 157.215148,47.0691881 151.36,42.94 L169.9,42.94 L170.06,42.94 C170.79,42.94 170.93,42.5 170.95,42.23 L170.95,37.44 C170.95,37.19 170.78,36.75 170.06,36.75 L144.62,36.75 C144.76,36.13 144.88,35.53 144.99,34.92 C145.05,34.58 145.14,33.92 144.21,33.92 L137.46,33.92 C136.963683,33.8673097 136.517543,34.2242217 136.46,34.72 C136.29,35.43 136.12,36.12 135.92,36.72 L115.15,36.72 C114.75979,36.689058 114.411405,36.9634111 114.35,37.35 L114.35,42.2 C114.35,42.46 114.5,42.87 115.23,42.88 L133.32,42.88 C131.71,46.47 120.63,51.2 113.71,51.27 C113.430454,51.3251005 113.214902,51.5486361 113.17,51.83 L113.17,56.42 C113.17,57.65 114.17,57.53 114.72,57.47 C125.64,56.11 135.65,52.8 141.72,43.83 C149.25,52.04 161.46,56.4 170.93,57.39 C171.35,57.39 172.21,57.56 172.21,56.27 C172.21,54.75 172.21,52.88 172.21,52.16 C172.273967,51.4463491 171.75271,50.8137128 171.04,50.74" stroke="none" fill="#A3007D" fill-rule="nonzero"></path>
                        <path d="M172.23,26.9 C172.233271,26.8533906 172.233271,26.8066094 172.23,26.76 C172.230469,26.5547615 172.14568,26.3585464 171.995891,26.2182381 C171.846102,26.0779297 171.64477,26.006132 171.44,26.02 L146.51,26.02 L146.51,22.29 L169.23,22.29 C169.9,22.29 170.07,21.91 170.11,21.64 L170.11,16.74 C170.11,16.48 169.96,16.03 169.23,16.02 L146.51,16.02 L146.51,12.3 L171.39,12.3 C171.586367,12.3137184 171.780108,12.2486336 171.928365,12.1191428 C172.076623,11.989652 172.167178,11.8064276 172.18,11.61 L172.18,6.67 C172.18,6.42 172.03,5.99 171.37,5.96 L161.88,5.96 L161.88,2 L161.88,1.87 C161.88,1.61 161.74,1.14 160.99,1.14 L154.17,1.14 C153.58,1.14 153.38,1.43 153.31,1.69 L153.31,6 L133.19,6 L133.19,2 L133.19,1.87 C133.19,1.61 133.05,1.14 132.3,1.14 L125.49,1.14 C124.89,1.14 124.7,1.43 124.63,1.69 L124.63,6 L114,6 C113,6 113.11,6.9 113.11,6.9 L113.11,11.46 C113.078356,11.6790447 113.142494,11.9011147 113.286053,12.069557 C113.429612,12.2379993 113.638709,12.3365254 113.86,12.34 L139,12.34 L139,16 L116.2,16 C115.54,16 115.36,16.36 115.32,16.62 L115.32,21.62 C115.32,21.89 115.51,22.29 116.19,22.29 L139,22.29 L139,26 L114.15,26 C113.44,26 113.29,26.43 113.27,26.7 L113.27,31.3 L113.27,31.43 C113.27,31.69 113.41,32.16 114.16,32.16 L171.4,32.16 C172.08,32.16 172.21,31.69 172.22,31.44 L172.22,26.84 L172.23,26.9 Z" stroke="none" fill="#A3007D" fill-rule="nonzero"></path>
                        <path d="M187.11,9.58 L235,9.58 C235.73,9.58 235.88,9.13 235.9,8.87 L235.9,4.43 C235.824686,4.05132302 235.474189,3.79169564 235.09,3.83 L213.41,3.83 L213.41,1.26 C213.41,0.99 213.22,0.58 212.52,0.57 L206.33,0.57 C205.62,0.57 205.47,1 205.44,1.26 L205.44,3.82 L181.44,3.82 C181.112673,3.77467483 180.782767,3.88313337 180.546189,4.11384604 C180.30961,4.34455872 180.192905,4.67163802 180.23,5 L180.23,26 C180.23,44.93 178.1,47.57 176.45,50.1 C176.072883,50.5598169 175.886737,51.1468919 175.93,51.74 L175.93,57.06 C175.93,58.51 177.26,57.84 177.38,57.79 C180.38,56.57 187.11,49.88 187.11,29.5 L187.11,9.58 Z" stroke="none" fill="#A3007D" fill-rule="nonzero"></path>
                        <path d="M234,51.24 C229.42,48.94 225.4,44.43 223.76,42.76 L230.25,42.76 C230.96,42.76 231.12,42.34 231.15,42.07 L231.15,34.39 L235.15,34.39 C235.87,34.39 236.01,33.92 236.02,33.66 L236.02,33.48 L236.02,29.71 C236.004795,29.5062991 235.908232,29.317294 235.752083,29.1856021 C235.595934,29.0539102 235.393346,28.9906192 235.19,29.01 L231.13,29.01 L231.13,21.95 C231.098028,21.5434844 230.747122,21.2369968 230.34,21.26 L219.8,21.26 L219.8,18.88 L233.06,18.88 C233.81,18.88 233.95,18.41 233.96,18.14 L233.96,14 C233.889468,13.6214469 233.54372,13.3578141 233.16,13.39 L223,13.39 L223.52,12.1 C223.52,12.1 224.08,10.97 222.95,10.97 L217.8,10.97 C217.263793,10.9577312 216.7768,11.2810632 216.58,11.78 L215.95,13.39 L204.24,13.39 L204.76,12.1 C204.76,12.1 205.32,10.97 204.19,10.97 L199,10.97 C198.462937,10.9547547 197.974389,11.2791185 197.78,11.78 L197.14,13.39 L189.55,13.39 L189.34,13.39 C188.69,13.39 188.5,13.74 188.45,14.02 L188.45,18.18 C188.5,18.45 188.69,18.81 189.34,18.81 L200.52,18.81 L200.52,21.19 L191.21,21.19 C190.846618,21.1709414 190.52198,21.4154732 190.44,21.77 L190.44,26 C190.52702,26.3370492 190.831904,26.5718918 191.18,26.57 L200.52,26.57 L200.52,29 L188.84,29 C188.19,29 187.99,29.36 187.94,29.63 L187.94,33.44 C187.94,33.44 187.8,34.36 188.85,34.36 L189.02,34.36 L200.52,34.36 L200.52,37.3 L191.23,37.3 C190.848183,37.278473 190.50984,37.5440083 190.44,37.92 L190.44,41.81 C190.44,41.81 190.3,42.72 191.34,42.72 L191.49,42.72 L196.49,42.72 C193.753476,45.8518837 190.577061,48.5701941 187.06,50.79 C186.512044,51.0467739 186.181167,51.6168383 186.23,52.22 L186.23,56.68 C186.23,57.68 187.12,57.26 187.59,57.07 C192.49,55.18 199.08,49.36 200.4,47.07 L200.53,57.07 C200.53,57.78 200.97,57.93 201.24,57.95 L206.81,57.95 C207.07,57.9 207.4,57.7 207.4,57.06 C207.4,57.06 207.4,57 207.4,56.97 L207.4,42.76 L212.78,42.76 L212.78,57.36 C212.796588,57.6845128 213.031358,57.9563517 213.35,58.02 L219.2,58.02 C219.46,57.97 219.79,57.77 219.79,57.15 L219.79,47.08 C221.7,49.15 228.13,55.36 233.52,57.31 C234.13,57.56 234.9,57.66 234.9,56.64 C234.9,54.72 234.9,53.14 234.9,52.73 C234.971586,52.0543759 234.551186,51.4237759 233.9,51.23 L234,51.24 Z M212.71,37.31 L207.33,37.31 L207.33,34.37 L212.71,34.37 L212.71,37.31 Z M212.71,28.99 L207.33,28.99 L207.33,26.61 L212.71,26.61 L212.71,28.99 Z M212.71,21.24 L207.33,21.24 L207.33,18.86 L212.71,18.86 L212.71,21.24 Z M219.71,26.62 L224.03,26.62 L224.03,29 L219.8,29 L219.71,26.62 Z M219.71,34.38 L224.03,34.38 L224.03,37.32 L219.8,37.32 L219.71,34.38 Z" stroke="none" fill="#A3007D" fill-rule="nonzero"></path>
                        <path d="M68.48,0.22 C69.2229613,0.111864088 69.9796995,0.145798537 70.71,0.32 C71.4229009,0.494405786 72.0997785,0.792231902 72.71,1.2 C73.3201102,1.60102817 73.8493165,2.11327271 74.27,2.71 C74.688324,3.30452405 74.9591207,3.9900853 75.06,4.71 C75.2475229,5.65576529 75.0259015,6.63671207 74.45,7.41 C73.7591657,8.19165261 72.790301,8.67249659 71.75,8.75 C71.2665799,8.824713 70.7722232,8.78008358 70.31,8.62 C69.8848251,8.47243454 69.4704825,8.29533647 69.07,8.09 L68,7.55 C67.6950198,7.38286283 67.345027,7.3163642 67,7.36 C65.7524083,7.56795859 64.5293714,7.90303717 63.35,8.36 C61.7473516,8.97535789 60.2070446,9.74216292 58.75,10.65 C57.1474802,11.6358105 55.631985,12.756541 54.22,14 C52.7685526,15.2504441 51.3927886,16.5861373 50.1,18 C48.7743397,19.46422 47.5640551,21.0288973 46.48,22.68 C45.3990683,24.3003957 44.4269297,25.990781 43.57,27.74 C43.2393118,28.4495411 42.9683729,29.1854246 42.76,29.94 C42.5166796,30.7928846 42.3329038,31.6616426 42.21,32.54 C42.0767219,33.4676525 42.003237,34.4029157 41.99,35.34 C41.9755532,36.2832756 42.0357409,37.2262162 42.17,38.16 C42.2543047,38.9806664 42.6475511,39.7385594 43.27,40.28 C43.8846713,40.790542 44.600311,41.1654009 45.37,41.38 C46.1707275,41.6058248 46.9980627,41.7235351 47.83,41.73 C48.5619988,41.7463217 49.2941669,41.7062029 50.02,41.61 C51.2435462,41.4257441 52.443763,41.1106034 53.6,40.67 C54.8691453,40.2042248 56.1024485,39.6460632 57.29,39 C58.5112361,38.3314182 59.6871141,37.5831322 60.81,36.76 C61.867748,35.9803757 62.870153,35.1283314 63.81,34.21 C64.0366667,33.9766667 64.37,33.6033333 64.81,33.09 C65.2349188,32.5609378 65.6321187,32.0101984 66,31.44 C66.3655172,30.8894409 66.6993908,30.318517 67,29.73 C67.2342897,29.3376644 67.352207,28.886804 67.34,28.43 C67.3072722,28.2218126 67.2536686,28.0174488 67.18,27.82 C67.1,27.59 66.96,27.55 66.88,27.32 C66.88,27.32 65.66,26.79 65.45,26.67 C64.14,25.96 64.51,26.34 63.12,25.54 C61.73,24.74 62.54,21.93 65,21.54 C65.63,21.45 71.22,23.39 71.86,23.6 C72.4808158,23.7975518 73.0726538,24.0766572 73.62,24.43 C74.1151812,24.7452514 74.5687414,25.1215383 74.97,25.55 C75.2667009,25.8238855 75.4901536,26.167659 75.62,26.55 C75.5905303,26.7881533 75.5369213,27.0226928 75.46,27.25 C75.3466667,27.6566667 75.1966667,28.1566667 75.01,28.75 C74.8233333,29.3433333 74.6166667,29.98 74.39,30.66 L73.76,32.58 L73.24,34.12 C73.0933333,34.5533333 73.0066667,34.8233333 72.98,34.93 C72.7866667,35.6833333 72.5933333,36.5866667 72.4,37.64 C72.2066667,38.6933333 72.04,39.7466667 71.9,40.8 C71.76,41.8533333 71.6666667,42.8533333 71.62,43.8 C71.62,44.72 71.36,47.98 70.87,48.26 C67.97,51.09 64.87,48.75 64.73,48.06 C64.6815623,47.4918928 64.7118486,46.9198172 64.82,46.36 C64.9333333,45.62 65.08,44.83 65.26,43.99 C65.44,43.15 65.6333333,42.3166667 65.84,41.49 C66.0466667,40.67 66.21,40.0033333 66.33,39.49 C65.1366667,40.5633333 63.9833333,41.5633333 62.87,42.49 C61.758072,43.4337149 60.5745114,44.2896231 59.33,45.05 C58.0264021,45.8516687 56.64627,46.5216358 55.21,47.05 C53.5238759,47.6409022 51.7813344,48.0564313 50.01,48.29 C48.123816,48.5720083 46.206184,48.5720083 44.32,48.29 C42.6192305,48.0449196 40.9704739,47.5212366 39.44,46.74 C38.0705948,46.0439546 36.8588592,45.0738854 35.88,43.89 C34.9492644,42.7805448 34.3466569,41.4333361 34.14,40 C33.7492848,36.9579256 33.9840842,33.8681013 34.83,30.92 C35.8435699,27.3730173 37.3913069,24.0010411 39.42,20.92 C40.34,19.48 41.2966667,18.1 42.29,16.78 C43.2833333,15.46 44.25,14.27 45.19,13.21 C45.8566667,12.47 46.6033333,11.7133333 47.43,10.94 C48.2566667,10.1666667 49.1433333,9.41 50.09,8.67 C51.03,7.93666667 52,7.23666667 53,6.57 C54,5.90333333 55.0166667,5.28333333 56.05,4.71 C57.15,4.11 58.1966667,3.56666667 59.19,3.08 C60.1833333,2.59333333 61.1833333,2.17 62.19,1.81 C63.17,1.45 64.17,1.13333333 65.19,0.86 C66.2703202,0.582177113 67.3653735,0.365169603 68.47,0.21" stroke="none" fill="#A3007D" fill-rule="nonzero"></path>
                        <path d="M68.48,0.22 C69.2229613,0.111864088 69.9796995,0.145798537 70.71,0.32 C71.4229009,0.494405786 72.0997785,0.792231902 72.71,1.2 C73.3201102,1.60102817 73.8493165,2.11327271 74.27,2.71 C74.688324,3.30452405 74.9591207,3.9900853 75.06,4.71 C75.2475229,5.65576529 75.0259015,6.63671207 74.45,7.41 C73.7591657,8.19165261 72.790301,8.67249659 71.75,8.75 C71.2665799,8.824713 70.7722232,8.78008358 70.31,8.62 C69.8848251,8.47243454 69.4704825,8.29533647 69.07,8.09 L68,7.55 C67.6950198,7.38286283 67.345027,7.3163642 67,7.36 C65.7524083,7.56795859 64.5293714,7.90303717 63.35,8.36 C61.7473516,8.97535789 60.2070446,9.74216292 58.75,10.65 C57.1474802,11.6358105 55.631985,12.756541 54.22,14 C52.7685526,15.2504441 51.3927886,16.5861373 50.1,18 C48.7743397,19.46422 47.5640551,21.0288973 46.48,22.68 C45.3990683,24.3003957 44.4269297,25.990781 43.57,27.74 C43.2393118,28.4495411 42.9683729,29.1854246 42.76,29.94 C42.5166796,30.7928846 42.3329038,31.6616426 42.21,32.54 C42.0767219,33.4676525 42.003237,34.4029157 41.99,35.34 C41.9755532,36.2832756 42.0357409,37.2262162 42.17,38.16 C42.2543047,38.9806664 42.6475511,39.7385594 43.27,40.28 C43.8846713,40.790542 44.600311,41.1654009 45.37,41.38 C46.1707275,41.6058248 46.9980627,41.7235351 47.83,41.73 C48.5619988,41.7463217 49.2941669,41.7062029 50.02,41.61 C51.2435462,41.4257441 52.443763,41.1106034 53.6,40.67 C54.8691453,40.2042248 56.1024485,39.6460632 57.29,39 C58.5112361,38.3314182 59.6871141,37.5831322 60.81,36.76 C61.867748,35.9803757 62.870153,35.1283314 63.81,34.21 C64.0366667,33.9766667 64.37,33.6033333 64.81,33.09 C65.2349188,32.5609378 65.6321187,32.0101984 66,31.44 C66.3655172,30.8894409 66.6993908,30.318517 67,29.73 C67.2342897,29.3376644 67.352207,28.886804 67.34,28.43 C67.3072722,28.2218126 67.2536686,28.0174488 67.18,27.82 C67.1,27.59 66.96,27.55 66.88,27.32 C66.88,27.32 65.66,26.79 65.45,26.67 C64.14,25.96 64.51,26.34 63.12,25.54 C61.73,24.74 62.54,21.93 65,21.54 C65.63,21.45 71.22,23.39 71.86,23.6 C72.4808158,23.7975518 73.0726538,24.0766572 73.62,24.43 C74.1151812,24.7452514 74.5687414,25.1215383 74.97,25.55 C75.2667009,25.8238855 75.4901536,26.167659 75.62,26.55 C75.5905303,26.7881533 75.5369213,27.0226928 75.46,27.25 C75.3466667,27.6566667 75.1966667,28.1566667 75.01,28.75 C74.8233333,29.3433333 74.6166667,29.98 74.39,30.66 L73.76,32.58 L73.24,34.12 C73.0933333,34.5533333 73.0066667,34.8233333 72.98,34.93 C72.7866667,35.6833333 72.5933333,36.5866667 72.4,37.64 C72.2066667,38.6933333 72.04,39.7466667 71.9,40.8 C71.76,41.8533333 71.6666667,42.8533333 71.62,43.8 C71.62,44.72 71.36,47.98 70.87,48.26 C67.97,51.09 64.87,48.75 64.73,48.06 C64.6815623,47.4918928 64.7118486,46.9198172 64.82,46.36 C64.9333333,45.62 65.08,44.83 65.26,43.99 C65.44,43.15 65.6333333,42.3166667 65.84,41.49 C66.0466667,40.67 66.21,40.0033333 66.33,39.49 C65.1366667,40.5633333 63.9833333,41.5633333 62.87,42.49 C61.758072,43.4337149 60.5745114,44.2896231 59.33,45.05 C58.0264021,45.8516687 56.64627,46.5216358 55.21,47.05 C53.5238759,47.6409022 51.7813344,48.0564313 50.01,48.29 C48.123816,48.5720083 46.206184,48.5720083 44.32,48.29 C42.6192305,48.0449196 40.9704739,47.5212366 39.44,46.74 C38.0705948,46.0439546 36.8588592,45.0738854 35.88,43.89 C34.9492644,42.7805448 34.3466569,41.4333361 34.14,40 C33.7492848,36.9579256 33.9840842,33.8681013 34.83,30.92 C35.8435699,27.3730173 37.3913069,24.0010411 39.42,20.92 C40.34,19.48 41.2966667,18.1 42.29,16.78 C43.2833333,15.46 44.25,14.27 45.19,13.21 C45.8566667,12.47 46.6033333,11.7133333 47.43,10.94 C48.2566667,10.1666667 49.1433333,9.41 50.09,8.67 C51.03,7.93666667 52,7.23666667 53,6.57 C54,5.90333333 55.0166667,5.28333333 56.05,4.71 C57.15,4.11 58.1966667,3.56666667 59.19,3.08 C60.1833333,2.59333333 61.1833333,2.17 62.19,1.81 C63.17,1.45 64.17,1.13333333 65.19,0.86 C66.2738056,0.585176344 67.3722056,0.371505824 68.48,0.22 Z" stroke="#A3007D" stroke-width="1.29" fill="none"></path>
                        <path d="M105,21.22 C105.085946,21.7965376 105.139364,22.3774569 105.16,22.96 C105.17405,23.4812905 105.147301,24.0028813 105.08,24.52 C105.011403,25.0415258 104.914595,25.5589512 104.79,26.07 C104.663333,26.59 104.503333,27.1666667 104.31,27.8 C104.008771,28.737893 103.592251,29.634754 103.07,30.47 C102.417873,31.5442732 101.689327,32.5702533 100.89,33.54 C99.9959034,34.6296194 99.0410532,35.6679355 98.03,36.65 C96.99401,37.6632191 95.8879397,38.6022092 94.72,39.46 C93.6156298,40.2786808 92.4410595,40.9981469 91.21,41.61 C90.1223296,42.1599297 88.9545984,42.5345486 87.75,42.72 C86.4495409,42.9362654 85.1184413,42.8817958 83.84,42.56 C82.7510898,42.2773525 81.7306196,41.7773221 80.84,41.09 C80.013299,40.4381871 79.3320502,39.6206885 78.84,38.69 C78.3377085,37.775841 77.9992703,36.7808329 77.84,35.75 C77.693782,34.6314248 77.693782,33.4985752 77.84,32.38 C78.0021519,31.0309469 78.2560738,29.6945159 78.6,28.38 C78.9387794,27.0630102 79.3459989,25.7645809 79.82,24.49 C80.2070218,23.416055 80.6819652,22.3758619 81.24,21.38 C81.8474701,20.3302464 82.5648358,19.3480588 83.38,18.45 C84.2828669,17.4565161 85.2884831,16.5615177 86.38,15.78 C87.5128599,14.9516239 88.7295225,14.2444178 90.01,13.67 C91.3300793,13.0769966 92.7271552,12.6730229 94.16,12.47 C95.3537043,12.3073009 96.5688775,12.4236837 97.71,12.81 C98.912855,13.1984949 100.037027,13.7978277 101.03,14.58 C102.050619,15.3839965 102.920731,16.3624493 103.6,17.47 C104.304299,18.5987468 104.764187,19.862586 104.95,21.18 M98.72,22.74 C98.5930499,21.2802872 97.8960413,19.9293839 96.78,18.98 C95.5728196,18.1109834 94.0550869,17.7914608 92.6,18.1 C91.9663884,18.2086601 91.3709576,18.4771203 90.87,18.88 C90.2632186,19.3364541 89.7097354,19.8597473 89.22,20.44 C88.7039936,21.0462424 88.2263953,21.6841535 87.79,22.35 C87.35,23.0166667 86.9866667,23.61 86.7,24.13 C86.3574101,24.8109702 86.0568474,25.512283 85.8,26.23 C85.4854798,27.138836 85.2184523,28.0634187 85,29 C84.7563617,29.934537 84.569355,30.8829283 84.44,31.84 C84.3274517,32.6628359 84.3274517,33.4971641 84.44,34.32 C84.4960555,34.6701402 84.6110149,35.0082559 84.78,35.32 C84.9533434,35.6511942 85.1796609,35.951825 85.45,36.21 C85.7138125,36.4569928 86.0182831,36.6565902 86.35,36.8 C86.6842131,36.9416476 87.0514628,36.9866877 87.41,36.93 C88.1351496,36.7859641 88.8313072,36.5223704 89.47,36.15 C90.3751405,35.6550046 91.2380477,35.0864223 92.05,34.45 C92.9900474,33.7186507 93.8726342,32.916299 94.69,32.05 C95.546302,31.1543389 96.3163673,30.1800389 96.99,29.14 C97.6351171,28.1554799 98.1462751,27.0894463 98.51,25.97 C98.852653,24.9331774 98.9518848,23.8313618 98.8,22.75" stroke="none" fill="#A3007D" fill-rule="nonzero"></path>
                        <path d="M105,21.22 C105.085946,21.7965376 105.139364,22.3774569 105.16,22.96 C105.17405,23.4812905 105.147301,24.0028813 105.08,24.52 C105.011403,25.0415258 104.914595,25.5589512 104.79,26.07 C104.663333,26.59 104.503333,27.1666667 104.31,27.8 C104.008771,28.737893 103.592251,29.634754 103.07,30.47 C102.417873,31.5442732 101.689327,32.5702533 100.89,33.54 C99.9959034,34.6296194 99.0410532,35.6679355 98.03,36.65 C96.99401,37.6632191 95.8879397,38.6022092 94.72,39.46 C93.6156298,40.2786808 92.4410595,40.9981469 91.21,41.61 C90.1223296,42.1599297 88.9545984,42.5345486 87.75,42.72 C86.4495409,42.9362654 85.1184413,42.8817958 83.84,42.56 C82.7510898,42.2773525 81.7306196,41.7773221 80.84,41.09 C80.013299,40.4381871 79.3320502,39.6206885 78.84,38.69 C78.3377085,37.775841 77.9992703,36.7808329 77.84,35.75 C77.693782,34.6314248 77.693782,33.4985752 77.84,32.38 C78.0021519,31.0309469 78.2560738,29.6945159 78.6,28.38 C78.9387794,27.0630102 79.3459989,25.7645809 79.82,24.49 C80.2070218,23.416055 80.6819652,22.3758619 81.24,21.38 C81.8474701,20.3302464 82.5648358,19.3480588 83.38,18.45 C84.2828669,17.4565161 85.2884831,16.5615177 86.38,15.78 C87.5128599,14.9516239 88.7295225,14.2444178 90.01,13.67 C91.3300793,13.0769966 92.7271552,12.6730229 94.16,12.47 C95.3537043,12.3073009 96.5688775,12.4236837 97.71,12.81 C98.912855,13.1984949 100.037027,13.7978277 101.03,14.58 C102.050619,15.3839965 102.920731,16.3624493 103.6,17.47 C104.327152,18.6066576 104.804366,19.8849088 105,21.22 Z M98.77,22.78 C98.6430499,21.3202872 97.9460413,19.9693839 96.83,19.02 C95.6228196,18.1509834 94.1050869,17.8314608 92.65,18.14 C92.0163884,18.2486601 91.4209576,18.5171203 90.92,18.92 C90.3132186,19.3764541 89.7597354,19.8997473 89.27,20.48 C88.7539936,21.0862424 88.2763953,21.7241535 87.84,22.39 C87.4,23.0566667 87.0366667,23.65 86.75,24.17 C86.4074101,24.8509702 86.1068474,25.552283 85.85,26.27 C85.5199085,27.1647774 85.2361981,28.0759884 85,29 C84.7563617,29.934537 84.569355,30.8829283 84.44,31.84 C84.3274517,32.6628359 84.3274517,33.4971641 84.44,34.32 C84.4960555,34.6701402 84.6110149,35.0082559 84.78,35.32 C84.9533434,35.6511942 85.1796609,35.951825 85.45,36.21 C85.7138125,36.4569928 86.0182831,36.6565902 86.35,36.8 C86.6842131,36.9416476 87.0514628,36.9866877 87.41,36.93 C88.1351496,36.7859641 88.8313072,36.5223704 89.47,36.15 C90.3751405,35.6550046 91.2380477,35.0864223 92.05,34.45 C92.9900474,33.7186507 93.8726342,32.916299 94.69,32.05 C95.546302,31.1543389 96.3163673,30.1800389 96.99,29.14 C97.6351171,28.1554799 98.1462751,27.0894463 98.51,25.97 C98.8480496,24.942567 98.947233,23.8515496 98.8,22.78 L98.77,22.78 Z" stroke="#A3007D" stroke-width="1.29" fill="none"></path>
                        <path d="M80.49,53.3 C67.3,52.17 58.55,54.19 45.31,59.71 C30.12,66.05 40.62,66.56 44.94,65.13 C49.26,63.7 67.32,57.88 81.53,59.37 C92.53,60.52 102.6,55.19 80.53,53.3" stroke="none" fill="#7A6A56" fill-rule="nonzero"></path>
                        <path d="M75.64,61.16 C75.6359531,62.7423511 76.5860238,64.1711452 78.0467657,64.779491 C79.5075076,65.3878368 81.1909058,65.0557866 82.3112324,63.9383253 C83.431559,62.820864 83.7679189,61.1383216 83.1633158,59.6760266 C82.5587127,58.2137317 81.1323563,57.2600052 79.55,57.26 C77.3944659,57.259993 75.6455129,59.0044729 75.64,61.16" stroke="none" fill="#7A6A56" fill-rule="nonzero"></path>
                        <path d="M49.17,64.55 C49.17,66.7094334 50.9205666,68.46 53.08,68.46 C55.2394334,68.46 56.99,66.7094334 56.99,64.55 C56.99,62.3905666 55.2394334,60.64 53.08,60.64 C50.9205666,60.64 49.17,62.3905666 49.17,64.55" stroke="none" fill="#7A6A56" fill-rule="nonzero"></path>
                        <path d="M34.26,51.17 C31.08,40 19,24.48 7.71,14.37 C-3.58,4.26 0.76,16.19 8.28,23.67 C15.8,31.15 25,44 31.15,56.58 C37.3,69.16 35.97,57.19 34.26,51.17" stroke="none" fill="#7A6A56" fill-rule="nonzero"></path>
                        <path d="M171.06,168.57 C163.966939,167.559341 157.215148,164.879188 151.36,160.75 L169.9,160.75 L170.06,160.75 C170.79,160.75 170.93,160.31 170.95,160.04 L170.95,155.25 C170.95,155 170.78,154.56 170.06,154.56 L144.62,154.56 C144.76,153.94 144.88,153.34 144.99,152.73 C145.05,152.39 145.14,151.73 144.21,151.73 L137.46,151.73 C136.963683,151.67731 136.517543,152.034222 136.46,152.53 C136.29,153.24 136.12,153.93 135.92,154.53 L115.15,154.53 C114.75979,154.499058 114.411405,154.773411 114.35,155.16 L114.35,160 C114.35,160.26 114.5,160.67 115.23,160.68 L133.32,160.68 C131.71,164.27 120.63,169 113.71,169.07 C113.430454,169.125101 113.214902,169.348636 113.17,169.63 L113.17,174.22 C113.17,175.45 114.17,175.33 114.72,175.27 C125.64,173.91 135.65,170.6 141.72,161.63 C149.25,169.84 161.46,174.2 170.93,175.19 C171.35,175.19 172.21,175.36 172.21,174.07 C172.21,172.55 172.21,170.68 172.21,169.96 C172.273967,169.246349 171.75271,168.613713 171.04,168.54" stroke="none" fill="#231815" fill-rule="nonzero"></path>
                        <path d="M172.23,144.71 C172.233271,144.663391 172.233271,144.616609 172.23,144.57 C172.230469,144.364761 172.14568,144.168546 171.995891,144.028238 C171.846102,143.88793 171.64477,143.816132 171.44,143.83 L146.51,143.83 L146.51,140.1 L169.23,140.1 C169.9,140.1 170.07,139.72 170.11,139.45 L170.11,134.55 C170.11,134.29 169.96,133.84 169.23,133.83 L146.51,133.83 L146.51,130.12 L171.39,130.12 C171.586367,130.133718 171.780108,130.068634 171.928365,129.939143 C172.076623,129.809652 172.167178,129.626428 172.18,129.43 L172.18,124.49 C172.18,124.24 172.03,123.81 171.37,123.78 L161.88,123.78 L161.88,119.78 L161.88,119.65 C161.88,119.39 161.74,118.92 160.99,118.92 L154.17,118.92 C153.58,118.92 153.38,119.21 153.31,119.47 L153.31,123.8 L133.19,123.8 L133.19,119.8 L133.19,119.67 C133.19,119.41 133.05,118.94 132.3,118.94 L125.49,118.94 C124.89,118.94 124.7,119.23 124.63,119.49 L124.63,123.82 L114,123.82 C113,123.82 113.11,124.72 113.11,124.72 L113.11,129.28 C113.078356,129.499045 113.142494,129.721115 113.286053,129.889557 C113.429612,130.057999 113.638709,130.156525 113.86,130.16 L139,130.16 L139,133.87 L116.2,133.87 C115.54,133.87 115.36,134.23 115.32,134.49 L115.32,139.49 C115.32,139.76 115.51,140.16 116.19,140.16 L139,140.16 L139,143.89 L114.15,143.89 C113.44,143.89 113.29,144.32 113.27,144.59 L113.27,149.19 L113.27,149.32 C113.27,149.58 113.41,150.05 114.16,150.05 L171.4,150.05 C172.08,150.05 172.21,149.58 172.22,149.33 L172.22,144.73 L172.23,144.71 Z" stroke="none" fill="#231815" fill-rule="nonzero"></path>
                        <path d="M187.11,127.39 L235,127.39 C235.73,127.39 235.88,126.94 235.9,126.68 L235.9,122.25 C235.824686,121.871323 235.474189,121.611696 235.09,121.65 L213.41,121.65 L213.41,119.09 C213.41,118.82 213.22,118.41 212.52,118.4 L206.33,118.4 C205.62,118.4 205.47,118.83 205.44,119.09 L205.44,121.65 L181.44,121.65 C181.117516,121.614726 180.796442,121.727661 180.567052,121.957052 C180.337661,122.186442 180.224726,122.507516 180.26,122.83 L180.26,143.83 C180.26,162.76 178.13,165.4 176.48,167.93 C176.102883,168.389817 175.916737,168.976892 175.96,169.57 L175.96,174.89 C175.96,176.34 177.29,175.67 177.41,175.62 C180.41,174.4 187.14,167.71 187.14,147.33 L187.11,127.39 Z" stroke="none" fill="#231815" fill-rule="nonzero"></path>
                        <path d="M234,169 C229.42,166.7 225.4,162.19 223.76,160.52 L230.25,160.52 C230.96,160.52 231.12,160.11 231.15,159.83 L231.15,152.15 L235.15,152.15 C235.87,152.15 236.01,151.68 236.02,151.42 L236.02,151.24 L236.02,147.47 C236.004795,147.266299 235.908232,147.077294 235.752083,146.945602 C235.595934,146.81391 235.393346,146.750619 235.19,146.77 L231.13,146.77 L231.13,139.71 C231.098028,139.303484 230.747122,138.996997 230.34,139.02 L219.8,139.02 L219.8,136.64 L233.06,136.64 C233.81,136.64 233.95,136.17 233.96,135.9 L233.96,131.81 C233.889468,131.431447 233.54372,131.167814 233.16,131.2 L223,131.2 L223.52,129.91 C223.52,129.91 224.08,128.78 222.95,128.78 L217.8,128.78 C217.263793,128.767731 216.7768,129.091063 216.58,129.59 L215.95,131.2 L204.24,131.2 L204.76,129.91 C204.76,129.91 205.32,128.78 204.19,128.78 L199,128.78 C198.462937,128.764755 197.974389,129.089118 197.78,129.59 L197.14,131.2 L189.55,131.2 L189.34,131.2 C188.69,131.2 188.5,131.55 188.45,131.83 L188.45,136 C188.5,136.27 188.69,136.63 189.34,136.63 L200.52,136.63 L200.52,139.01 L191.21,139.01 C190.846618,138.990941 190.52198,139.235473 190.44,139.59 L190.44,143.81 C190.52702,144.147049 190.831904,144.381892 191.18,144.38 L200.52,144.38 L200.52,146.76 L188.84,146.76 C188.19,146.76 187.99,147.12 187.94,147.39 L187.94,151.2 C187.94,151.2 187.8,152.12 188.85,152.12 L189.02,152.12 L200.52,152.12 L200.52,155.06 L191.23,155.06 C190.848183,155.038473 190.50984,155.304008 190.44,155.68 L190.44,159.57 C190.44,159.57 190.3,160.48 191.34,160.48 L191.49,160.48 L196.49,160.48 C193.753476,163.611884 190.577061,166.330194 187.06,168.55 C186.512044,168.806774 186.181167,169.376838 186.23,169.98 L186.23,174.44 C186.23,175.44 187.12,175.02 187.59,174.83 C192.49,172.94 199.08,167.12 200.4,164.83 L200.53,174.83 C200.53,175.54 200.97,175.69 201.24,175.71 L206.81,175.71 C207.07,175.66 207.4,175.46 207.4,174.82 C207.4,174.82 207.4,174.76 207.4,174.73 L207.4,160.57 L212.78,160.57 L212.78,175.17 C212.796588,175.494513 213.031358,175.766352 213.35,175.83 L219.2,175.83 C219.46,175.78 219.79,175.58 219.79,174.96 L219.79,164.89 C221.7,166.96 228.13,173.17 233.52,175.12 C234.13,175.36 234.9,175.47 234.9,174.45 C234.9,172.53 234.9,170.95 234.9,170.54 C234.971586,169.864376 234.551186,169.233776 233.9,169.04 L234,169 Z M212.71,155.12 L207.33,155.12 L207.33,152.18 L212.71,152.18 L212.71,155.12 Z M212.71,146.8 L207.33,146.8 L207.33,144.42 L212.71,144.42 L212.71,146.8 Z M212.71,139.05 L207.33,139.05 L207.33,136.67 L212.71,136.67 L212.71,139.05 Z M219.71,144.42 L224.03,144.42 L224.03,146.8 L219.8,146.8 L219.71,144.42 Z M219.71,152.18 L224.03,152.18 L224.03,155.12 L219.8,155.12 L219.71,152.18 Z" stroke="none" fill="#231815" fill-rule="nonzero"></path>
                        <path d="M68.48,118 C69.2229613,117.891864 69.9796995,117.925799 70.71,118.1 C71.4229009,118.274406 72.0997785,118.572232 72.71,118.98 C73.3201102,119.381028 73.8493165,119.893273 74.27,120.49 C74.688324,121.084524 74.9591207,121.770085 75.06,122.49 C75.2475229,123.435765 75.0259015,124.416712 74.45,125.19 C73.7591657,125.971653 72.790301,126.452497 71.75,126.53 C71.2665799,126.604713 70.7722232,126.560084 70.31,126.4 C69.8848369,126.252404 69.4704963,126.075307 69.07,125.87 L68,125.36 C67.6950198,125.192863 67.345027,125.126364 67,125.17 C65.7524083,125.377959 64.5293714,125.713037 63.35,126.17 C61.7473516,126.785358 60.2070446,127.552163 58.75,128.46 C57.1378713,129.438009 55.6123154,130.552066 54.19,131.79 C52.7385367,133.040427 51.3627716,134.376121 50.07,135.79 C48.7443397,137.25422 47.5340551,138.818897 46.45,140.47 C45.3690683,142.090396 44.3969297,143.780781 43.54,145.53 C43.2093118,146.239541 42.9383729,146.975425 42.73,147.73 C42.4866796,148.582885 42.3029038,149.451643 42.18,150.33 C42.0467219,151.257652 41.973237,152.192916 41.96,153.13 C41.9455532,154.073276 42.0057409,155.016216 42.14,155.95 C42.2243047,156.770666 42.6175511,157.528559 43.24,158.07 C43.8546713,158.580542 44.570311,158.955401 45.34,159.17 C46.1407275,159.395825 46.9680627,159.513535 47.8,159.52 C48.5319988,159.536322 49.2641669,159.496203 49.99,159.4 C51.2135462,159.215744 52.413763,158.900603 53.57,158.46 C54.8397118,157.987755 56.0730286,157.422903 57.26,156.77 C58.4812361,156.101418 59.6571141,155.353132 60.78,154.53 C61.837748,153.750376 62.840153,152.898331 63.78,151.98 C64.0066667,151.746667 64.34,151.373333 64.78,150.86 C65.2140283,150.344627 65.621234,149.807249 66,149.25 C66.3655172,148.699441 66.6993908,148.128517 67,147.54 C67.2342897,147.147664 67.352207,146.696804 67.34,146.24 C67.3072722,146.031813 67.2536686,145.827449 67.18,145.63 C67.1,145.4 66.96,145.36 66.88,145.13 C66.88,145.13 65.66,144.6 65.45,144.48 C64.14,143.77 64.51,144.15 63.12,143.35 C61.73,142.55 62.54,139.74 65,139.35 C65.63,139.26 71.22,141.2 71.86,141.41 C72.4808158,141.607552 73.0726538,141.886657 73.62,142.24 C74.1151812,142.555251 74.5687414,142.931538 74.97,143.36 C75.2667009,143.633886 75.4901536,143.977659 75.62,144.36 C75.5905303,144.598153 75.5369213,144.832693 75.46,145.06 C75.3466667,145.466667 75.1966667,145.966667 75.01,146.56 C74.8233333,147.153333 74.6166667,147.79 74.39,148.47 L73.76,150.39 L73.22,152 C73.0733333,152.433333 72.9866667,152.703333 72.96,152.81 C72.7666667,153.563333 72.5733333,154.466667 72.38,155.52 C72.1866667,156.573333 72.02,157.626667 71.88,158.68 C71.74,159.733333 71.6466667,160.733333 71.6,161.68 C71.6,162.6 71.34,165.86 70.85,166.14 C67.95,168.97 64.85,166.63 64.71,165.94 C64.6615623,165.371893 64.6918486,164.799817 64.8,164.24 C64.9133333,163.5 65.06,162.71 65.24,161.87 C65.42,161.03 65.6133333,160.196667 65.82,159.37 C66.0266667,158.55 66.19,157.883333 66.31,157.37 C65.1166667,158.443333 63.9633333,159.443333 62.85,160.37 C61.738072,161.313715 60.5545114,162.169623 59.31,162.93 C58.0064021,163.731669 56.62627,164.401636 55.19,164.93 C53.5038759,165.520902 51.7613344,165.936431 49.99,166.17 C48.103816,166.452008 46.186184,166.452008 44.3,166.17 C42.5992305,165.92492 40.9504739,165.401237 39.42,164.62 C38.0505948,163.923955 36.8388592,162.953885 35.86,161.77 C34.9364747,160.658266 34.3408823,159.311257 34.14,157.88 C33.7492848,154.837926 33.9840842,151.748101 34.83,148.8 C35.8435699,145.253017 37.3913069,141.881041 39.42,138.8 C40.34,137.36 41.2966667,135.98 42.29,134.66 C43.2833333,133.34 44.25,132.15 45.19,131.09 C45.8566667,130.35 46.6033333,129.593333 47.43,128.82 C48.2566667,128.046667 49.1433333,127.29 50.09,126.55 C51.03,125.81 52.0033333,125.106667 53.01,124.44 C54.0166667,123.773333 55.0333333,123.153333 56.06,122.58 C57.16,121.98 58.2066667,121.436667 59.2,120.95 C60.1933333,120.463333 61.1933333,120.04 62.2,119.68 C63.18,119.32 64.18,119.003333 65.2,118.73 C66.2803202,118.452177 67.3753735,118.23517 68.48,118.08" stroke="none" fill="#231815" fill-rule="nonzero"></path>
                        <path d="M68.48,118 C69.2229613,117.891864 69.9796995,117.925799 70.71,118.1 C71.4229009,118.274406 72.0997785,118.572232 72.71,118.98 C73.3201102,119.381028 73.8493165,119.893273 74.27,120.49 C74.688324,121.084524 74.9591207,121.770085 75.06,122.49 C75.2475229,123.435765 75.0259015,124.416712 74.45,125.19 C73.7591657,125.971653 72.790301,126.452497 71.75,126.53 C71.2665799,126.604713 70.7722232,126.560084 70.31,126.4 C69.8848369,126.252404 69.4704963,126.075307 69.07,125.87 L68,125.36 C67.6950198,125.192863 67.345027,125.126364 67,125.17 C65.7524083,125.377959 64.5293714,125.713037 63.35,126.17 C61.7473516,126.785358 60.2070446,127.552163 58.75,128.46 C57.1378713,129.438009 55.6123154,130.552066 54.19,131.79 C52.7385367,133.040427 51.3627716,134.376121 50.07,135.79 C48.7443397,137.25422 47.5340551,138.818897 46.45,140.47 C45.3690683,142.090396 44.3969297,143.780781 43.54,145.53 C43.2093118,146.239541 42.9383729,146.975425 42.73,147.73 C42.4866796,148.582885 42.3029038,149.451643 42.18,150.33 C42.0467219,151.257652 41.973237,152.192916 41.96,153.13 C41.9455532,154.073276 42.0057409,155.016216 42.14,155.95 C42.2243047,156.770666 42.6175511,157.528559 43.24,158.07 C43.8546713,158.580542 44.570311,158.955401 45.34,159.17 C46.1407275,159.395825 46.9680627,159.513535 47.8,159.52 C48.5319988,159.536322 49.2641669,159.496203 49.99,159.4 C51.2135462,159.215744 52.413763,158.900603 53.57,158.46 C54.8397118,157.987755 56.0730286,157.422903 57.26,156.77 C58.4812361,156.101418 59.6571141,155.353132 60.78,154.53 C61.837748,153.750376 62.840153,152.898331 63.78,151.98 C64.0066667,151.746667 64.34,151.373333 64.78,150.86 C65.2140283,150.344627 65.621234,149.807249 66,149.25 C66.3655172,148.699441 66.6993908,148.128517 67,147.54 C67.2342897,147.147664 67.352207,146.696804 67.34,146.24 C67.3072722,146.031813 67.2536686,145.827449 67.18,145.63 C67.1,145.4 66.96,145.36 66.88,145.13 C66.88,145.13 65.66,144.6 65.45,144.48 C64.14,143.77 64.51,144.15 63.12,143.35 C61.73,142.55 62.54,139.74 65,139.35 C65.63,139.26 71.22,141.2 71.86,141.41 C72.4808158,141.607552 73.0726538,141.886657 73.62,142.24 C74.1151812,142.555251 74.5687414,142.931538 74.97,143.36 C75.2667009,143.633886 75.4901536,143.977659 75.62,144.36 C75.5905303,144.598153 75.5369213,144.832693 75.46,145.06 C75.3466667,145.466667 75.1966667,145.966667 75.01,146.56 C74.8233333,147.153333 74.6166667,147.79 74.39,148.47 L73.76,150.39 L73.22,152 C73.0733333,152.433333 72.9866667,152.703333 72.96,152.81 C72.7666667,153.563333 72.5733333,154.466667 72.38,155.52 C72.1866667,156.573333 72.02,157.626667 71.88,158.68 C71.74,159.733333 71.6466667,160.733333 71.6,161.68 C71.6,162.6 71.34,165.86 70.85,166.14 C67.95,168.97 64.85,166.63 64.71,165.94 C64.6615623,165.371893 64.6918486,164.799817 64.8,164.24 C64.9133333,163.5 65.06,162.71 65.24,161.87 C65.42,161.03 65.6133333,160.196667 65.82,159.37 C66.0266667,158.55 66.19,157.883333 66.31,157.37 C65.1166667,158.443333 63.9633333,159.443333 62.85,160.37 C61.738072,161.313715 60.5545114,162.169623 59.31,162.93 C58.0064021,163.731669 56.62627,164.401636 55.19,164.93 C53.5038759,165.520902 51.7613344,165.936431 49.99,166.17 C48.103816,166.452008 46.186184,166.452008 44.3,166.17 C42.5992305,165.92492 40.9504739,165.401237 39.42,164.62 C38.0505948,163.923955 36.8388592,162.953885 35.86,161.77 C34.9364747,160.658266 34.3408823,159.311257 34.14,157.88 C33.7492848,154.837926 33.9840842,151.748101 34.83,148.8 C35.8435699,145.253017 37.3913069,141.881041 39.42,138.8 C40.34,137.36 41.2966667,135.98 42.29,134.66 C43.2833333,133.34 44.25,132.15 45.19,131.09 C45.8566667,130.35 46.6033333,129.593333 47.43,128.82 C48.2566667,128.046667 49.1433333,127.29 50.09,126.55 C51.03,125.81 52.0033333,125.106667 53.01,124.44 C54.0166667,123.773333 55.0333333,123.153333 56.06,122.58 C57.16,121.98 58.2066667,121.436667 59.2,120.95 C60.1933333,120.463333 61.1933333,120.04 62.2,119.68 C63.18,119.32 64.18,119.003333 65.2,118.73 C66.2787486,118.425231 67.3738189,118.181511 68.48,118 Z" stroke="#231815" stroke-width="1.29" fill="none"></path>
                        <path d="M105,139 C105.085946,139.576538 105.139364,140.157457 105.16,140.74 C105.17405,141.26129 105.147301,141.782881 105.08,142.3 C105.011403,142.821526 104.914595,143.338951 104.79,143.85 C104.663333,144.37 104.503333,144.946667 104.31,145.58 C104.008771,146.517893 103.592251,147.414754 103.07,148.25 C102.417873,149.324273 101.689327,150.350253 100.89,151.32 C99.9959034,152.409619 99.0410532,153.447935 98.03,154.43 C96.99401,155.443219 95.8879397,156.382209 94.72,157.24 C93.6156298,158.058681 92.4410595,158.778147 91.21,159.39 C90.1223296,159.93993 88.9545984,160.314549 87.75,160.5 C86.4495409,160.716265 85.1184413,160.661796 83.84,160.34 C82.7510898,160.057353 81.7306196,159.557322 80.84,158.87 C80.013299,158.218187 79.3320502,157.400689 78.84,156.47 C78.3377085,155.555841 77.9992703,154.560833 77.84,153.53 C77.693782,152.411425 77.693782,151.278575 77.84,150.16 C78.0021519,148.810947 78.2560738,147.474516 78.6,146.16 C78.9387794,144.84301 79.3459989,143.544581 79.82,142.27 C80.2070218,141.196055 80.6819652,140.155862 81.24,139.16 C81.8474701,138.110246 82.5648358,137.128059 83.38,136.23 C84.2828669,135.236516 85.2884831,134.341518 86.38,133.56 C87.5128599,132.731624 88.7295225,132.024418 90.01,131.45 C91.3300793,130.856997 92.7271552,130.453023 94.16,130.25 C95.3537043,130.087301 96.5688775,130.203684 97.71,130.59 C98.912855,130.978495 100.037027,131.577828 101.03,132.36 C102.050619,133.163997 102.920731,134.142449 103.6,135.25 C104.327152,136.386658 104.804366,137.664909 105,139 M98.77,140.56 C98.6430499,139.100287 97.9460413,137.749384 96.83,136.8 C95.6228196,135.930983 94.1050869,135.611461 92.65,135.92 C92.0163884,136.02866 91.4209576,136.29712 90.92,136.7 C90.3132186,137.156454 89.7597354,137.679747 89.27,138.26 C88.7539936,138.866242 88.2763953,139.504153 87.84,140.17 C87.4,140.836667 87.0366667,141.43 86.75,141.95 C86.4074101,142.63097 86.1068474,143.332283 85.85,144.05 C85.5192507,144.951334 85.2355353,145.869237 85,146.8 C84.7563617,147.734537 84.569355,148.682928 84.44,149.64 C84.3274517,150.462836 84.3274517,151.297164 84.44,152.12 C84.4960555,152.47014 84.6110149,152.808256 84.78,153.12 C84.9533434,153.451194 85.1796609,153.751825 85.45,154.01 C85.7138125,154.256993 86.0182831,154.45659 86.35,154.6 C86.6842131,154.741648 87.0514628,154.786688 87.41,154.73 C88.1351496,154.585964 88.8313072,154.32237 89.47,153.95 C90.3751405,153.455005 91.2380477,152.886422 92.05,152.25 C92.9900474,151.518651 93.8726342,150.716299 94.69,149.85 C95.5467988,148.973765 96.3201375,148.019646 97,147 C97.6451171,146.01548 98.1562751,144.949446 98.52,143.83 C98.862653,142.793177 98.9618848,141.691362 98.81,140.61" stroke="none" fill="#231815" fill-rule="nonzero"></path>
                        <path d="M105,139 C105.085946,139.576538 105.139364,140.157457 105.16,140.74 C105.17405,141.26129 105.147301,141.782881 105.08,142.3 C105.011403,142.821526 104.914595,143.338951 104.79,143.85 C104.663333,144.37 104.503333,144.946667 104.31,145.58 C104.008771,146.517893 103.592251,147.414754 103.07,148.25 C102.417873,149.324273 101.689327,150.350253 100.89,151.32 C99.9959034,152.409619 99.0410532,153.447935 98.03,154.43 C96.99401,155.443219 95.8879397,156.382209 94.72,157.24 C93.6156298,158.058681 92.4410595,158.778147 91.21,159.39 C90.1223296,159.93993 88.9545984,160.314549 87.75,160.5 C86.4495409,160.716265 85.1184413,160.661796 83.84,160.34 C82.7510898,160.057353 81.7306196,159.557322 80.84,158.87 C80.013299,158.218187 79.3320502,157.400689 78.84,156.47 C78.3377085,155.555841 77.9992703,154.560833 77.84,153.53 C77.693782,152.411425 77.693782,151.278575 77.84,150.16 C78.0021519,148.810947 78.2560738,147.474516 78.6,146.16 C78.9387794,144.84301 79.3459989,143.544581 79.82,142.27 C80.2070218,141.196055 80.6819652,140.155862 81.24,139.16 C81.8474701,138.110246 82.5648358,137.128059 83.38,136.23 C84.2828669,135.236516 85.2884831,134.341518 86.38,133.56 C87.5128599,132.731624 88.7295225,132.024418 90.01,131.45 C91.3300793,130.856997 92.7271552,130.453023 94.16,130.25 C95.3537043,130.087301 96.5688775,130.203684 97.71,130.59 C98.912855,130.978495 100.037027,131.577828 101.03,132.36 C102.050619,133.163997 102.920731,134.142449 103.6,135.25 C104.327152,136.386658 104.804366,137.664909 105,139 Z M98.77,140.56 C98.6430499,139.100287 97.9460413,137.749384 96.83,136.8 C95.6228196,135.930983 94.1050869,135.611461 92.65,135.92 C92.0163884,136.02866 91.4209576,136.29712 90.92,136.7 C90.3132186,137.156454 89.7597354,137.679747 89.27,138.26 C88.7539936,138.866242 88.2763953,139.504153 87.84,140.17 C87.4,140.836667 87.0366667,141.43 86.75,141.95 C86.4074101,142.63097 86.1068474,143.332283 85.85,144.05 C85.5192507,144.951334 85.2355353,145.869237 85,146.8 C84.7563617,147.734537 84.569355,148.682928 84.44,149.64 C84.3274517,150.462836 84.3274517,151.297164 84.44,152.12 C84.4960555,152.47014 84.6110149,152.808256 84.78,153.12 C84.9533434,153.451194 85.1796609,153.751825 85.45,154.01 C85.7138125,154.256993 86.0182831,154.45659 86.35,154.6 C86.6842131,154.741648 87.0514628,154.786688 87.41,154.73 C88.1351496,154.585964 88.8313072,154.32237 89.47,153.95 C90.3751405,153.455005 91.2380477,152.886422 92.05,152.25 C92.9900474,151.518651 93.8726342,150.716299 94.69,149.85 C95.5467988,148.973765 96.3201375,148.019646 97,147 C97.6451171,146.01548 98.1562751,144.949446 98.52,143.83 C98.86239,142.786135 98.9582301,141.677128 98.8,140.59 L98.77,140.56 Z" stroke="#231815" stroke-width="1.29" fill="none"></path>
                        <path d="M34.26,169 C31.08,157.83 18.96,142.31 7.71,132.2 C-3.54,122.09 0.76,134.02 8.28,141.5 C15.8,148.98 25,161.82 31.15,174.39 C37.3,186.96 36,175 34.26,169" stroke="none" fill="#231815" fill-rule="nonzero"></path>
                    </g>
                </g>
            </g>
        </g>
    </g>
</svg>