<?xml version="1.0" encoding="UTF-8"?>
<svg width="250px" height="150px" viewBox="0 0 250 150" version="1.1" xmlns="http://www.w3.org/2000/svg" xmlns:xlink="http://www.w3.org/1999/xlink">
    <!-- Generator: Sketch 49.3 (51167) - http://www.bohemiancoding.com/sketch -->
    <title>photofast</title>
    <desc>Created with Sketch.</desc>
    <defs>
        <rect id="path-1" x="0" y="0" width="250" height="150"></rect>
        <polygon id="path-3" points="0 114 227 114 227 0 0 0"></polygon>
        <polygon id="path-5" points="0 114 227 114 227 0 0 0"></polygon>
        <polygon id="path-7" points="0 114 227 114 227 0 0 0"></polygon>
        <polygon id="path-9" points="0 114 227 114 227 0 0 0"></polygon>
        <polygon id="path-11" points="0 114 227 114 227 0 0 0"></polygon>
        <polygon id="path-13" points="0 114 227 114 227 0 0 0"></polygon>
        <polygon id="path-15" points="0 114 227 114 227 0 0 0"></polygon>
        <polygon id="path-17" points="0 114 227 114 227 0 0 0"></polygon>
        <polygon id="path-19" points="0 114 227 114 227 0 0 0"></polygon>
        <polygon id="path-21" points="0 114 227 114 227 0 0 0"></polygon>
        <polygon id="path-23" points="0 114 227 114 227 0 0 0"></polygon>
        <polygon id="path-25" points="0 114 227 114 227 0 0 0"></polygon>
        <polygon id="path-27" points="0 114 227 114 227 0 0 0"></polygon>
        <polygon id="path-29" points="0 114 227 114 227 0 0 0"></polygon>
        <polygon id="path-31" points="0 114 227 114 227 0 0 0"></polygon>
        <polygon id="path-33" points="0 114 227 114 227 0 0 0"></polygon>
        <polygon id="path-35" points="0 114 227 114 227 0 0 0"></polygon>
        <polygon id="path-37" points="0 114 227 114 227 0 0 0"></polygon>
        <polygon id="path-39" points="0 114 227 114 227 0 0 0"></polygon>
        <polygon id="path-41" points="0 114 227 114 227 0 0 0"></polygon>
        <polygon id="path-43" points="0 114 227 114 227 0 0 0"></polygon>
        <polygon id="path-45" points="0 114 227 114 227 0 0 0"></polygon>
        <polygon id="path-47" points="0 114 227 114 227 0 0 0"></polygon>
        <polygon id="path-49" points="0 114 227 114 227 0 0 0"></polygon>
        <polygon id="path-51" points="0 114 227 114 227 0 0 0"></polygon>
        <polygon id="path-53" points="0 114 227 114 227 0 0 0"></polygon>
        <polygon id="path-55" points="0 114 227 114 227 0 0 0"></polygon>
        <polygon id="path-57" points="0 114 227 114 227 0 0 0"></polygon>
        <polygon id="path-59" points="0 114 227 114 227 0 0 0"></polygon>
        <polygon id="path-61" points="0 114 227 114 227 0 0 0"></polygon>
        <polygon id="path-63" points="0 114 227 114 227 0 0 0"></polygon>
        <polygon id="path-65" points="0 114 227 114 227 0 0 0"></polygon>
        <polygon id="path-67" points="0 114 227 114 227 0 0 0"></polygon>
        <polygon id="path-69" points="0 114 227 114 227 0 0 0"></polygon>
        <polygon id="path-71" points="0 114 227 114 227 0 0 0"></polygon>
        <polygon id="path-73" points="0 114 227 114 227 0 0 0"></polygon>
        <polygon id="path-75" points="0 114 227 114 227 0 0 0"></polygon>
        <polygon id="path-77" points="0 114 227 114 227 0 0 0"></polygon>
        <polygon id="path-79" points="0 114 227 114 227 0 0 0"></polygon>
        <polygon id="path-81" points="0 114 227 114 227 0 0 0"></polygon>
        <polygon id="path-83" points="0 114 227 114 227 0 0 0"></polygon>
        <polygon id="path-85" points="0 114 227 114 227 0 0 0"></polygon>
        <polygon id="path-87" points="0 114 227 114 227 0 0 0"></polygon>
        <polygon id="path-89" points="0 114 227 114 227 0 0 0"></polygon>
    </defs>
    <g id="Page-1" stroke="none" stroke-width="1" fill="none" fill-rule="evenodd">
        <g id="photofast">
            <mask id="mask-2" fill="white">
                <use xlink:href="#path-1"></use>
            </mask>
            <g id="Mask"></g>
            <g mask="url(#mask-2)">
                <g transform="translate(0.000000, -50.000000)">
                    <rect id="Rectangle" fill="#FFFFFF" fill-rule="nonzero" x="0" y="0" width="250" height="250"></rect>
                    <g id="Page-1" stroke-width="1" fill="none" fill-rule="evenodd" transform="translate(12.000000, 68.000000)">
                        <path d="M114,13.402489 L99.2933508,13.402489 C99.8803286,12.6311764 100.391504,11.8151541 100.819584,10.9535457 L105.646048,10.8362197 C105.202169,8.84313843 104.70892,8.08760561 103.9834,7.08850805 L111.532688,7.08850805 L111.656646,3.53892102 L95.4094841,3.53892102 L96.5440951,0.503932068 L91.9754211,0 C90.8667865,3.34328025 88.8934839,8.80544215 85.2740914,10.8362197 C85.2740914,10.8362197 89.6150534,10.8790298 93.8203603,7.08850805 L98.775188,7.08850805 C99.2357771,7.63671133 99.6410713,8.5934371 100.141765,10.4943232 L100.03801,10.4689001 L95.5121748,10.0806869 C94.9820112,11.3690815 94.353714,12.4727935 93.6227262,13.402489 L77.7082456,13.402489 C77.5393224,12.880001 77.2280601,11.8604481 76.764129,10.8996313 L79.3727165,10.8362197 C78.9254954,8.84313843 78.4323976,8.08760561 77.7082456,7.08850805 L85.2560142,7.08850805 L85.3773898,3.53892102 L69.1370637,3.53892102 L70.2663579,0.503932068 L65.7030006,0 C64.5943661,3.34328025 62.6212154,8.80544215 59,10.8362197 C59,10.8362197 63.3436963,10.8790298 67.5421673,7.08850805 L72.5055019,7.08850805 C72.9621414,7.63846465 73.3709295,8.59913537 73.8720785,10.5125869 L70.6075463,10.5229607 C71.3332173,11.8190991 71.8513802,12.7783087 72.1558065,13.402489 L59,13.402489 L59,17 L114,17 L114,13.402489 Z" id="Fill-1" fill="#27A9E0" fill-rule="nonzero"></path>
                        <g id="Fill-3-Clipped">
                            <mask id="mask-4" fill="white">
                                <use xlink:href="#path-3"></use>
                            </mask>
                            <g id="path-1"></g>
                            <polygon id="Fill-3" fill="#27A9E0" fill-rule="nonzero" mask="url(#mask-4)" points="93 37 99 37 99 24 93 24"></polygon>
                        </g>
                        <g id="Fill-5-Clipped">
                            <mask id="mask-6" fill="white">
                                <use xlink:href="#path-5"></use>
                            </mask>
                            <g id="path-1"></g>
                            <path d="M110,38.474584 L110,21 L104.925953,21 L104.925953,37.9311649 C104.925953,41.8835098 100.805869,42.0111952 100,41.4561271 C100,41.4561271 101.268815,44 104.651918,44 C108.033352,44 110,41.1597579 110,38.474584" id="Fill-5" fill="#27A9E0" fill-rule="nonzero" mask="url(#mask-6)"></path>
                        </g>
                        <g id="Fill-6-Clipped">
                            <mask id="mask-8" fill="white">
                                <use xlink:href="#path-7"></use>
                            </mask>
                            <g id="path-1"></g>
                            <path d="M68.3092441,32.5307722 L82.7533686,32.5307722 L82.7533686,30.0013125 L68.3092441,30.0013125 L68.3092441,32.5307722 Z M68.3092441,26.2874234 L82.7533686,26.2874234 L82.7533686,23.7194739 L68.3092441,23.7194739 L68.3092441,26.2874234 Z M88,37.6757275 L88,20 L63,20 L63,43 L68.3092441,43 L68.3092441,36.2256428 L82.7533686,36.2256428 L82.7533686,36.4881282 C82.7533686,41.9951896 77.6679648,40.4761252 77.6679648,40.4761252 C77.6679648,40.4761252 78.8921997,42.9667931 82.5584865,42.9667931 C86.2133465,42.9667931 87.9927995,39.6183307 88,37.6757275 Z" id="Fill-6" fill="#27A9E0" fill-rule="nonzero" mask="url(#mask-8)"></path>
                        </g>
                        <g id="Fill-7-Clipped">
                            <mask id="mask-10" fill="white">
                                <use xlink:href="#path-9"></use>
                            </mask>
                            <g id="path-1"></g>
                            <path d="M8.01996746,12.7141926 L8.01996746,15.1296272 L13.5782488,15.1296272 L13.5782488,19.1911302 L4.33778849,19.1911302 L4.33778849,22.8564871 L13.5782488,22.8564871 L13.5782488,37.2054339 C10.4213413,37.8111907 3.86670559,35.8842024 3.86670559,35.8842024 L4.60422826,41.998341 C23.2647939,42.1375355 26.8598676,33.4714475 26.8598676,33.4714475 C21.7000037,37.0361674 18.3752515,36.5830036 18.3752515,36.5830036 L18.3752515,22.8564871 L26.6848806,22.8564871 L26.6848806,19.1911302 L18.3752515,19.1911302 L18.3752515,15.1296272 L24.6951221,15.1296272 L24.6951221,11.4584644 L9.34533451,11.4584644 C11.8775992,9.17120786 14.6686955,5.59815114 16.3865799,3.04054459 C20.1190657,6.53723042 25.1304934,10.9207418 25.1304934,10.9207418 L28,7.06423433 L19.6692545,0.00833678501 L12.711388,0 C10.1028867,4.50126842 3,10.8577693 3,10.8577693 L5.23446079,14.9874553 L8.01996746,12.7141926 Z" id="Fill-7" fill="#27A9E0" fill-rule="nonzero" mask="url(#mask-10)"></path>
                        </g>
                        <g id="Fill-8-Clipped">
                            <mask id="mask-12" fill="white">
                                <use xlink:href="#path-11"></use>
                            </mask>
                            <g id="path-1"></g>
                            <path d="M21,34.1851762 L25.9501327,35 C26.7459423,32.6372618 27.4207361,29.8454667 28,26.6369832 L23.1661147,26 C22.9642027,28.3685882 22.2361356,31.0962003 21,34.1851762" id="Fill-8" fill="#27A9E0" fill-rule="nonzero" mask="url(#mask-12)"></path>
                        </g>
                        <g id="Fill-9-Clipped">
                            <mask id="mask-14" fill="white">
                                <use xlink:href="#path-13"></use>
                            </mask>
                            <g id="path-1"></g>
                            <path d="M34.2431437,19.2131109 L49.4290897,19.2131109 L49.4290897,14.2171362 L34.2431437,14.2171362 L34.2431437,19.2131109 Z M34.2431437,10.5546041 L49.4290897,10.5546041 L49.4290897,5.66774962 L34.2431437,5.66774962 L34.2431437,10.5546041 Z M34.5696143,41.9994004 C38.0918275,41.9994004 39.4184308,39.492916 39.4184308,39.492916 C38.5816916,40.0397094 34.2894886,39.9140424 34.2894886,36.0195553 L34.2894886,22.8921899 L39.0846842,22.8921899 C44.1788282,43.5598785 60,41.9718222 60,41.9718222 C52.540842,39.9987148 48.5025078,33.015471 48.5025078,33.015471 C48.5025078,33.015471 53.7505549,30.5802427 56.0878885,28.7380199 L52.3394868,26.1338938 C50.2326124,27.8008088 48.8593478,28.773797 46.7308036,29.8888501 C46.7308036,29.8888501 44.8297132,27.5002811 44.2659819,22.8921899 L50.3820866,22.8921899 C54.6228832,22.8921899 54.6157653,19.2733357 54.6157653,19.2733357 L54.6157653,2 L29,2 L29,36.5548703 C29,39.2007363 31.0360126,41.9994004 34.5696143,41.9994004 Z" id="Fill-9" fill="#27A9E0" fill-rule="nonzero" mask="url(#mask-14)"></path>
                        </g>
                        <g id="Fill-10-Clipped">
                            <mask id="mask-16" fill="white">
                                <use xlink:href="#path-15"></use>
                            </mask>
                            <g id="path-1"></g>
                            <path d="M10.9042543,26 L6,26.5379111 C6.67764808,29.0410495 7.21331758,32.1851933 7.58945109,36 L13,35.2810068 C12.3606743,31.1555046 11.6624301,28.0601619 10.9042543,26" id="Fill-10" fill="#27A9E0" fill-rule="nonzero" mask="url(#mask-16)"></path>
                        </g>
                        <g id="Fill-11-Clipped">
                            <mask id="mask-18" fill="white">
                                <use xlink:href="#path-17"></use>
                            </mask>
                            <g id="path-1"></g>
                            <polygon id="Fill-11" fill="#27A9E0" fill-rule="nonzero" mask="url(#mask-18)" points="224 38.4053366 196.893561 38.4053366 196.893561 0 191.695142 0 191.695142 38.4053366 171 38.4053366 171 42 224 42"></polygon>
                        </g>
                        <g id="Fill-12-Clipped">
                            <mask id="mask-20" fill="white">
                                <use xlink:href="#path-19"></use>
                            </mask>
                            <g id="path-1"></g>
                            <path d="M218,13.5549517 L214.692987,11 C208.779276,14.6385062 202.332105,19.1003514 196,20.6356375 C196,20.6356375 205.209233,23.427504 218,13.5549517" id="Fill-12" fill="#27A9E0" fill-rule="nonzero" mask="url(#mask-20)"></path>
                        </g>
                        <g id="Fill-13-Clipped">
                            <mask id="mask-22" fill="white">
                                <use xlink:href="#path-21"></use>
                            </mask>
                            <g id="path-1"></g>
                            <polygon id="Fill-13" fill="#27A9E0" fill-rule="nonzero" mask="url(#mask-22)" points="135.826191 26 131 26.7451516 133.180022 36 138 35.2487291"></polygon>
                        </g>
                        <g id="Fill-14-Clipped">
                            <mask id="mask-24" fill="white">
                                <use xlink:href="#path-23"></use>
                            </mask>
                            <g id="path-1"></g>
                            <path d="M125.196312,29.9023572 L125.196312,42 L129.849773,42 L129.849773,22.4438179 L133.311667,21.9713638 L134.144354,23.7384201 L138,22.2269267 L134.4626,14.818151 L130.61696,16.3239485 L131.554869,18.310594 L125.711662,19.1075605 L136.0931,6.34515444 L132.640758,4.04508842 L126.401069,11.7292125 L124.417905,10.4016345 L130.849087,2.50361699 L127.105941,0 L118.372895,11.1025214 L123.764583,14.9719384 L119.725327,19.931957 L116.400951,20.3856748 L117.034866,24.2026302 L123.79521,23.2737603 C121.360073,28.8005139 118.915384,35.0197605 115,39.1060688 C115,39.1060688 120.69538,37.6137614 125.196312,29.9023572" id="Fill-14" fill="#27A9E0" fill-rule="nonzero" mask="url(#mask-24)"></path>
                        </g>
                        <g id="Fill-15-Clipped">
                            <mask id="mask-26" fill="white">
                                <use xlink:href="#path-25"></use>
                            </mask>
                            <g id="path-1"></g>
                            <path d="M142.140923,16.3290781 L161.230596,16.3290781 L161.230596,14.1231522 L142.140923,14.1231522 L142.140923,16.3290781 Z M142.140923,10.7525371 L161.230596,10.7525371 L161.230596,8.12308782 L142.140923,8.12308782 L142.140923,10.7525371 Z M148.768661,36.2231114 C148.768661,39.7727478 144.733214,39.8852368 143.936813,39.3897745 C143.936813,39.3897745 145.181547,41.6725954 148.503395,41.6725954 C151.833673,41.6725954 153.754669,39.1227445 153.754669,36.7080607 L153.754669,27.5877406 C161.072069,41.3997082 168,42 168,42 C168,42 162.064182,35.2841511 159.785784,31.3961467 L166.244607,25.6824862 L162.693625,22.3372525 L157.450479,26.9683752 C156.226672,24.396447 155.290714,21.8936042 154.719533,19.6987921 L162.057407,19.6987921 C162.057407,19.6987921 166.35526,20.0958828 166.35526,16.4414169 L166.35526,4.75262288 L152.389648,4.75262288 L153.880227,2.17543822 L149.357606,0 L146.614164,4.75262288 L137.063531,4.75262288 L137,19.6987921 L148.768661,19.6987921 L148.768661,36.2231114 Z" id="Fill-15" fill="#27A9E0" fill-rule="nonzero" mask="url(#mask-26)"></path>
                        </g>
                        <g id="Fill-16-Clipped">
                            <mask id="mask-28" fill="white">
                                <use xlink:href="#path-27"></use>
                            </mask>
                            <g id="path-1"></g>
                            <path d="M148,25 L137.990034,25 L137.990034,28.3923707 L143.256247,28.3923707 C141.816077,32.9335924 138.207811,37.6707165 134,41 C134,41 147.421118,36.0849338 148,25" id="Fill-16" fill="#27A9E0" fill-rule="nonzero" mask="url(#mask-28)"></path>
                        </g>
                        <g id="Fill-17-Clipped">
                            <mask id="mask-30" fill="white">
                                <use xlink:href="#path-29"></use>
                            </mask>
                            <g id="path-1"></g>
                            <polygon id="Fill-17" fill="#27A9E0" fill-rule="nonzero" mask="url(#mask-30)" points="2 79 5 79 5 53 2 53"></polygon>
                        </g>
                        <g id="Fill-18-Clipped">
                            <mask id="mask-32" fill="white">
                                <use xlink:href="#path-31"></use>
                            </mask>
                            <g id="path-1"></g>
                            <path d="M18.0370289,75 L20,74.7285649 C19.8023663,72.6833257 19.4134531,70.7738041 18.8332603,69 L17,69.2169874 C17.5801928,71.2715421 17.9259422,73.199213 18.0370289,75" id="Fill-18" fill="#27A9E0" fill-rule="nonzero" mask="url(#mask-32)"></path>
                        </g>
                        <g id="Fill-19-Clipped">
                            <mask id="mask-34" fill="white">
                                <use xlink:href="#path-33"></use>
                            </mask>
                            <g id="path-1"></g>
                            <path d="M13.4101194,76 C14.1473202,73.878902 14.6772804,71.6378282 15,69.2767788 L13.6728096,69 C13.2488414,71.5640096 12.6912382,73.6896906 12,75.3773704 L13.4101194,76 Z" id="Fill-19" fill="#27A9E0" fill-rule="nonzero" mask="url(#mask-34)"></path>
                        </g>
                        <g id="Fill-20-Clipped">
                            <mask id="mask-36" fill="white">
                                <use xlink:href="#path-35"></use>
                            </mask>
                            <g id="path-1"></g>
                            <path d="M28.5342614,73 L33.6165247,73 L33.6165247,71.7566093 L28.6712168,71.7566093 C28.2237209,71.7566093 28.000054,71.5279468 28.000054,71.0700087 L28.000054,67.1451976 L34,67.1451976 L34,65.8757529 L30.8905437,65.8757529 C30.4062562,64.6148906 30.0044661,63.6564085 29.6850114,63 L28.301356,63.4533403 C28.7945578,64.4119757 29.150642,65.2194976 29.3699328,65.8757529 L25,65.8757529 L25,67.1451976 L26.575393,67.1451976 L26.575393,71.0959095 C26.575393,72.365201 27.2282411,73 28.5342614,73" id="Fill-20" fill="#27A9E0" fill-rule="nonzero" mask="url(#mask-36)"></path>
                        </g>
                        <g id="Fill-21-Clipped">
                            <mask id="mask-38" fill="white">
                                <use xlink:href="#path-37"></use>
                            </mask>
                            <g id="path-1"></g>
                            <path d="M21.427776,74 L23,73.5592311 C22.7538121,72.1655491 22.2724454,70.6458054 21.5560898,69 L20,69.3904038 C20.7700728,71.2378185 21.245745,72.7741022 21.427776,74" id="Fill-21" fill="#27A9E0" fill-rule="nonzero" mask="url(#mask-38)"></path>
                        </g>
                        <g id="Fill-22-Clipped">
                            <mask id="mask-40" fill="white">
                                <use xlink:href="#path-39"></use>
                            </mask>
                            <g id="path-1"></g>
                            <path d="M25,62 L34,62 L34,60.7593212 L31.9315673,60.7593212 C32.7168326,59.2624919 33.2374255,58.1621455 33.4931837,57.4590159 L32.2056403,57 C31.6117884,58.4476543 30.9863315,59.7006635 30.3287832,60.7593212 L28.7535522,60.7593212 C28.2877415,59.4111914 27.7671487,58.1746227 27.1917737,57.0496154 L25.8630625,57.5335858 C26.4839813,58.6832541 26.9452538,59.758646 27.2465559,60.7593212 L25,60.7593212 L25,62 Z" id="Fill-22" fill="#27A9E0" fill-rule="nonzero" mask="url(#mask-40)"></path>
                        </g>
                        <g id="Fill-23-Clipped">
                            <mask id="mask-42" fill="white">
                                <use xlink:href="#path-41"></use>
                            </mask>
                            <g id="path-1"></g>
                            <path d="M32.5745928,76.9211498 C32.9562773,76.8405264 33.2892423,76.6247801 33.5736319,76.2739107 C33.8577331,75.9228913 34,75.5274314 34,75.0873809 L34,55 L22,55 L22,76.9528286 L23.2669966,76.9528286 L23.2669966,56.2689548 L32.7330034,56.2689548 L32.7330034,74.8845463 C32.7330034,75.146835 32.6517081,75.3286505 32.4892615,75.4299927 C32.3266708,75.5316352 31.871907,75.5823814 31.1248258,75.5823814 C30.7429972,75.5823814 30.2882333,75.5739738 29.7603901,75.5570083 L30.3085572,76.9782017 C31.4373228,77.0203901 32.1927641,77.0013227 32.5745928,76.9211498" id="Fill-23" fill="#27A9E0" fill-rule="nonzero" mask="url(#mask-42)"></path>
                        </g>
                        <g id="Fill-24-Clipped">
                            <mask id="mask-44" fill="white">
                                <use xlink:href="#path-43"></use>
                            </mask>
                            <g id="path-1"></g>
                            <path d="M20.2319471,64.1592511 L18.9308008,64.5636376 C19.2136223,65.0783641 19.4728475,65.6463032 19.7086436,66.2670198 C17.6811982,66.7900109 15.8754916,67.1577141 14.2913564,67.3701294 C16.8561627,65.1723198 19.3597189,61.9862353 21.8020249,57.811296 L20.4300895,57.3333978 C19.8452012,58.4199782 19.1711154,59.4901743 18.4073299,60.5439862 C16.9174128,60.8056992 15.5265668,60.9812862 14.2347921,61.0710371 C15.9320559,58.971533 17.2850807,56.7450146 18.2942013,54.3922071 L16.8939838,54 C15.6209522,56.9411907 14.0696176,59.3759195 12.240482,61.3038965 L12.6364321,62.5538844 C13.3341143,62.4803727 14.956238,62.2640426 17.5021337,61.904314 C15.9650238,64.0449963 14.1308677,65.9445545 12,67.6028438 L12.4667392,69 C14.6824534,68.648681 17.2521128,68.1217751 20.1753828,67.4189922 C20.3639863,67.9174794 20.5100828,68.3953776 20.6138398,68.8528317 L22,68.4484452 C21.5566898,66.9044107 20.9674504,65.474631 20.2319471,64.1592511" id="Fill-24" fill="#27A9E0" fill-rule="nonzero" mask="url(#mask-44)"></path>
                        </g>
                        <g id="Fill-25-Clipped">
                            <mask id="mask-46" fill="white">
                                <use xlink:href="#path-45"></use>
                            </mask>
                            <g id="path-1"></g>
                            <polygon id="Fill-25" fill="#27A9E0" fill-rule="nonzero" mask="url(#mask-46)" points="46 79 49 79 49 53 46 53"></polygon>
                        </g>
                        <g id="Fill-26-Clipped">
                            <mask id="mask-48" fill="white">
                                <use xlink:href="#path-47"></use>
                            </mask>
                            <g id="path-1"></g>
                            <path d="M72.2789977,61.4820209 C71.0024649,60.6227296 69.9879004,59.5021442 69.2354542,58.1205498 C69.2777653,58.0723679 69.3749906,57.9660256 69.5272803,57.8012378 C69.67942,57.6365926 69.7808464,57.5141421 69.8315597,57.4338865 L75.728247,57.4338865 C74.7813501,59.072356 73.6316004,60.4218767 72.2789977,61.4820209 Z M79,64.7591024 C76.8611924,64.0603224 75.0011574,63.2211307 73.4203453,62.2410995 C74.9081332,61.0203015 76.2397304,59.4097718 77.4148367,57.4097956 L77.4148367,56.2530025 L70.8461242,56.2530025 C71.2518299,55.6587116 71.5984203,55.0403298 71.8858953,54.3975719 L70.5670514,54 C69.5355325,56.1848636 67.6884009,58.0281774 65.0253566,59.5302265 L66.0906343,60.494007 C66.6232732,60.18895 67.3248561,59.6867464 68.1956832,58.9879664 C69.0156469,60.297288 69.9879004,61.4137394 71.1124436,62.3374633 C69.5820446,63.2934035 67.5445134,64.1166296 65,64.8072843 L65.8876314,66 C68.5590779,65.1971585 70.6812312,64.2332355 72.2536411,63.1085162 C73.9865929,64.1849111 75.9608076,65.1204666 78.1758351,65.9158955 L79,64.7591024 Z" id="Fill-26" fill="#27A9E0" fill-rule="nonzero" mask="url(#mask-48)"></path>
                        </g>
                        <g id="Fill-27-Clipped">
                            <mask id="mask-50" fill="white">
                                <use xlink:href="#path-49"></use>
                            </mask>
                            <g id="path-1"></g>
                            <path d="M69.3846037,73.3902289 L76.628138,73.3902289 L76.628138,67.3846833 L69.3846037,67.3846833 L69.3846037,73.3902289 Z M78,76 L78,66 L68,66 L68,76 L69.3846037,76 L69.3846037,74.7482867 L76.6282897,74.7482867 L76.6282897,76 L78,76 Z" id="Fill-27" fill="#27A9E0" fill-rule="nonzero" mask="url(#mask-50)"></path>
                        </g>
                        <g id="Fill-28-Clipped">
                            <mask id="mask-52" fill="white">
                                <use xlink:href="#path-51"></use>
                            </mask>
                            <g id="path-1"></g>
                            <path d="M58.6258431,61.1956913 L63.6870945,61.1956913 L63.6870945,56.3267664 L58.6258431,56.3267664 L58.6258431,61.1956913 Z M57.4829124,64.4673455 L57.4829124,75.2096426 C57.1472771,75.330036 56.6529193,75.4630784 56,75.6089221 L56.3945526,77 C59.7504226,76.1325575 62.9523993,75.1323774 66,73.9988501 L66,72.4661956 C64.8572302,72.9555417 63.7233142,73.367775 62.5985738,73.7025907 L62.5985738,67.9064838 L65.6735403,67.9064838 L65.6735403,66.5539623 L62.5985738,66.5539623 L62.5985738,62.4965503 L65.142802,62.4965503 L65.142802,55 L57.1699747,55 L57.1699747,62.4965503 L61.1835933,62.4965503 L61.1835933,74.1791355 C60.0316479,74.5314769 59.2605721,74.741632 58.8706879,74.810363 L58.8706879,64.4673455 L57.4829124,64.4673455 Z" id="Fill-28" fill="#27A9E0" fill-rule="nonzero" mask="url(#mask-52)"></path>
                        </g>
                        <g id="Fill-29-Clipped">
                            <mask id="mask-54" fill="white">
                                <use xlink:href="#path-53"></use>
                            </mask>
                            <g id="path-1"></g>
                            <polygon id="Fill-29" fill="#27A9E0" fill-rule="nonzero" mask="url(#mask-54)" points="89 79 92 79 92 53 89 53"></polygon>
                        </g>
                        <g id="Fill-30-Clipped">
                            <mask id="mask-56" fill="white">
                                <use xlink:href="#path-55"></use>
                            </mask>
                            <g id="path-1"></g>
                            <path d="M109.327344,67.7843589 L114.311216,67.7843589 L114.311216,59.8910736 L109.327344,59.8910736 L109.327344,67.7843589 Z M115.638559,67.7843589 L120.672656,67.7843589 L120.672656,59.8910736 L115.638559,59.8910736 L115.638559,67.7843589 Z M108,69.1707976 L114.311216,69.1707976 L114.311216,77 L115.638559,77 L115.638559,69.1707976 L122,69.1707976 L122,58.5562657 L115.638559,58.5562657 L115.638559,54 L114.311216,54 L114.311216,58.5562657 L108,58.5562657 L108,69.1707976 Z" id="Fill-30" fill="#27A9E0" fill-rule="nonzero" mask="url(#mask-56)"></path>
                        </g>
                        <g id="Fill-31-Clipped">
                            <mask id="mask-58" fill="white">
                                <use xlink:href="#path-57"></use>
                            </mask>
                            <g id="path-1"></g>
                            <path d="M99,75.0262318 L100.328989,76 C102.656959,73.0964427 104.547418,70.0308243 106,66.8026777 L104.593857,66 C102.976363,69.4473418 101.111683,72.4561376 99,75.0262318" id="Fill-31" fill="#27A9E0" fill-rule="nonzero" mask="url(#mask-58)"></path>
                        </g>
                        <g id="Fill-32-Clipped">
                            <mask id="mask-60" fill="white">
                                <use xlink:href="#path-59"></use>
                            </mask>
                            <g id="path-1"></g>
                            <path d="M100.077021,60 L99,61.2153549 C101.379385,62.3573343 103.363965,63.6187737 104.953741,65 L106,63.8397176 C104.707648,62.6704471 102.733261,61.3905412 100.077021,60" id="Fill-32" fill="#27A9E0" fill-rule="nonzero" mask="url(#mask-60)"></path>
                        </g>
                        <g id="Fill-33-Clipped">
                            <mask id="mask-62" fill="white">
                                <use xlink:href="#path-61"></use>
                            </mask>
                            <g id="path-1"></g>
                            <path d="M107,57.0199211 C105.123139,55.6751272 103.421734,54.6686217 101.895618,54 L101,54.9345064 C102.905122,55.838676 104.592228,56.8602825 106.061485,58 L107,57.0199211 Z" id="Fill-33" fill="#27A9E0" fill-rule="nonzero" mask="url(#mask-62)"></path>
                        </g>
                        <g id="Fill-34-Clipped">
                            <mask id="mask-64" fill="white">
                                <use xlink:href="#path-63"></use>
                            </mask>
                            <g id="path-1"></g>
                            <polygon id="Fill-34" fill="#27A9E0" fill-rule="nonzero" mask="url(#mask-64)" points="132 79 135 79 135 53 132 53"></polygon>
                        </g>
                        <g id="Fill-35-Clipped">
                            <mask id="mask-66" fill="white">
                                <use xlink:href="#path-65"></use>
                            </mask>
                            <g id="path-1"></g>
                            <path d="M163.306349,72.2342147 C163.130868,72.3288538 162.525707,72.3759447 161.491346,72.3759447 C160.555343,72.3759447 159.664687,72.3288538 158.819059,72.2342147 L159.453439,73.6768127 C160.290126,73.7370098 161.014403,73.7670322 161.626269,73.7670322 C163.173501,73.7670322 164.122916,73.5737917 164.473877,73.1874632 C164.824679,72.8009823 165,72.4359894 165,72.0924847 L165,55 L155,55 L155,77 L156.470908,77 L156.470908,56.4038889 L163.56949,56.4038889 L163.56949,71.7576667 C163.56949,71.9810819 163.481989,72.1398804 163.306349,72.2342147" id="Fill-35" fill="#27A9E0" fill-rule="nonzero" mask="url(#mask-66)"></path>
                        </g>
                        <g id="Fill-36-Clipped">
                            <mask id="mask-68" fill="white">
                                <use xlink:href="#path-67"></use>
                            </mask>
                            <g id="path-1"></g>
                            <path d="M154,55.112984 L152.980735,54 C150.3375,55.0699591 147.586471,55.8851368 144.727647,56.4459926 L144.727647,74.0977144 C144.288382,74.2615462 143.712647,74.4299713 143,74.6023774 L143.360441,76 C146.791029,75.076877 150.3375,73.8603881 154,72.3506862 L154,70.8365441 C151.124559,72.0962111 148.493824,73.0409231 146.107353,73.6706801 L146.107353,64.6893321 L152.856618,64.6893321 L152.856618,63.3047243 L146.107353,63.3047243 L146.107353,57.5070711 C149.396765,56.7739623 152.027794,55.9757802 154,55.112984" id="Fill-36" fill="#27A9E0" fill-rule="nonzero" mask="url(#mask-68)"></path>
                        </g>
                        <g id="Fill-37-Clipped">
                            <mask id="mask-70" fill="white">
                                <use xlink:href="#path-69"></use>
                            </mask>
                            <g id="path-1"></g>
                            <polygon id="Fill-37" fill="#27A9E0" fill-rule="nonzero" mask="url(#mask-70)" points="175 79 178 79 178 53 175 53"></polygon>
                        </g>
                        <g id="Fill-38-Clipped">
                            <mask id="mask-72" fill="white">
                                <use xlink:href="#path-71"></use>
                            </mask>
                            <g id="path-1"></g>
                            <path d="M186,75.0974016 L187.063345,76 C188.160238,75.0137425 189.156038,73.8561619 190.050595,72.5272581 C192.10959,74.4330239 194.848078,75.3856101 198.265758,75.3856101 L208.58215,75.3230141 L209,74.0693145 C208.113829,74.0862243 206.961972,74.0943826 205.544279,74.0943826 C200.354407,74.0943826 197.257228,74.0316383 196.253191,73.9064463 C195.248854,73.7809577 194.259344,73.5302771 193.284811,73.1541079 C192.310128,72.7779387 191.438635,72.1930668 190.67078,71.3988989 C191.481019,69.9114285 192.092816,68.3901386 192.506323,66.8356223 L192.506323,65.5693145 L188.493619,65.5693145 L192.430391,60.3038357 L192.430391,59 L186.152013,59 L186.152013,60.3038357 L190.721401,60.3038357 C189.354329,62.2846573 188.025298,64.0649344 186.734157,65.6445187 L186.734157,66.8356223 L191.088629,66.8356223 C189.966127,70.4630741 188.269867,73.2167039 186,75.0974016" id="Fill-38" fill="#27A9E0" fill-rule="nonzero" mask="url(#mask-72)"></path>
                        </g>
                        <g id="Fill-39-Clipped">
                            <mask id="mask-74" fill="white">
                                <use xlink:href="#path-73"></use>
                            </mask>
                            <g id="path-1"></g>
                            <path d="M192,58.0340119 C191.281916,56.9722591 189.947544,55.627537 187.997357,54 L187,55.0052207 C188.923597,56.5544469 190.257969,57.8861944 191.002643,59 L192,58.0340119 Z" id="Fill-39" fill="#27A9E0" fill-rule="nonzero" mask="url(#mask-74)"></path>
                        </g>
                        <g id="Fill-40-Clipped">
                            <mask id="mask-76" fill="white">
                                <use xlink:href="#path-75"></use>
                            </mask>
                            <g id="path-1"></g>
                            <path d="M203.036279,68.1024597 L207.67757,68.1024597 L207.67757,65.3974485 L203.036279,65.3974485 L203.036279,68.1024597 Z M203.036279,64.1281425 L207.67757,64.1281425 L207.67757,61.6409519 L203.036279,61.6409519 L203.036279,64.1281425 Z M197.047133,64.1282942 L201.662999,64.1282942 L201.662999,61.6411036 L197.047133,61.6411036 L197.047133,64.1282942 Z M197.047133,68.1024597 L201.662999,68.1024597 L201.662999,65.3974485 L197.047133,65.3974485 L197.047133,68.1024597 Z M208.529552,55 L195,55 L195,56.2820476 L206.291502,56.2820476 C205.469158,56.9230714 203.943324,57.8161968 201.71385,58.9615756 C200.204866,58.0127815 199.039202,57.3547689 198.217009,56.9872345 L197.314327,57.9360285 C198.967439,58.7992719 200.344782,59.6197399 201.446957,60.3974325 L195.674003,60.3974325 L195.674003,74 L197.047283,74 L197.047283,69.3332375 L201.662999,69.3332375 L201.662999,73.7691344 L203.036279,73.7691344 L203.036279,69.3332375 L207.67757,69.3332375 L207.67757,71.9357092 C207.67757,72.0726814 207.609719,72.2029794 207.474016,72.3269066 C207.338463,72.4508339 207.198547,72.5127216 207.054419,72.5127216 L205.070925,72.4870868 L205.465096,73.8204041 C205.939606,73.8376963 206.308352,73.846039 206.571333,73.846039 C208.190294,73.846039 209,73.3121053 209,72.2434795 L209,60.3974325 L203.60858,60.3974325 C203.447451,60.2779042 203.214409,60.0597801 202.909302,59.7436671 C204.935222,58.7351089 206.808588,57.5813874 208.529552,56.2820476 L208.529552,55 Z" id="Fill-40" fill="#27A9E0" fill-rule="nonzero" mask="url(#mask-76)"></path>
                        </g>
                        <g id="Fill-41-Clipped">
                            <mask id="mask-78" fill="white">
                                <use xlink:href="#path-77"></use>
                            </mask>
                            <g id="path-1"></g>
                            <polygon id="Fill-41" fill="#27A9E0" fill-rule="nonzero" mask="url(#mask-78)" points="218 79 221 79 221 53 218 53"></polygon>
                        </g>
                        <g id="Fill-42-Clipped">
                            <mask id="mask-80" fill="white">
                                <use xlink:href="#path-79"></use>
                            </mask>
                            <g id="path-1"></g>
                            <path d="M169.500078,99 C169.024516,99 168.655846,99.2162541 168.393445,99.6486163 C168.1312,100.080978 168,100.699494 168,101.503726 C168,102.30299 168.1312,102.918583 168.393445,103.351238 C168.655846,103.7836 169.024516,104 169.500078,104 C169.981561,104 170.351945,103.78623 170.611074,103.35869 C170.870358,102.931442 171,102.313072 171,101.503726 C171,100.689558 170.871916,100.068412 170.615748,99.6413104 C170.35958,99.2137701 169.987638,99 169.500078,99" id="Fill-42" fill="#27A9E0" fill-rule="nonzero" mask="url(#mask-80)"></path>
                        </g>
                        <g id="Fill-43-Clipped">
                            <mask id="mask-82" fill="white">
                                <use xlink:href="#path-81"></use>
                            </mask>
                            <g id="path-1"></g>
                            <path d="M125.12932,102 C124.429049,102 123.899029,102.092751 123.539576,102.278252 C123.179806,102.463878 123,102.733653 123,103.087452 C123,103.372312 123.116579,103.595587 123.350215,103.757277 C123.583532,103.919217 123.90524,104 124.315496,104 C124.889473,104 125.313744,103.87172 125.58831,103.615035 C125.862717,103.358225 126,102.957926 126,102.414137 L126,102.025806 C125.880076,102.017328 125.755375,102.010721 125.626055,102.006358 C125.496894,102.002244 125.331263,102 125.12932,102" id="Fill-43" fill="#27A9E0" fill-rule="nonzero" mask="url(#mask-82)"></path>
                        </g>
                        <g id="Fill-44-Clipped">
                            <mask id="mask-84" fill="white">
                                <use xlink:href="#path-83"></use>
                            </mask>
                            <g id="path-1"></g>
                            <path d="M64.5000789,99 C64.0250329,99 63.656324,99.2221953 63.3937944,99.6660399 C63.1312648,100.11043 63,100.738801 63,101.551333 L63,102.448667 C63,103.261563 63.1312648,103.889934 63.3937944,104.33396 C63.656324,104.778169 64.0250329,105 64.5000789,105 C64.9875887,105 65.3592953,104.748324 65.6156718,104.244245 C65.8718906,103.740348 66,103.000243 66,102.023566 C66,101.028328 65.8734683,100.275666 65.6204049,99.7652179 C65.3671838,99.2551333 64.9937418,99 64.5000789,99" id="Fill-44" fill="#27A9E0" fill-rule="nonzero" mask="url(#mask-84)"></path>
                        </g>
                        <g id="Fill-45-Clipped">
                            <mask id="mask-86" fill="white">
                                <use xlink:href="#path-85"></use>
                            </mask>
                            <g id="path-1"></g>
                            <path d="M106.5,99 C106.024569,99 105.65588,99.2162541 105.393466,99.6486163 C105.131051,100.080978 105,100.699494 105,101.503726 C105,102.30299 105.131051,102.918583 105.393466,103.351238 C105.65588,103.7836 106.024569,104 106.5,104 C106.981508,104 107.351911,103.78623 107.611209,103.35869 C107.870351,102.931442 108,102.313072 108,101.503726 C108,100.689558 107.871909,100.068412 107.615884,99.6413104 C107.359547,99.2137701 106.987586,99 106.5,99" id="Fill-45" fill="#27A9E0" fill-rule="nonzero" mask="url(#mask-86)"></path>
                        </g>
                        <g id="Fill-46-Clipped">
                            <mask id="mask-88" fill="white">
                                <use xlink:href="#path-87"></use>
                            </mask>
                            <g id="path-1"></g>
                            <path d="M87.5,99 C87.0245689,99 86.6558799,99.2162541 86.3934656,99.6486163 C86.1310513,100.080978 86,100.699494 86,101.503726 C86,102.30299 86.1310513,102.918583 86.3934656,103.351238 C86.6558799,103.7836 87.0245689,104 87.5,104 C87.9815084,104 88.3519115,103.78623 88.6112092,103.35869 C88.8703511,102.931442 89,102.313072 89,101.503726 C89,100.689558 88.8719094,100.068412 88.6158841,99.6413104 C88.3595471,99.2137701 87.9875857,99 87.5,99" id="Fill-46" fill="#27A9E0" fill-rule="nonzero" mask="url(#mask-88)"></path>
                        </g>
                        <g id="Fill-47-Clipped">
                            <mask id="mask-90" fill="white">
                                <use xlink:href="#path-89"></use>
                            </mask>
                            <g id="path-1"></g>
                            <path d="M218.62447,105.389386 L215.571873,105.389386 L214.072703,99.0314797 L212.519427,105.389386 L209.376552,105.389386 L206.938122,96.967415 L209.800891,96.967415 L211.13759,103.230388 L212.573534,96.967415 L215.716409,96.967415 L217.089128,103.246134 L218.479933,96.967415 L221.198318,96.967415 L218.62447,105.389386 Z M205.027076,105.373487 C204.689824,105.431731 204.370809,105.4753 204.069881,105.504651 C203.768801,105.533543 203.485807,105.548219 203.220899,105.548219 C202.131022,105.548219 201.365023,105.33527 200.922446,104.909218 C200.480021,104.483167 200.258732,103.635191 200.258732,102.365138 L200.258732,98.7060172 L198.687218,98.7060172 L198.687218,96.967415 L200.258732,96.967415 L200.258732,95.2610685 L203.049309,94.4991592 L203.049309,96.967415 L204.882691,96.967415 L204.882691,98.7060172 L203.049309,98.7060172 L203.049309,102.222357 C203.049309,102.841332 203.127429,103.247663 203.284124,103.440892 C203.440668,103.634121 203.72047,103.73043 204.124139,103.73043 C204.232504,103.73043 204.358955,103.720034 204.503339,103.698785 C204.647876,103.677689 204.822354,103.646045 205.027076,103.603547 L205.027076,105.373487 Z M193.651535,105.389386 L196.225383,105.389386 L196.225383,102.96852 L193.651535,102.96852 L193.651535,105.389386 Z M190.069882,105.389386 L187.2521,105.389386 L187.2521,100.190242 C187.2521,99.7352979 187.169269,99.3992874 187.003758,99.1822105 C186.837944,98.9652865 186.583826,98.856901 186.240647,98.856901 C185.825123,98.856901 185.510516,99.00381 185.296827,99.2971695 C185.083137,99.5909877 184.976141,100.023613 184.976141,100.595197 L184.976141,105.389386 L182.185564,105.389386 L182.185564,100.190242 C182.185564,99.7299474 182.104404,99.3924082 181.941781,99.178083 C181.779159,98.9640635 181.52033,98.856901 181.165144,98.856901 C180.755547,98.856901 180.44398,99.00381 180.230442,99.2971695 C180.016601,99.5909877 179.909756,100.023613 179.909756,100.595197 L179.909756,105.389386 L177.101093,105.389386 L177.101093,98.7933066 C177.101093,98.3065652 177.093494,97.9360058 177.0786,97.6819342 C177.063401,97.4278625 177.040908,97.1898423 177.010815,96.967415 L179.575544,96.967415 C179.611868,97.2214866 179.637401,97.4532391 179.652448,97.6622138 C179.667342,97.8711885 179.675093,98.0682393 179.675093,98.2533661 C179.89167,97.8037724 180.23181,97.4478886 180.695361,97.1860205 C181.159064,96.9238467 181.673834,96.793142 182.239822,96.793142 C182.84791,96.793142 183.368607,96.9106998 183.802217,97.1462741 C184.235675,97.3815426 184.560768,97.7242794 184.77765,98.174026 C185.018392,97.7242794 185.367651,97.3815426 185.825123,97.1462741 C186.282594,96.9106998 186.827609,96.793142 187.45971,96.793142 C188.302613,96.793142 188.948392,97.0363598 189.396897,97.5231012 C189.845554,98.0101483 190.069882,98.7138137 190.069882,99.6345559 L190.069882,105.389386 Z M172.792197,104.428897 C172.024678,105.191112 170.933282,105.572067 169.518463,105.572067 C168.109572,105.572067 167.021367,105.189584 166.253697,104.424923 C165.486026,103.660262 165.102266,102.579464 165.102266,101.182375 C165.102266,99.7748915 165.484506,98.6914945 166.249289,97.9321841 C167.013768,97.1728736 168.103493,96.793142 169.518463,96.793142 C170.94544,96.793142 172.039573,97.1713449 172.801316,97.9279037 C173.562908,98.684921 173.943779,99.769541 173.943779,101.182375 C173.943779,102.584814 173.559868,103.666835 172.792197,104.428897 Z M161.507087,105.461083 C161.052199,105.535072 160.599439,105.572067 160.147742,105.572067 C158.817123,105.572067 157.763571,105.172615 156.986781,104.373405 C156.210295,103.574348 155.821824,102.486977 155.821824,101.111137 C155.821824,99.7669422 156.226709,98.711062 157.036479,97.9438023 C157.84625,97.1766954 158.949501,96.793142 160.346537,96.793142 C160.749751,96.793142 161.147037,96.8261621 161.538699,96.8922024 C161.929906,96.9585484 162.324152,97.0603605 162.721742,97.1976387 L162.568086,99.0947683 C162.309258,98.9732358 162.041158,98.8779972 161.764395,98.8090523 C161.487481,98.7404132 161.219381,98.7060172 160.960552,98.7060172 C160.2441,98.7060172 159.700758,98.901845 159.330373,99.2933478 C158.960292,99.6851562 158.775024,100.259187 158.775024,101.015899 C158.775024,101.873046 158.952541,102.529322 159.307879,102.984419 C159.663066,103.439363 160.171756,103.666835 160.834254,103.666835 C161.165123,103.666835 161.491888,103.62984 161.814094,103.555851 C162.135996,103.481708 162.444524,103.373323 162.739828,103.230388 L162.884213,105.127518 C162.42051,105.27565 161.961519,105.38694 161.507087,105.461083 Z M150.063609,105.389386 L152.637457,105.389386 L152.637457,102.96852 L150.063609,102.96852 L150.063609,105.389386 Z M147.267561,105.373487 C146.930308,105.431731 146.611294,105.4753 146.310366,105.504651 C146.009286,105.533543 145.72614,105.548219 145.461384,105.548219 C144.371507,105.548219 143.605508,105.33527 143.162931,104.909218 C142.720506,104.483167 142.499217,103.635191 142.499217,102.365138 L142.499217,98.7060172 L140.927703,98.7060172 L140.927703,96.967415 L142.499217,96.967415 L142.499217,95.2610685 L145.289794,94.4991592 L145.289794,96.967415 L147.123176,96.967415 L147.123176,98.7060172 L145.289794,98.7060172 L145.289794,102.222357 C145.289794,102.841332 145.367914,103.247663 145.524609,103.440892 C145.681152,103.634121 145.960955,103.73043 146.364624,103.73043 C146.472989,103.73043 146.599439,103.720034 146.743824,103.698785 C146.888361,103.677689 147.062838,103.646045 147.267561,103.603547 L147.267561,105.373487 Z M137.964625,104.877574 C137.287232,105.351168 136.325478,105.587966 135.07921,105.587966 C134.693779,105.587966 134.281294,105.554793 133.841909,105.488752 C133.402371,105.422559 132.944747,105.323346 132.46919,105.191112 L132.487276,103.198744 C132.902648,103.420866 133.330027,103.592846 133.769716,103.714684 C134.209102,103.836522 134.63952,103.897059 135.061124,103.897059 C135.500509,103.897059 135.843689,103.821846 136.090663,103.671116 C136.337485,103.519926 136.461048,103.31248 136.461048,103.048013 C136.461048,102.719799 136.024398,102.407484 135.151402,102.111372 C134.976773,102.053129 134.841203,102.008032 134.745149,101.976387 C133.859843,101.664072 133.244308,101.329284 132.898088,100.972177 C132.551869,100.614918 132.378759,100.153247 132.378759,99.5871659 C132.378759,98.7138137 132.693366,98.0324675 133.32258,97.5431273 C133.951641,97.0537871 134.826308,96.8088877 135.946126,96.8088877 C136.355419,96.8088877 136.770943,96.8367102 137.192394,96.8922024 C137.613846,96.9476946 138.032257,97.033761 138.447781,97.1502487 L138.402642,98.9837839 C138.041376,98.8144028 137.68467,98.6887428 137.332371,98.6066511 C136.980225,98.5248651 136.629446,98.4835899 136.280339,98.4835899 C135.852808,98.4835899 135.530602,98.5499359 135.314025,98.6821694 C135.097296,98.8144028 134.988779,99.0129823 134.988779,99.277602 C134.988779,99.6003128 135.443363,99.9204247 136.352531,100.238091 C137.490435,100.634791 138.212966,101.011924 138.519974,101.369031 C138.827133,101.726137 138.980637,102.227707 138.980637,102.873282 C138.980637,103.735933 138.641865,104.404132 137.964625,104.877574 Z M126.737876,105.389386 L126.629511,104.302014 C126.256087,104.725314 125.833268,105.04298 125.360598,105.254401 C124.887928,105.466127 124.365711,105.572067 123.793795,105.572067 C122.962899,105.572067 122.293106,105.333894 121.784264,104.857548 C121.275574,104.381354 121.021153,103.757029 121.021153,102.984419 C121.021153,102.047778 121.412511,101.328214 122.195228,100.825421 C122.977946,100.322476 124.103843,100.071156 125.572919,100.071156 L126.51218,100.071156 L126.51218,99.8331354 C126.51218,99.3832359 126.355484,99.0430979 126.042549,98.8131798 C125.729311,98.5831089 125.268799,98.4678442 124.660712,98.4678442 C124.227101,98.4678442 123.795163,98.5340373 123.364745,98.6662708 C122.934326,98.7986571 122.535368,98.9917332 122.168175,99.245652 L122.023639,97.3723703 C122.61364,97.181893 123.184188,97.0378885 123.734978,96.9397453 C124.285919,96.8420607 124.817255,96.793142 125.328985,96.793142 C126.785903,96.793142 127.803587,97.0603605 128.38143,97.5947977 C128.959577,98.1292348 129.248498,99.1186162 129.248498,100.563553 L129.248498,103.666835 C129.248498,104.032044 129.257617,104.34971 129.275552,104.619375 C129.293638,104.889345 129.323882,105.146015 129.365982,105.389386 L126.737876,105.389386 Z M119.408299,94.9672503 C119.281848,94.9409565 119.155398,94.9209304 119.028947,94.9079364 C118.902497,94.8947894 118.752033,94.8879103 118.577555,94.8879103 C118.191972,94.8879103 117.913537,94.9831489 117.741947,95.1736262 C117.570509,95.3641035 117.484639,95.6764191 117.484639,96.1102671 L117.484639,96.967415 L119.245676,96.967415 L119.245676,98.7060172 L117.484639,98.7060172 L117.484639,105.389386 L114.675976,105.389386 L114.675976,98.7060172 L113.050356,98.7060172 L113.050356,96.967415 L114.675976,96.967415 L114.675976,95.8005503 C114.675976,94.8481638 114.91535,94.1551994 115.393948,93.7210456 C115.872697,93.2871976 116.632617,93.0701208 117.674315,93.0701208 C117.951077,93.0701208 118.229664,93.0847964 118.509618,93.113689 C118.789725,93.1430403 119.089133,93.1866085 119.408299,93.2448524 L119.408299,94.9672503 Z M109.94274,104.428897 C109.175069,105.191112 108.083825,105.572067 106.669006,105.572067 C105.260115,105.572067 104.171759,105.189584 103.40424,104.424923 C102.636569,103.660262 102.252658,102.579464 102.252658,101.182375 C102.252658,99.7748915 102.635049,98.6914945 103.39968,97.9321841 C104.164311,97.1728736 105.254036,96.793142 106.669006,96.793142 C108.095832,96.793142 109.189964,97.1713449 109.951859,97.9279037 C110.713299,98.684921 111.09417,99.769541 111.09417,101.182375 C111.09417,102.584814 110.710411,103.666835 109.94274,104.428897 Z M99.9534447,105.373487 C99.6160404,105.431731 99.2970261,105.4753 98.996098,105.504651 C98.6948658,105.533543 98.4120237,105.548219 98.1471158,105.548219 C97.057239,105.548219 96.29124,105.33527 95.8486628,104.909218 C95.4062376,104.483167 95.184949,103.635191 95.184949,102.365138 L95.184949,98.7060172 L93.6134352,98.7060172 L93.6134352,96.967415 L95.184949,96.967415 L95.184949,95.2610685 L97.9755259,94.4991592 L97.9755259,96.967415 L99.808908,96.967415 L99.808908,98.7060172 L97.9755259,98.7060172 L97.9755259,102.222357 C97.9755259,102.841332 98.0537976,103.247663 98.2103411,103.440892 C98.3668845,103.634121 98.6468389,103.73043 99.0502042,103.73043 C99.1587208,103.73043 99.2850194,103.720034 99.4295561,103.698785 C99.5740928,103.677689 99.7485704,103.646045 99.9534447,103.603547 L99.9534447,105.373487 Z M90.5058199,104.428897 C89.7383011,105.191112 88.6469045,105.572067 87.2320862,105.572067 C85.8231952,105.572067 84.7349902,105.189584 83.9673194,104.424923 C83.1996486,103.660262 82.8158892,102.579464 82.8158892,101.182375 C82.8158892,99.7748915 83.1981288,98.6914945 83.9627599,97.9321841 C84.7273911,97.1728736 85.8171158,96.793142 87.2320862,96.793142 C88.6590632,96.793142 89.7531955,97.1713449 90.5149389,97.9279037 C91.2765304,98.684921 91.6574021,99.769541 91.6574021,101.182375 C91.6574021,102.584814 91.2734907,103.666835 90.5058199,104.428897 Z M79.7488536,105.389386 L76.9310716,105.389386 L76.9310716,100.190242 C76.9310716,99.7299474 76.8453527,99.3924082 76.6737628,99.178083 C76.502173,98.9640635 76.2327055,98.856901 75.8655123,98.856901 C75.4499882,98.856901 75.1324938,99.0048801 74.9127251,99.3011442 C74.6928043,99.5975611 74.5830719,100.029116 74.5830719,100.595197 L74.5830719,105.389386 L71.774409,105.389386 L71.774409,93.2132081 L74.5830719,93.2132081 L74.5830719,97.8805136 C74.8599866,97.5206552 75.2031664,97.2493091 75.6126111,97.066934 C76.0220557,96.8841002 76.4886464,96.793142 77.012383,96.793142 C77.9095441,96.793142 78.5898242,97.033761 79.0535271,97.5153047 C79.5170781,97.9970014 79.7488536,98.7034184 79.7488536,99.6345559 L79.7488536,105.389386 Z M67.7456191,104.452745 C67.1705119,105.198909 66.3260892,105.572067 65.212351,105.572067 C64.6705283,105.572067 64.2068254,105.466127 63.8215461,105.254401 C63.4362668,105.04298 63.0839681,104.704218 62.7649538,104.23842 L62.7649538,108.929573 L59.9562909,108.929573 L59.9562909,99.1502605 C59.9562909,99.0712261 59.9410925,98.7006668 59.9109997,98.0390409 C59.8930656,97.6051929 59.8778672,97.2480862 59.8658605,96.967415 L62.5752779,96.967415 C62.593364,97.1054575 62.6082584,97.2693352 62.6204171,97.4598126 C62.6324239,97.6502899 62.6444306,97.9202601 62.6565893,98.2692647 C62.9635968,97.7667776 63.3292702,97.3949952 63.7537613,97.1540705 C64.1782524,96.9134515 64.6764557,96.793142 65.2485232,96.793142 C66.3260892,96.793142 67.1554655,97.1687461 67.7365,97.9202601 C68.3175346,98.6717741 68.6079759,99.7591458 68.6079759,101.182375 C68.6079759,102.616458 68.3204223,103.706582 67.7456191,104.452745 Z M53.7191745,105.389386 L56.2931743,105.389386 L56.2931743,102.96852 L53.7191745,102.96852 L53.7191745,105.389386 Z M49.5414404,105.389386 L46.4889952,105.389386 L44.9898258,99.0314797 L43.4363981,105.389386 L40.2935225,105.389386 L37.8552443,96.967415 L40.7180136,96.967415 L42.0547122,103.230388 L43.4906563,96.967415 L46.63338,96.967415 L48.0062508,103.246134 L49.3969037,96.967415 L52.1154402,96.967415 L49.5414404,105.389386 Z M33.3793177,105.389386 L30.3268726,105.389386 L28.8277031,99.0314797 L27.2742754,105.389386 L24.1315518,105.389386 L21.6931217,96.967415 L24.5560429,96.967415 L25.8925895,103.230388 L27.3285337,96.967415 L30.4714093,96.967415 L31.8441281,103.246134 L33.234933,96.967415 L35.9533175,96.967415 L33.3793177,105.389386 Z M17.2171951,105.389386 L14.1647499,105.389386 L12.6655805,99.0314797 L11.1121528,105.389386 L7.96927715,105.389386 L5.53084705,96.967415 L8.39376826,96.967415 L9.73046689,103.230388 L11.166411,96.967415 L14.3091346,96.967415 L15.6818535,103.246134 L17.0726584,96.967415 L19.7911948,96.967415 L17.2171951,105.389386 Z M0,114 L227,114 L227,88 L0,88 L0,114 Z" id="Fill-47" fill="#27A9E0" fill-rule="nonzero" mask="url(#mask-90)"></path>
                        </g>
                    </g>
                </g>
            </g>
        </g>
    </g>
</svg>