<?xml version="1.0" encoding="UTF-8"?>
<svg width="250px" height="250px" viewBox="0 0 250 250" version="1.1" xmlns="http://www.w3.org/2000/svg" xmlns:xlink="http://www.w3.org/1999/xlink">
    <!-- Generator: Sketch 46.2 (44496) - http://www.bohemiancoding.com/sketch -->
    <title>simplemart</title>
    <desc>Created with Sketch.</desc>
    <defs>
        <polygon id="path-1" points="19.0369986 30.070922 0.168246809 30.070922 0.168246809 0.440163121 19.0369986 0.440163121"></polygon>
        <polygon id="path-3" points="0 213.782454 211.603064 213.782454 211.603064 0 0 0"></polygon>
    </defs>
    <g id="Page-1" stroke="none" stroke-width="1" fill="none" fill-rule="evenodd">
        <g id="simplemart">
            <rect id="Rectangle-Copy" fill="#FFFFFF" x="0" y="0" width="250" height="250"></rect>
            <g transform="translate(19.000000, 17.000000)">
                <g id="Group-3" transform="translate(0.000000, 176.945574)" fill="#A8007B">
                    <path d="M10.0578965,28.3809362 C5.95171206,28.3809362 2.73938582,27.3630355 -7.5177305e-05,25.9173759 L2.46273333,20.434695 C4.4218539,21.5706241 7.35376879,22.6253617 10.1360809,22.6253617 C12.8770454,22.6253617 13.9693716,21.6134752 13.9693716,20.1219574 C13.9693716,18.9100993 13.1123504,18.3628085 11.232166,17.8959574 L8.02209504,17.0690071 C4.07152766,16.0503546 1.3674,13.8611915 1.3674,9.16411348 C1.3674,3.76788652 5.82917305,0.161631206 11.9365773,0.161631206 C15.7322794,0.161631206 19.2528326,1.14269504 21.6803078,2.82516312 L18.3138681,7.79363121 C16.4765348,6.58102128 14.0490596,5.87510638 12.1703787,5.87510638 C10.367627,5.87510638 9.39182553,6.73814184 9.39182553,7.83197163 C9.39182553,8.73635461 10.0150454,9.63246809 12.0531021,10.142922 L14.8331589,10.845078 C17.7688326,11.5923404 21.9937972,12.9237305 21.9937972,18.4026525 C21.9937972,24.9378156 17.1388468,28.3809362 10.0578965,28.3809362" id="Fill-1"></path>
                </g>
                <path d="M25.5177333,204.855149 L25.5177333,184.976014 L32.3242865,184.350539 L32.3242865,204.855149 L25.5177333,204.855149 Z M28.884173,183.174014 C26.7649248,183.174014 25.0095348,181.451702 25.0095348,179.340723 C25.0095348,177.225986 26.8070241,175.503674 28.996939,175.503674 C31.1522723,175.503674 32.8347404,177.225986 32.8347404,179.340723 C32.8347404,181.451702 31.0778468,183.174014 28.884173,183.174014 L28.884173,183.174014 Z" id="Fill-4" fill="#A8007B"></path>
                <path d="M57.2169957,204.855149 L57.2169957,192.375716 C57.2169957,189.673092 56.947861,189.515972 55.7713362,189.515972 C55.3398184,189.515972 54.281322,189.869305 53.5814213,190.300071 L53.5814213,204.855149 L47.2018752,204.855149 L47.2018752,192.335121 C47.2018752,189.673092 47.1199319,189.397191 45.8291376,189.397191 C45.2044142,189.397191 44.1865135,189.747518 43.6377191,190.178284 L43.6377191,204.855149 L37.0236199,204.855149 L37.0236199,192.020879 C37.0236199,189.588894 36.9085986,187.39973 36.3966411,185.250411 L42.6596624,184.194922 C42.8543716,184.896326 43.0099887,185.406028 43.0528397,186.151787 C44.4586553,184.896326 46.2223149,184.152071 47.9416199,184.152071 C50.0984567,184.152071 51.4268397,185.056454 52.4830809,186.341234 C54.0881163,184.896326 55.927705,184.152071 58.2807546,184.152071 C61.0946411,184.152071 63.7559177,185.094794 63.7559177,190.14295 L63.7559177,204.855149 L57.2169957,204.855149 Z" id="Fill-6" fill="#A8007B"></path>
                <g id="Group-10" transform="translate(67.659574, 183.711532)">
                    <mask id="mask-2" fill="white">
                        <use xlink:href="#path-1"></use>
                    </mask>
                    <g id="Clip-9"></g>
                    <path d="M9.71877163,5.68528369 C8.62494184,5.68528369 7.95736738,6.15814894 7.60628936,6.70168085 L7.60628936,15.7447589 C7.68522553,16.059 8.22875745,16.2920496 8.89708369,16.2920496 C10.4983603,16.2920496 11.751566,15.943227 11.751566,10.619922 C11.751566,7.44743972 11.5200199,5.68528369 9.71877163,5.68528369 M10.4592681,21.6499362 C9.24966525,21.6499362 8.22875745,21.3815532 7.29129645,20.9906312 C7.48826099,21.5386738 7.60628936,22.4415532 7.60628936,24.0789149 L7.60628936,28.2294539 L0.795225532,30.0712979 L0.795225532,8.30897163 C0.795225532,5.87773759 0.674941844,3.68857447 0.168246809,1.53850355 L6.43051631,0.480007092 C6.6259773,1.02804965 6.78159433,1.65202128 6.86128227,2.28050355 C7.29129645,1.45956738 9.13314043,0.440163121 11.0877504,0.440163121 C18.1702043,0.440163121 19.0369986,6.27241844 19.0369986,10.0312837 C19.0369986,17.8955816 15.9028567,21.6499362 10.4592681,21.6499362" id="Fill-8" fill="#A8007B" mask="url(#mask-2)"></path>
                </g>
                <path d="M95.8921858,205.364701 C90.1373631,205.364701 90.0223418,202.389935 90.0223418,198.359679 L90.0223418,184.581935 C90.0223418,181.922913 90.0576752,178.791027 89.7870369,177.225835 L96.5154057,176.088403 C96.7123702,177.302516 96.8251362,179.066176 96.8251362,181.135807 L96.8251362,196.130672 C96.8251362,199.689566 96.9476752,200.630786 98.4760298,200.630786 C98.7075759,200.630786 98.9436326,200.590942 99.1804411,200.515013 L100.275023,204.739226 C99.3713915,205.094814 97.7723702,205.364701 95.8921858,205.364701" id="Fill-11" fill="#A8007B"></path>
                <path d="M109.981315,188.887339 C108.5334,188.887339 107.591428,189.791722 107.591428,192.489084 L112.133641,192.489084 C112.214081,190.255566 111.626194,188.887339 109.981315,188.887339 L109.981315,188.887339 Z M107.591428,196.911765 C107.591428,198.168729 108.020691,200.592445 110.843599,200.592445 C112.605003,200.592445 114.403244,199.927878 116.167655,198.558899 L118.788336,202.470374 C116.08496,204.546772 113.580052,205.364701 110.566194,205.364701 C104.109967,205.364701 100.54957,201.413382 100.54957,194.876715 C100.54957,188.22202 104.03479,184.151921 109.74601,184.151921 C116.244336,184.151921 118.904109,188.303211 118.864265,195.2308 L118.864265,196.911765 L107.591428,196.911765 Z" id="Fill-13" fill="#A8007B"></path>
                <path d="M153.271414,204.855149 L152.60384,193.861972 C152.488067,192.136652 152.40913,190.730085 152.40913,188.37478 L152.368535,188.37478 C152.057301,190.687234 151.859584,192.064482 151.430322,193.506383 L148.104478,204.855149 L142.151187,204.855149 L139.255357,193.822128 C138.864435,192.29227 138.556209,190.765418 138.358492,188.342454 L138.320152,188.342454 C138.320152,190.765418 138.277301,192.253929 138.199116,193.977745 L137.651826,204.855149 L130.608464,204.855149 L133.268237,177.577064 L141.841457,177.577064 L144.504237,188.37478 C144.895159,189.904638 145.167301,191.354057 145.404109,193.54322 L145.44245,193.54322 C145.677755,191.472837 145.913811,190.14295 146.497187,187.988369 L149.277244,177.577064 L157.573811,177.577064 L160.077967,204.855149 L153.271414,204.855149 Z" id="Fill-15" fill="#A8007B"></path>
                <path d="M172.919604,196.48145 C170.062867,196.404769 169.435888,197.54145 169.435888,198.71196 C169.435888,199.889237 170.135789,200.670329 171.313817,200.670329 C171.903959,200.670329 172.684299,200.316996 172.919604,200.002755 L172.919604,196.48145 Z M177.299434,205.681648 C176.325888,205.3644 175.111774,204.308911 174.796782,203.684939 C173.815718,204.505875 172.136257,205.3644 169.747874,205.3644 C164.73881,205.3644 162.821037,202.389634 162.821037,198.790896 C162.821037,194.957606 166.148384,192.212882 171.782923,192.212882 C172.059576,192.212882 172.721136,192.212882 172.919604,192.257237 L172.919604,191.003279 C172.919604,189.828258 172.763235,189.123847 171.273973,189.123847 C169.005122,189.123847 167.241462,189.944783 165.521406,191.239336 L163.053335,187.012116 C165.562001,185.482258 168.80515,184.152372 172.136257,184.152372 C175.969548,184.152372 178.672923,185.449932 179.414172,187.833052 C179.690072,188.731421 179.729916,189.476428 179.729916,190.961932 L179.649477,197.924854 C179.649477,199.61484 179.805845,200.98457 181.217675,201.882187 L177.299434,205.681648 Z" id="Fill-17" fill="#A8007B"></path>
                <path d="M195.580675,190.142725 C194.876264,189.748044 194.365058,189.58942 193.582462,189.58942 C192.409696,189.58942 191.668448,190.219406 191.197087,191.042597 L191.197087,204.854923 L184.386774,204.854923 L184.386774,192.568696 C184.386774,189.984101 184.307087,187.439349 183.75754,185.250186 L190.022817,184.194696 C190.218278,184.896101 190.454335,185.758384 190.454335,186.577817 C191.273767,185.482484 192.447285,184.072909 194.600363,184.072909 C195.580675,184.072909 196.20615,184.269874 197.146618,184.663051 L195.580675,190.142725 Z" id="Fill-19" fill="#A8007B"></path>
                <path d="M206.423423,205.405823 C202.624713,205.405823 200.079962,204.427766 200.079962,200.514787 L200.079962,189.125426 L198.435082,189.125426 L198.435082,184.662901 L200.079962,184.662901 C200.079962,182.667695 200.120557,180.985227 200.31226,179.650078 L207.086487,178.632929 C206.851182,180.785255 206.891026,182.786475 206.891026,184.662901 L210.609295,184.662901 L209.708671,189.125426 L206.891026,189.125426 L206.891026,197.261113 C206.891026,200.081766 207.282699,200.711752 209.005763,200.711752 C209.629735,200.711752 210.297309,200.556135 210.72582,200.319326 L211.54826,204.235312 C209.826699,205.054745 208.105139,205.405823 206.423423,205.405823" id="Fill-21" fill="#A8007B"></path>
                <path d="M60.560356,162.726539 C54.1266823,161.83644 47.2637461,159.437532 40.5910085,154.79834 L59.3913489,154.79834 C59.4484837,154.794582 59.4950936,154.780298 59.5582426,154.780298 C60.2949801,154.780298 60.4363135,154.337504 60.4618738,154.066113 L60.4618738,149.216426 C60.4363135,148.954057 60.2897177,148.511262 59.5582426,148.511262 C59.5529801,148.511262 59.5424553,148.507504 59.5266681,148.507504 L33.765661,148.507504 C33.9009801,147.884284 34.0265262,147.268582 34.1445546,146.652128 C34.2031929,146.306312 34.2971645,145.628213 33.3499305,145.628213 L26.508044,145.628213 C25.7141716,145.628213 25.5660723,146.170241 25.504427,146.440128 C25.3375333,147.161078 25.1623702,147.853461 24.9571362,148.507504 L3.90373191,148.507504 C3.30231348,148.542085 3.13166099,148.905191 3.09707943,149.151021 L3.09707943,153.892454 L3.09707943,153.917262 L3.09707943,154.066113 C3.11361844,154.330738 3.24968936,154.74722 3.98341986,154.756241 L22.3236752,154.756241 C20.6908241,158.393319 9.45933475,163.188879 2.4452922,163.26105 C2.0686539,163.357277 1.93258298,163.619645 1.89349078,163.833901 L1.89349078,168.484369 C1.89349078,169.730809 2.94672482,169.611277 3.4662,169.55339 C14.5375617,168.176142 24.6767248,164.819475 30.8157035,155.729787 C38.4477035,164.053418 50.8233915,168.464071 60.4227816,169.473702 C60.8475333,169.513546 61.716583,169.647362 61.716583,168.335518 C61.716583,166.787617 61.7541716,164.896156 61.7541716,164.163929 C61.7541716,163.06183 60.9625546,162.779163 60.560356,162.726539" id="Fill-23" fill="#A8007B"></path>
                <path d="M61.7481574,138.542752 L61.7481574,138.542752 C61.7481574,138.542752 61.7519163,138.484865 61.7481574,138.402922 L61.7481574,138.396156 C61.7406397,138.151078 61.6241149,137.687234 60.9482709,137.643631 L35.6864411,137.643631 L35.6864411,133.863716 L58.6771645,133.863716 L58.7079872,133.863716 C59.3898454,133.863716 59.5582426,133.47956 59.5973348,133.207418 L59.5973348,128.423135 L59.5973348,128.397574 L59.5973348,128.243461 C59.5845546,127.981092 59.4492355,127.521007 58.7012213,127.50973 L35.6864411,127.50973 L35.6864411,123.744099 L60.901661,123.744099 C61.5391645,123.700496 61.6812496,123.298298 61.7053064,123.047957 L61.7053064,118.227589 L61.7053064,118.202028 L61.7053064,118.048667 C61.6910227,117.792312 61.5572071,117.357787 60.878356,117.325461 L51.2586681,117.325461 L51.2586681,113.291447 L51.248895,113.291447 C51.248895,113.291447 51.248895,113.277163 51.2586681,113.256865 L51.2586681,113.124553 C51.2428809,112.857674 51.116583,112.381801 50.3542851,112.381801 C50.3302284,112.381801 50.3166965,112.370525 50.3024128,112.370525 L43.501122,112.370525 C43.4785688,112.370525 43.468044,112.381801 43.4477461,112.381801 C42.8425688,112.381801 42.6441007,112.678752 42.5749376,112.938113 L42.5749376,117.325461 L22.1830936,117.325461 L22.1830936,113.291447 L22.1815901,113.291447 C22.1815901,113.291447 22.1815901,113.277163 22.1830936,113.256865 L22.1830936,113.124553 C22.1695617,112.857674 22.0417603,112.381801 21.2787106,112.381801 C21.2591645,112.381801 21.2501433,112.370525 21.2275901,112.370525 L14.4300582,112.370525 C14.4097603,112.370525 14.3947248,112.381801 14.3781858,112.381801 C13.7707532,112.381801 13.5722851,112.678752 13.5038738,112.938113 L13.5038738,117.325461 L2.82644113,117.325461 C2.80313617,117.32922 2.7911078,117.332979 2.76780284,117.332979 C1.72359007,117.332979 1.86642695,118.242624 1.86642695,118.242624 L1.86266809,118.235106 L1.85890922,122.850241 L1.86642695,122.850241 C1.86642695,122.850241 1.75140567,123.653135 2.62722128,123.744099 L28.0529376,123.744099 L28.0529376,127.50973 L5.00432766,127.50973 C4.99154752,127.50973 4.9810227,127.524014 4.96523546,127.524014 C4.29615745,127.524014 4.11723546,127.887121 4.06912199,128.154752 L4.06912199,133.189376 C4.10295177,133.461518 4.26608652,133.863716 4.95621418,133.863716 L28.0529376,133.863716 L28.0529376,137.643631 L2.9640156,137.643631 C2.93920709,137.643631 2.92191631,137.654908 2.88959007,137.654908 C2.16939149,137.654908 2.01527801,138.082667 1.99422837,138.357816 L1.99422837,143.018809 L1.99873901,143.018809 C1.99873901,143.018809 1.99422837,143.04061 1.99422837,143.058652 L1.99422837,143.190965 C2.00776028,143.454085 2.1355617,143.932213 2.89861135,143.932213 C2.91515035,143.932213 2.92868227,143.935972 2.9444695,143.935972 L60.9129376,143.935972 C61.6053206,143.902894 61.733122,143.460851 61.7481574,143.207504 L61.7481574,143.058652 L61.7481574,143.04061 L61.7481574,138.542752 Z" id="Fill-25" fill="#A8007B"></path>
                <path d="M210.707176,169.792379 C211.341672,169.792379 211.544651,169.46235 211.602538,169.192464 L211.602538,164.450279 C211.568708,164.174379 211.407077,163.763159 210.696651,163.763159 C210.686126,163.763159 210.682367,163.757896 210.67485,163.757896 L198.833672,163.757896 L198.833672,134.292904 L209.199871,134.292904 C209.255502,134.2914 209.286325,134.26584 209.341204,134.26584 C209.978708,134.26584 210.178679,133.925287 210.234311,133.656904 L210.234311,128.792932 C210.211006,128.556875 210.096736,128.231357 209.629133,128.126109 L198.833672,128.126109 L198.833672,112.736563 C198.778041,112.475698 198.570552,112.149428 197.951091,112.149428 L197.927786,112.149428 L191.983516,112.149428 L191.969233,112.149428 C191.288126,112.149428 191.106949,112.541102 191.061091,112.813244 L191.061091,128.126109 L180.789616,128.126109 C180.784353,128.126109 180.775332,128.127613 180.762552,128.127613 C180.25285,128.127613 180.021304,128.339613 179.927332,128.566648 L179.927332,133.537372 C179.941616,133.537372 179.950637,133.533613 179.976197,133.532109 C179.976197,133.532109 179.896509,134.030535 180.276155,134.292904 L191.061091,134.292904 L191.061091,163.757896 L177.347999,163.757896 C176.793942,163.801499 176.609006,164.108974 176.554126,164.359315 L176.554126,169.163896 C176.601488,169.426265 176.771389,169.770577 177.377318,169.803655 L210.653048,169.803655 C210.67485,169.799896 210.686126,169.792379 210.707176,169.792379" id="Fill-27" fill="#A8007B"></path>
                <path d="M169.043237,131.616366 L177.431521,131.616366 C177.933705,131.565997 178.116386,131.293855 178.173521,131.047274 L178.173521,126.03821 C178.142698,125.777345 177.975052,125.418749 177.377393,125.375146 L153.601067,125.375146 C152.934244,125.422508 152.804939,125.86455 152.791407,126.116394 L152.791407,126.248706 L152.791407,126.284791 L152.791407,131.025472 C152.839521,131.268295 153.024457,131.565997 153.539421,131.616366 L162.118655,131.616366 L162.118655,169.005799 C162.170528,169.259146 162.368244,169.596692 162.984698,169.599699 L168.163662,169.599699 C168.890627,169.59143 169.03196,169.130593 169.043237,168.864465 L169.043237,168.714111 L169.043237,168.687047 L169.043237,131.616366 Z" id="Fill-29" fill="#A8007B"></path>
                <path d="M177.27237,159.372203 C177.951221,159.372203 178.131647,158.98955 178.174498,158.723423 L178.174498,136.701735 L178.170739,136.701735 C178.170739,136.701735 178.258696,136.070997 177.678328,135.852983 L171.976881,135.852983 C171.682938,135.883806 171.491235,135.980033 171.374711,136.1146 L171.374711,158.727182 C171.422824,159.000827 171.600243,159.375962 172.281349,159.375962 L177.22576,159.375962 C177.239292,159.375962 177.256583,159.372203 177.27237,159.372203" id="Fill-31" fill="#A8007B"></path>
                <path d="M155.380664,114.820779 L155.380664,119.713318 C155.434791,119.974183 155.623487,120.315488 156.250465,120.316991 L174.436607,120.316991 C175.18838,120.310226 175.318437,119.822325 175.325955,119.565218 L175.325955,119.453204 C175.325955,119.426892 175.322196,119.402084 175.322196,119.402084 L175.325955,119.402084 L175.325955,115.130509 L175.322196,115.130509 C175.322196,115.130509 175.325955,115.103445 175.325955,115.085403 L175.325955,114.965871 C175.318437,114.705006 175.18838,114.21936 174.415557,114.208084 L156.26926,114.208084 C155.623487,114.211843 155.434791,114.556155 155.380664,114.820779" id="Fill-33" fill="#A8007B"></path>
                <path d="M159.608635,135.679173 C159.60638,135.679173 159.599614,135.672407 159.592848,135.672407 L154.764962,135.672407 C154.748423,135.672407 154.742409,135.679173 154.728125,135.679173 C154.034238,135.679173 153.86133,136.074606 153.825997,136.345996 L153.825997,144.841783 C153.825997,147.91879 153.633543,150.872506 153.24187,153.698421 C152.850948,156.284521 152.180366,159.482563 151.441373,162.052875 C151.116607,163.18279 151.578196,163.706776 152.455515,163.706776 C153.14038,163.706776 155.945997,164.04357 157.033061,164.04357 C157.454054,164.04357 157.867529,163.454932 157.99533,163.201584 C159.356791,160.5794 160.498735,154.161513 160.498735,144.841783 L160.498735,136.266308 C160.437089,135.997925 160.240877,135.679173 159.608635,135.679173" id="Fill-35" fill="#A8007B"></path>
                <path d="M87.8370879,120.993211 L136.37306,120.993211 C136.37757,120.993211 136.385088,120.989452 136.400123,120.989452 C137.14062,120.989452 137.289471,120.53463 137.316535,120.264743 L137.316535,115.774403 C137.266166,115.515041 137.073712,115.190275 136.494095,115.161708 L114.489698,115.161708 L114.489698,112.562828 C114.462634,112.286928 114.299499,111.87646 113.591329,111.866687 L107.320038,111.866687 C106.601343,111.87646 106.441967,112.298204 106.411145,112.566587 L106.411145,115.161708 L82.0709887,115.161708 C80.7816979,115.088786 80.8674,116.359282 80.8674,116.359282 L80.8674,137.676559 C80.8674,156.8588 78.7105631,159.538871 77.044634,162.094148 C76.7025773,162.612119 76.511627,162.855694 76.511627,163.759325 L76.511627,169.147282 C76.511627,170.615495 77.8603078,169.936644 77.9775844,169.890034 C81.0433149,168.657878 87.8370879,161.873126 87.8370879,141.21741 L87.8370879,120.993211 Z" id="Fill-37" fill="#A8007B"></path>
                <mask id="mask-4" fill="white">
                    <use xlink:href="#path-3"></use>
                </mask>
                <g id="Clip-40"></g>
                <path d="M120.972312,149.102156 L125.354397,149.102156 L125.354397,146.124383 L120.972312,146.124383 L120.972312,149.102156 Z M120.972312,140.668766 L125.354397,140.668766 L125.354397,138.258582 L120.972312,138.258582 L120.972312,140.668766 Z M108.417702,132.808979 L113.870312,132.808979 L113.870312,130.393532 L108.417702,130.393532 L108.417702,132.808979 Z M108.417702,140.668766 L113.870312,140.668766 L113.870312,138.258582 L108.417702,138.258582 L108.417702,140.668766 Z M108.417702,149.104411 L113.870312,149.104411 L113.870312,146.125135 L108.417702,146.125135 L108.417702,149.104411 Z M135.34095,163.210681 C130.699504,160.876426 126.627901,156.309404 124.962723,154.617163 L131.47383,154.617163 C131.49939,154.613404 131.517433,154.609645 131.546,154.609645 C132.26244,154.609645 132.423319,154.189404 132.455645,153.913504 L132.455645,146.124383 L136.522738,146.124383 C137.247447,146.103333 137.38878,145.646255 137.409078,145.38539 L137.409078,145.207972 L137.409078,145.193688 L137.409078,141.376936 C137.382014,141.110809 137.229404,140.702596 136.570099,140.668766 L132.455645,140.668766 L132.455645,133.511887 C132.430837,133.258539 132.285745,132.85634 131.662525,132.808979 L120.972312,132.808979 L120.972312,130.395035 L134.353872,130.395035 C134.373418,130.395035 134.388454,130.391277 134.409504,130.391277 C135.169546,130.391277 135.308624,129.914652 135.325163,129.644766 L135.325163,129.477872 L135.325163,129.458326 L135.325163,125.500241 C135.272539,125.240879 135.087603,124.91461 134.514752,124.886043 L124.247035,124.886043 L124.776284,123.577206 C124.776284,123.577206 125.337858,122.432255 124.192156,122.432255 L118.94478,122.432255 C117.994539,122.432255 117.710369,123.254695 117.710369,123.254695 L117.066851,124.886043 L105.199362,124.886043 L105.727858,123.577206 C105.727858,123.577206 106.29244,122.432255 105.145234,122.432255 L99.8971064,122.432255 C98.9438582,122.432255 98.662695,123.254695 98.662695,123.254695 L98.0176738,124.886043 L90.3255319,124.886043 C90.2518582,124.886043 90.1939716,124.907844 90.109773,124.907844 C89.4512199,124.907844 89.2572624,125.26644 89.2068936,125.54234 L89.2068936,129.755277 C89.2602695,130.028922 89.4512199,130.391277 90.109773,130.391277 C90.1436028,130.391277 90.1586383,130.395035 90.1902128,130.395035 L101.441248,130.395035 L101.441248,132.808979 L92.001234,132.808979 C91.4704823,132.848823 91.282539,133.149532 91.226156,133.399872 L91.226156,137.680468 C91.282539,137.915773 91.4652199,138.205206 91.9786809,138.258582 L101.441248,138.258582 L101.441248,140.668766 L89.6820142,140.668766 C89.6444255,140.668766 89.626383,140.680794 89.5910496,140.680794 C88.9324965,140.680794 88.7325248,141.043149 88.6836596,141.315291 L88.6836596,145.175645 L88.6926809,145.175645 C88.6926809,145.175645 88.549844,146.103333 89.6128511,146.103333 C89.6782553,146.103333 89.7248652,146.117617 89.7865106,146.124383 L101.441248,146.124383 L101.441248,149.104411 L92.0222837,149.104411 C91.4592057,149.145759 91.275773,149.46827 91.226156,149.727631 L91.226156,153.67444 L91.2344255,153.67444 C91.2344255,153.67444 91.0900851,154.598369 92.1500851,154.598369 C92.210227,154.598369 92.2493191,154.613404 92.3019433,154.617163 L97.3508511,154.617163 C96.2171773,156.287603 90.7803546,161.14105 87.7882979,162.800965 C87.4823262,162.971617 86.9440567,163.282851 86.9440567,164.252638 L86.9440567,168.770794 C86.9440567,169.804482 87.8454326,169.357177 88.3265674,169.169234 C93.2875177,167.249957 99.9700284,161.350794 101.313447,159.060894 L101.441248,169.192539 C101.458539,169.911986 101.888553,170.067603 102.15844,170.086397 L107.806511,170.086397 C108.074894,170.031518 108.400411,169.828539 108.400411,169.18878 C108.400411,169.154199 108.417702,169.130894 108.417702,169.100071 L108.417702,154.617163 L113.870312,154.617163 L113.870312,169.415064 C113.940979,169.875901 114.213121,170.039035 114.444667,170.086397 L120.372397,170.086397 C120.639277,170.031518 120.968553,169.832298 120.972312,169.203816 L120.972312,158.998496 C122.91339,161.101206 129.426,167.389787 134.892142,169.368454 C135.510099,169.615035 136.291191,169.725546 136.291191,168.686596 C136.291191,166.740255 136.332539,165.145745 136.332539,164.729262 C136.332539,164.200014 136.305475,163.692567 135.34095,163.210681 L135.34095,163.210681 Z" id="Fill-39" fill="#A8007B" mask="url(#mask-4)"></path>
                <path d="M144.75375,19.9843078 C142.926942,19.9843078 141.449708,18.5055702 141.449708,16.6802652 C141.449708,14.852705 142.926942,13.3747191 144.75375,13.3747191 C146.580559,13.3747191 148.0608,14.852705 148.0608,16.6802652 C148.0608,18.5055702 146.580559,19.9843078 144.75375,19.9843078 M170.657594,16.4509745 C169.993779,14.4580241 163.705949,16.1803362 162.103921,12.8041234 C155.973211,-0.109834043 133.522261,-5.43915319 118.165041,11.5892582 C138.265949,46.1835986 117.925226,73.6173007 117.925226,73.6173007 C112.654545,57.5714567 83.1068567,56.3370454 71.0175943,57.1369319 C59.9905872,57.8646482 43.9439915,56.6505348 34.3303177,49.9853149 C41.630034,64.5088184 66.3663745,94.2181376 108.694204,96.9568468 C137.610403,96.9568468 165.090715,81.1019532 165.090715,26.5938965 C165.090715,20.4684496 171.324417,18.4424213 170.657594,16.4509745" id="Fill-41" fill="#A8007B" mask="url(#mask-4)"></path>
                <path d="M87.2658908,52.1182454 C95.0324582,53.1632099 111.826316,55.2809546 117.700671,64.6194794 C117.700671,64.6194794 126.07016,47.1798482 118.487777,26.1106567 C107.694572,-3.89260567 87.9725574,-4.51206667 80.8194369,6.6886 C78.0739617,10.984983 80.1496071,17.467522 83.9934227,23.6756638 C78.4017348,21.969139 70.0893801,22.6607702 67.5168128,31.1490397 C63.9421319,42.9601461 77.8536922,50.8469972 87.2658908,52.1182454" id="Fill-42" fill="#A8007B" mask="url(#mask-4)"></path>
            </g>
        </g>
    </g>
</svg>